M48
; DRILL file {KiCad (5.1.5)-3} date 08/04/2020 11:16:52
; FORMAT={3:3/ absolute / metric / suppress leading zeros}
; #@! TF.CreationDate,2020-04-08T11:16:52+02:00
; #@! TF.GenerationSoftware,Kicad,Pcbnew,(5.1.5)-3
FMAT,2
METRIC,TZ
T1C0.800
T2C0.900
T3C1.100
T4C2.000
T5C2.000
T6C3.200
%
G90
G05
T1
X107950Y-120650
X116840Y-113030
X116840Y-120650
X111760Y-113030
X111760Y-120650
X156210Y-91440
X161210Y-91440
X99060Y-113030
X99060Y-120650
X148670Y-91440
X153670Y-91440
X104140Y-113030
X104140Y-120650
T2
X133350Y-91440
X135890Y-91440
X133350Y-128270
X135890Y-128270
X138430Y-128270
X140970Y-128270
X143510Y-128270
X146050Y-128270
X148590Y-128270
X151130Y-128270
X153670Y-128270
X156210Y-128270
X158750Y-128270
X123190Y-91440
X125730Y-91440
X133350Y-101600
X133350Y-121920
X135890Y-101600
X135890Y-121920
X138430Y-101600
X138430Y-121920
X140970Y-101600
X140970Y-121920
X141605Y-110490
X141605Y-113030
X143510Y-101600
X143510Y-121920
X146050Y-101600
X146050Y-121920
X148590Y-101600
X148590Y-121920
X151130Y-101600
X151130Y-121920
X153670Y-101600
X153670Y-121920
X156210Y-101600
X156210Y-121920
X158750Y-101600
X158750Y-121920
X123190Y-95250
X125730Y-95250
X92710Y-114300
X92710Y-116840
X92710Y-119380
X92710Y-121920
X92710Y-105410
X92710Y-107950
X92710Y-96520
X92710Y-99060
X104140Y-128270
X106680Y-128270
X109220Y-128270
X111760Y-128270
X133350Y-95250
X135890Y-95250
X138430Y-95250
X140970Y-95250
X143510Y-95250
X146050Y-95250
X148590Y-95250
X151130Y-95250
X153670Y-95250
X156210Y-95250
X158750Y-95250
T3
X99060Y-91440
X99060Y-95940
X105560Y-91440
X105560Y-95940
X110490Y-91440
X110490Y-95940
X116990Y-91440
X116990Y-95940
T4
X93100Y-77470
X165100Y-77470
T5
X166370Y-128270
X166370Y-91440
X92710Y-91440
X92710Y-128270
T6
X100845Y-77470
X156455Y-77470
T0
M30
