G04 #@! TF.GenerationSoftware,KiCad,Pcbnew,(5.1.5)-3*
G04 #@! TF.CreationDate,2020-04-08T11:02:51+02:00*
G04 #@! TF.ProjectId,AdaptaddorCubeCell,41646170-7461-4646-946f-724375626543,1.0*
G04 #@! TF.SameCoordinates,Original*
G04 #@! TF.FileFunction,Copper,L1,Top*
G04 #@! TF.FilePolarity,Positive*
%FSLAX46Y46*%
G04 Gerber Fmt 4.6, Leading zero omitted, Abs format (unit mm)*
G04 Created by KiCad (PCBNEW (5.1.5)-3) date 2020-04-08 11:02:51*
%MOMM*%
%LPD*%
G04 APERTURE LIST*
%ADD10R,1.700000X2.300000*%
%ADD11O,1.700000X2.300000*%
%ADD12R,2.300000X1.700000*%
%ADD13O,2.300000X1.700000*%
%ADD14R,5.500000X3.500000*%
%ADD15O,5.500000X3.500000*%
%ADD16O,1.600000X2.000000*%
%ADD17O,2.700000X2.000000*%
%ADD18O,2.524000X1.524000*%
%ADD19O,1.524000X2.524000*%
%ADD20C,2.000000*%
%ADD21C,0.350000*%
%ADD22C,0.254000*%
G04 APERTURE END LIST*
D10*
X133350000Y-128270000D03*
D11*
X135890000Y-128270000D03*
X138430000Y-128270000D03*
X140970000Y-128270000D03*
X143510000Y-128270000D03*
X146050000Y-128270000D03*
X148590000Y-128270000D03*
X151130000Y-128270000D03*
X153670000Y-128270000D03*
X156210000Y-128270000D03*
X158750000Y-128270000D03*
D10*
X133350000Y-95250000D03*
D11*
X135890000Y-95250000D03*
X138430000Y-95250000D03*
X140970000Y-95250000D03*
X143510000Y-95250000D03*
X146050000Y-95250000D03*
X148590000Y-95250000D03*
X151130000Y-95250000D03*
X153670000Y-95250000D03*
X156210000Y-95250000D03*
X158750000Y-95250000D03*
D10*
X123190000Y-95250000D03*
D11*
X125730000Y-95250000D03*
D10*
X133350000Y-91440000D03*
D11*
X135890000Y-91440000D03*
D10*
X125730000Y-91440000D03*
D11*
X123190000Y-91440000D03*
D12*
X92710000Y-107950000D03*
D13*
X92710000Y-105410000D03*
D12*
X92710000Y-99060000D03*
D13*
X92710000Y-96520000D03*
D10*
X104140000Y-128270000D03*
D11*
X106680000Y-128270000D03*
X109220000Y-128270000D03*
X111760000Y-128270000D03*
D12*
X92710000Y-114300000D03*
D13*
X92710000Y-116840000D03*
X92710000Y-119380000D03*
X92710000Y-121920000D03*
D14*
X165100000Y-77470000D03*
D15*
X93100000Y-77470000D03*
D16*
X156210000Y-91440000D03*
X161210000Y-91440000D03*
X148670000Y-91440000D03*
X153670000Y-91440000D03*
X116840000Y-113030000D03*
X116840000Y-120650000D03*
X111760000Y-120650000D03*
X111760000Y-113030000D03*
X104140000Y-120650000D03*
X104140000Y-113030000D03*
X99060000Y-113030000D03*
X99060000Y-120650000D03*
D17*
X116990000Y-91440000D03*
X116990000Y-95940000D03*
X110490000Y-91440000D03*
X110490000Y-95940000D03*
X99060000Y-95940000D03*
X99060000Y-91440000D03*
X105560000Y-95940000D03*
X105560000Y-91440000D03*
D18*
X141605000Y-110490000D03*
X141605000Y-113030000D03*
D19*
X158750000Y-101600000D03*
X156210000Y-101600000D03*
X153670000Y-101600000D03*
X151130000Y-101600000D03*
X148590000Y-101600000D03*
X146050000Y-101600000D03*
X143510000Y-101600000D03*
X140970000Y-101600000D03*
X138430000Y-101600000D03*
X135890000Y-101600000D03*
X158750000Y-121920000D03*
X156210000Y-121920000D03*
X153670000Y-121920000D03*
X151130000Y-121920000D03*
X148590000Y-121920000D03*
X146050000Y-121920000D03*
X143510000Y-121920000D03*
X140970000Y-121920000D03*
X138430000Y-121920000D03*
X135890000Y-121920000D03*
X133350000Y-101600000D03*
X133350000Y-121920000D03*
D20*
X107950000Y-120650000D03*
D21*
X92710000Y-107950000D02*
X109220000Y-107950000D01*
X110490000Y-106680000D02*
X110490000Y-95940000D01*
X109220000Y-107950000D02*
X110490000Y-106680000D01*
X116990000Y-91440000D02*
X110490000Y-91440000D01*
X108790000Y-91440000D02*
X107950000Y-92280000D01*
X110490000Y-91440000D02*
X108790000Y-91440000D01*
X107950000Y-92280000D02*
X107950000Y-104140000D01*
X106680000Y-105410000D02*
X92710000Y-105410000D01*
X107950000Y-104140000D02*
X106680000Y-105410000D01*
X119380000Y-111760000D02*
X118110000Y-113030000D01*
X119380000Y-92130000D02*
X119380000Y-111760000D01*
X118110000Y-113030000D02*
X116840000Y-113030000D01*
X116990000Y-91440000D02*
X118690000Y-91440000D01*
X118690000Y-91440000D02*
X119380000Y-92130000D01*
X92710000Y-121920000D02*
X94210000Y-121920000D01*
X95250000Y-120880000D02*
X95250000Y-119380000D01*
X94210000Y-121920000D02*
X95250000Y-120880000D01*
X95250000Y-119380000D02*
X96520000Y-118110000D01*
X96520000Y-118110000D02*
X102870000Y-118110000D01*
X102870000Y-118110000D02*
X104140000Y-119380000D01*
X104140000Y-119380000D02*
X104140000Y-120650000D01*
X104140000Y-121920000D02*
X104140000Y-120650000D01*
X110490000Y-123190000D02*
X105410000Y-123190000D01*
X105410000Y-123190000D02*
X104140000Y-121920000D01*
X111760000Y-128270000D02*
X111760000Y-124460000D01*
X111760000Y-124460000D02*
X110490000Y-123190000D01*
X128270000Y-128270000D02*
X111760000Y-128270000D01*
X148590000Y-121920000D02*
X148590000Y-120650000D01*
X130810000Y-119380000D02*
X129540000Y-120650000D01*
X148590000Y-120650000D02*
X147320000Y-119380000D01*
X147320000Y-119380000D02*
X130810000Y-119380000D01*
X129540000Y-127000000D02*
X128270000Y-128270000D01*
X129540000Y-120650000D02*
X129540000Y-127000000D01*
X107950000Y-124460000D02*
X100330000Y-124460000D01*
X99060000Y-123190000D02*
X99060000Y-120650000D01*
X109220000Y-128270000D02*
X109220000Y-125730000D01*
X100330000Y-124460000D02*
X99060000Y-123190000D01*
X109220000Y-125730000D02*
X107950000Y-124460000D01*
X104140000Y-113030000D02*
X106680000Y-113030000D01*
X107950000Y-114300000D02*
X107950000Y-120650000D01*
X106680000Y-113030000D02*
X107950000Y-114300000D01*
X125730000Y-95250000D02*
X125730000Y-109220000D01*
X127000000Y-110490000D02*
X141605000Y-110490000D01*
X125730000Y-109220000D02*
X127000000Y-110490000D01*
X123190000Y-95250000D02*
X123190000Y-111760000D01*
X124460000Y-113030000D02*
X141605000Y-113030000D01*
X123190000Y-111760000D02*
X124460000Y-113030000D01*
D22*
G36*
X169520001Y-131420000D02*
G01*
X89560000Y-131420000D01*
X89560000Y-128108967D01*
X91075000Y-128108967D01*
X91075000Y-128431033D01*
X91137832Y-128746912D01*
X91261082Y-129044463D01*
X91440013Y-129312252D01*
X91667748Y-129539987D01*
X91935537Y-129718918D01*
X92233088Y-129842168D01*
X92548967Y-129905000D01*
X92871033Y-129905000D01*
X93186912Y-129842168D01*
X93484463Y-129718918D01*
X93752252Y-129539987D01*
X93979987Y-129312252D01*
X94158918Y-129044463D01*
X94282168Y-128746912D01*
X94345000Y-128431033D01*
X94345000Y-128108967D01*
X94282168Y-127793088D01*
X94158918Y-127495537D01*
X93979987Y-127227748D01*
X93872239Y-127120000D01*
X102651928Y-127120000D01*
X102651928Y-129420000D01*
X102664188Y-129544482D01*
X102700498Y-129664180D01*
X102759463Y-129774494D01*
X102838815Y-129871185D01*
X102935506Y-129950537D01*
X103045820Y-130009502D01*
X103165518Y-130045812D01*
X103290000Y-130058072D01*
X104990000Y-130058072D01*
X105114482Y-130045812D01*
X105234180Y-130009502D01*
X105344494Y-129950537D01*
X105441185Y-129871185D01*
X105520537Y-129774494D01*
X105579502Y-129664180D01*
X105602225Y-129589272D01*
X105719748Y-129709857D01*
X105960574Y-129875291D01*
X106229047Y-129990563D01*
X106323110Y-130011476D01*
X106553000Y-129890155D01*
X106553000Y-128397000D01*
X106533000Y-128397000D01*
X106533000Y-128143000D01*
X106553000Y-128143000D01*
X106553000Y-126649845D01*
X106323110Y-126528524D01*
X106229047Y-126549437D01*
X105960574Y-126664709D01*
X105719748Y-126830143D01*
X105602225Y-126950728D01*
X105579502Y-126875820D01*
X105520537Y-126765506D01*
X105441185Y-126668815D01*
X105344494Y-126589463D01*
X105234180Y-126530498D01*
X105114482Y-126494188D01*
X104990000Y-126481928D01*
X103290000Y-126481928D01*
X103165518Y-126494188D01*
X103045820Y-126530498D01*
X102935506Y-126589463D01*
X102838815Y-126668815D01*
X102759463Y-126765506D01*
X102700498Y-126875820D01*
X102664188Y-126995518D01*
X102651928Y-127120000D01*
X93872239Y-127120000D01*
X93752252Y-127000013D01*
X93484463Y-126821082D01*
X93186912Y-126697832D01*
X92871033Y-126635000D01*
X92548967Y-126635000D01*
X92233088Y-126697832D01*
X91935537Y-126821082D01*
X91667748Y-127000013D01*
X91440013Y-127227748D01*
X91261082Y-127495537D01*
X91137832Y-127793088D01*
X91075000Y-128108967D01*
X89560000Y-128108967D01*
X89560000Y-119380000D01*
X90917815Y-119380000D01*
X90946487Y-119671111D01*
X91031401Y-119951034D01*
X91169294Y-120209014D01*
X91354866Y-120435134D01*
X91580986Y-120620706D01*
X91635791Y-120650000D01*
X91580986Y-120679294D01*
X91354866Y-120864866D01*
X91169294Y-121090986D01*
X91031401Y-121348966D01*
X90946487Y-121628889D01*
X90917815Y-121920000D01*
X90946487Y-122211111D01*
X91031401Y-122491034D01*
X91169294Y-122749014D01*
X91354866Y-122975134D01*
X91580986Y-123160706D01*
X91838966Y-123298599D01*
X92118889Y-123383513D01*
X92337050Y-123405000D01*
X93082950Y-123405000D01*
X93301111Y-123383513D01*
X93581034Y-123298599D01*
X93839014Y-123160706D01*
X94065134Y-122975134D01*
X94250706Y-122749014D01*
X94261485Y-122728848D01*
X94368788Y-122718280D01*
X94521473Y-122671963D01*
X94662189Y-122596749D01*
X94785528Y-122495528D01*
X94810899Y-122464613D01*
X95794619Y-121480894D01*
X95825528Y-121455528D01*
X95916669Y-121344472D01*
X95926749Y-121332190D01*
X96001962Y-121191474D01*
X96001963Y-121191473D01*
X96048280Y-121038788D01*
X96060000Y-120919791D01*
X96060000Y-120919789D01*
X96063919Y-120880001D01*
X96060000Y-120840213D01*
X96060000Y-119715512D01*
X96855513Y-118920000D01*
X102534488Y-118920000D01*
X103086355Y-119471867D01*
X102941068Y-119648900D01*
X102807818Y-119898193D01*
X102725764Y-120168692D01*
X102705000Y-120379509D01*
X102705000Y-120920492D01*
X102725764Y-121131309D01*
X102807818Y-121401808D01*
X102941068Y-121651101D01*
X103120393Y-121869608D01*
X103338769Y-122048824D01*
X103341720Y-122078787D01*
X103388037Y-122231472D01*
X103388038Y-122231473D01*
X103463251Y-122372189D01*
X103479280Y-122391720D01*
X103564472Y-122495528D01*
X103595387Y-122520899D01*
X104724487Y-123650000D01*
X100665513Y-123650000D01*
X99870000Y-122854488D01*
X99870000Y-122041629D01*
X100079608Y-121869608D01*
X100258932Y-121651101D01*
X100392182Y-121401807D01*
X100474236Y-121131308D01*
X100495000Y-120920491D01*
X100495000Y-120379508D01*
X100474236Y-120168691D01*
X100392182Y-119898192D01*
X100258932Y-119648899D01*
X100079607Y-119430392D01*
X99861100Y-119251068D01*
X99611807Y-119117818D01*
X99341308Y-119035764D01*
X99060000Y-119008057D01*
X98778691Y-119035764D01*
X98508192Y-119117818D01*
X98258899Y-119251068D01*
X98040392Y-119430393D01*
X97861068Y-119648900D01*
X97727818Y-119898193D01*
X97645764Y-120168692D01*
X97625000Y-120379509D01*
X97625000Y-120920492D01*
X97645764Y-121131309D01*
X97727818Y-121401808D01*
X97861068Y-121651101D01*
X98040393Y-121869608D01*
X98250000Y-122041628D01*
X98250000Y-123150212D01*
X98246081Y-123190000D01*
X98250000Y-123229788D01*
X98250000Y-123229790D01*
X98261720Y-123348787D01*
X98308037Y-123501472D01*
X98308038Y-123501473D01*
X98383251Y-123642189D01*
X98399280Y-123661720D01*
X98484472Y-123765528D01*
X98515387Y-123790899D01*
X99729105Y-125004618D01*
X99754472Y-125035528D01*
X99822210Y-125091119D01*
X99877810Y-125136749D01*
X99953024Y-125176951D01*
X100018527Y-125211963D01*
X100171212Y-125258280D01*
X100290209Y-125270000D01*
X100290211Y-125270000D01*
X100329999Y-125273919D01*
X100369787Y-125270000D01*
X107614488Y-125270000D01*
X108410001Y-126065514D01*
X108410001Y-126719130D01*
X108390986Y-126729294D01*
X108164866Y-126914866D01*
X107979294Y-127140987D01*
X107948105Y-127199338D01*
X107844176Y-127039381D01*
X107640252Y-126830143D01*
X107399426Y-126664709D01*
X107130953Y-126549437D01*
X107036890Y-126528524D01*
X106807000Y-126649845D01*
X106807000Y-128143000D01*
X106827000Y-128143000D01*
X106827000Y-128397000D01*
X106807000Y-128397000D01*
X106807000Y-129890155D01*
X107036890Y-130011476D01*
X107130953Y-129990563D01*
X107399426Y-129875291D01*
X107640252Y-129709857D01*
X107844176Y-129500619D01*
X107948105Y-129340663D01*
X107979294Y-129399014D01*
X108164866Y-129625134D01*
X108390987Y-129810706D01*
X108648967Y-129948599D01*
X108928890Y-130033513D01*
X109220000Y-130062185D01*
X109511111Y-130033513D01*
X109791034Y-129948599D01*
X110049014Y-129810706D01*
X110275134Y-129625134D01*
X110460706Y-129399014D01*
X110490000Y-129344209D01*
X110519294Y-129399014D01*
X110704866Y-129625134D01*
X110930987Y-129810706D01*
X111188967Y-129948599D01*
X111468890Y-130033513D01*
X111760000Y-130062185D01*
X112051111Y-130033513D01*
X112331034Y-129948599D01*
X112589014Y-129810706D01*
X112815134Y-129625134D01*
X112983483Y-129420000D01*
X131861928Y-129420000D01*
X131874188Y-129544482D01*
X131910498Y-129664180D01*
X131969463Y-129774494D01*
X132048815Y-129871185D01*
X132145506Y-129950537D01*
X132255820Y-130009502D01*
X132375518Y-130045812D01*
X132500000Y-130058072D01*
X133064250Y-130055000D01*
X133223000Y-129896250D01*
X133223000Y-128397000D01*
X132023750Y-128397000D01*
X131865000Y-128555750D01*
X131861928Y-129420000D01*
X112983483Y-129420000D01*
X113000706Y-129399014D01*
X113138599Y-129141034D01*
X113157113Y-129080000D01*
X128230212Y-129080000D01*
X128270000Y-129083919D01*
X128309788Y-129080000D01*
X128309791Y-129080000D01*
X128428788Y-129068280D01*
X128581473Y-129021963D01*
X128722189Y-128946749D01*
X128845528Y-128845528D01*
X128870899Y-128814613D01*
X130084618Y-127600895D01*
X130115528Y-127575528D01*
X130171119Y-127507790D01*
X130216749Y-127452190D01*
X130291962Y-127311474D01*
X130291963Y-127311473D01*
X130338280Y-127158788D01*
X130342100Y-127120000D01*
X131861928Y-127120000D01*
X131865000Y-127984250D01*
X132023750Y-128143000D01*
X133223000Y-128143000D01*
X133223000Y-126643750D01*
X133477000Y-126643750D01*
X133477000Y-128143000D01*
X133497000Y-128143000D01*
X133497000Y-128397000D01*
X133477000Y-128397000D01*
X133477000Y-129896250D01*
X133635750Y-130055000D01*
X134200000Y-130058072D01*
X134324482Y-130045812D01*
X134444180Y-130009502D01*
X134554494Y-129950537D01*
X134651185Y-129871185D01*
X134730537Y-129774494D01*
X134789502Y-129664180D01*
X134810393Y-129595313D01*
X134834866Y-129625134D01*
X135060987Y-129810706D01*
X135318967Y-129948599D01*
X135598890Y-130033513D01*
X135890000Y-130062185D01*
X136181111Y-130033513D01*
X136461034Y-129948599D01*
X136719014Y-129810706D01*
X136945134Y-129625134D01*
X137130706Y-129399014D01*
X137160000Y-129344209D01*
X137189294Y-129399014D01*
X137374866Y-129625134D01*
X137600987Y-129810706D01*
X137858967Y-129948599D01*
X138138890Y-130033513D01*
X138430000Y-130062185D01*
X138721111Y-130033513D01*
X139001034Y-129948599D01*
X139259014Y-129810706D01*
X139485134Y-129625134D01*
X139670706Y-129399014D01*
X139700000Y-129344209D01*
X139729294Y-129399014D01*
X139914866Y-129625134D01*
X140140987Y-129810706D01*
X140398967Y-129948599D01*
X140678890Y-130033513D01*
X140970000Y-130062185D01*
X141261111Y-130033513D01*
X141541034Y-129948599D01*
X141799014Y-129810706D01*
X142025134Y-129625134D01*
X142210706Y-129399014D01*
X142241895Y-129340663D01*
X142345824Y-129500619D01*
X142549748Y-129709857D01*
X142790574Y-129875291D01*
X143059047Y-129990563D01*
X143153110Y-130011476D01*
X143383000Y-129890155D01*
X143383000Y-128397000D01*
X143363000Y-128397000D01*
X143363000Y-128143000D01*
X143383000Y-128143000D01*
X143383000Y-126649845D01*
X143637000Y-126649845D01*
X143637000Y-128143000D01*
X143657000Y-128143000D01*
X143657000Y-128397000D01*
X143637000Y-128397000D01*
X143637000Y-129890155D01*
X143866890Y-130011476D01*
X143960953Y-129990563D01*
X144229426Y-129875291D01*
X144470252Y-129709857D01*
X144674176Y-129500619D01*
X144778105Y-129340663D01*
X144809294Y-129399014D01*
X144994866Y-129625134D01*
X145220987Y-129810706D01*
X145478967Y-129948599D01*
X145758890Y-130033513D01*
X146050000Y-130062185D01*
X146341111Y-130033513D01*
X146621034Y-129948599D01*
X146879014Y-129810706D01*
X147105134Y-129625134D01*
X147290706Y-129399014D01*
X147320000Y-129344209D01*
X147349294Y-129399014D01*
X147534866Y-129625134D01*
X147760987Y-129810706D01*
X148018967Y-129948599D01*
X148298890Y-130033513D01*
X148590000Y-130062185D01*
X148881111Y-130033513D01*
X149161034Y-129948599D01*
X149419014Y-129810706D01*
X149645134Y-129625134D01*
X149830706Y-129399014D01*
X149860000Y-129344209D01*
X149889294Y-129399014D01*
X150074866Y-129625134D01*
X150300987Y-129810706D01*
X150558967Y-129948599D01*
X150838890Y-130033513D01*
X151130000Y-130062185D01*
X151421111Y-130033513D01*
X151701034Y-129948599D01*
X151959014Y-129810706D01*
X152185134Y-129625134D01*
X152370706Y-129399014D01*
X152400000Y-129344209D01*
X152429294Y-129399014D01*
X152614866Y-129625134D01*
X152840987Y-129810706D01*
X153098967Y-129948599D01*
X153378890Y-130033513D01*
X153670000Y-130062185D01*
X153961111Y-130033513D01*
X154241034Y-129948599D01*
X154499014Y-129810706D01*
X154725134Y-129625134D01*
X154910706Y-129399014D01*
X154940000Y-129344209D01*
X154969294Y-129399014D01*
X155154866Y-129625134D01*
X155380987Y-129810706D01*
X155638967Y-129948599D01*
X155918890Y-130033513D01*
X156210000Y-130062185D01*
X156501111Y-130033513D01*
X156781034Y-129948599D01*
X157039014Y-129810706D01*
X157265134Y-129625134D01*
X157450706Y-129399014D01*
X157480000Y-129344209D01*
X157509294Y-129399014D01*
X157694866Y-129625134D01*
X157920987Y-129810706D01*
X158178967Y-129948599D01*
X158458890Y-130033513D01*
X158750000Y-130062185D01*
X159041111Y-130033513D01*
X159321034Y-129948599D01*
X159579014Y-129810706D01*
X159805134Y-129625134D01*
X159990706Y-129399014D01*
X160128599Y-129141034D01*
X160213513Y-128861110D01*
X160235000Y-128642949D01*
X160235000Y-128108967D01*
X164735000Y-128108967D01*
X164735000Y-128431033D01*
X164797832Y-128746912D01*
X164921082Y-129044463D01*
X165100013Y-129312252D01*
X165327748Y-129539987D01*
X165595537Y-129718918D01*
X165893088Y-129842168D01*
X166208967Y-129905000D01*
X166531033Y-129905000D01*
X166846912Y-129842168D01*
X167144463Y-129718918D01*
X167412252Y-129539987D01*
X167639987Y-129312252D01*
X167818918Y-129044463D01*
X167942168Y-128746912D01*
X168005000Y-128431033D01*
X168005000Y-128108967D01*
X167942168Y-127793088D01*
X167818918Y-127495537D01*
X167639987Y-127227748D01*
X167412252Y-127000013D01*
X167144463Y-126821082D01*
X166846912Y-126697832D01*
X166531033Y-126635000D01*
X166208967Y-126635000D01*
X165893088Y-126697832D01*
X165595537Y-126821082D01*
X165327748Y-127000013D01*
X165100013Y-127227748D01*
X164921082Y-127495537D01*
X164797832Y-127793088D01*
X164735000Y-128108967D01*
X160235000Y-128108967D01*
X160235000Y-127897050D01*
X160213513Y-127678889D01*
X160128599Y-127398966D01*
X159990706Y-127140986D01*
X159805134Y-126914866D01*
X159579013Y-126729294D01*
X159321033Y-126591401D01*
X159041110Y-126506487D01*
X158750000Y-126477815D01*
X158458889Y-126506487D01*
X158178966Y-126591401D01*
X157920986Y-126729294D01*
X157694866Y-126914866D01*
X157509294Y-127140987D01*
X157480000Y-127195792D01*
X157450706Y-127140986D01*
X157265134Y-126914866D01*
X157039013Y-126729294D01*
X156781033Y-126591401D01*
X156501110Y-126506487D01*
X156210000Y-126477815D01*
X155918889Y-126506487D01*
X155638966Y-126591401D01*
X155380986Y-126729294D01*
X155154866Y-126914866D01*
X154969294Y-127140987D01*
X154940000Y-127195792D01*
X154910706Y-127140986D01*
X154725134Y-126914866D01*
X154499013Y-126729294D01*
X154241033Y-126591401D01*
X153961110Y-126506487D01*
X153670000Y-126477815D01*
X153378889Y-126506487D01*
X153098966Y-126591401D01*
X152840986Y-126729294D01*
X152614866Y-126914866D01*
X152429294Y-127140987D01*
X152400000Y-127195792D01*
X152370706Y-127140986D01*
X152185134Y-126914866D01*
X151959013Y-126729294D01*
X151701033Y-126591401D01*
X151421110Y-126506487D01*
X151130000Y-126477815D01*
X150838889Y-126506487D01*
X150558966Y-126591401D01*
X150300986Y-126729294D01*
X150074866Y-126914866D01*
X149889294Y-127140987D01*
X149860000Y-127195792D01*
X149830706Y-127140986D01*
X149645134Y-126914866D01*
X149419013Y-126729294D01*
X149161033Y-126591401D01*
X148881110Y-126506487D01*
X148590000Y-126477815D01*
X148298889Y-126506487D01*
X148018966Y-126591401D01*
X147760986Y-126729294D01*
X147534866Y-126914866D01*
X147349294Y-127140987D01*
X147320000Y-127195792D01*
X147290706Y-127140986D01*
X147105134Y-126914866D01*
X146879013Y-126729294D01*
X146621033Y-126591401D01*
X146341110Y-126506487D01*
X146050000Y-126477815D01*
X145758889Y-126506487D01*
X145478966Y-126591401D01*
X145220986Y-126729294D01*
X144994866Y-126914866D01*
X144809294Y-127140987D01*
X144778105Y-127199338D01*
X144674176Y-127039381D01*
X144470252Y-126830143D01*
X144229426Y-126664709D01*
X143960953Y-126549437D01*
X143866890Y-126528524D01*
X143637000Y-126649845D01*
X143383000Y-126649845D01*
X143153110Y-126528524D01*
X143059047Y-126549437D01*
X142790574Y-126664709D01*
X142549748Y-126830143D01*
X142345824Y-127039381D01*
X142241895Y-127199337D01*
X142210706Y-127140986D01*
X142025134Y-126914866D01*
X141799013Y-126729294D01*
X141541033Y-126591401D01*
X141261110Y-126506487D01*
X140970000Y-126477815D01*
X140678889Y-126506487D01*
X140398966Y-126591401D01*
X140140986Y-126729294D01*
X139914866Y-126914866D01*
X139729294Y-127140987D01*
X139700000Y-127195792D01*
X139670706Y-127140986D01*
X139485134Y-126914866D01*
X139259013Y-126729294D01*
X139001033Y-126591401D01*
X138721110Y-126506487D01*
X138430000Y-126477815D01*
X138138889Y-126506487D01*
X137858966Y-126591401D01*
X137600986Y-126729294D01*
X137374866Y-126914866D01*
X137189294Y-127140987D01*
X137160000Y-127195792D01*
X137130706Y-127140986D01*
X136945134Y-126914866D01*
X136719013Y-126729294D01*
X136461033Y-126591401D01*
X136181110Y-126506487D01*
X135890000Y-126477815D01*
X135598889Y-126506487D01*
X135318966Y-126591401D01*
X135060986Y-126729294D01*
X134834866Y-126914866D01*
X134810393Y-126944687D01*
X134789502Y-126875820D01*
X134730537Y-126765506D01*
X134651185Y-126668815D01*
X134554494Y-126589463D01*
X134444180Y-126530498D01*
X134324482Y-126494188D01*
X134200000Y-126481928D01*
X133635750Y-126485000D01*
X133477000Y-126643750D01*
X133223000Y-126643750D01*
X133064250Y-126485000D01*
X132500000Y-126481928D01*
X132375518Y-126494188D01*
X132255820Y-126530498D01*
X132145506Y-126589463D01*
X132048815Y-126668815D01*
X131969463Y-126765506D01*
X131910498Y-126875820D01*
X131874188Y-126995518D01*
X131861928Y-127120000D01*
X130342100Y-127120000D01*
X130350000Y-127039791D01*
X130350000Y-127039789D01*
X130353919Y-127000001D01*
X130350000Y-126960213D01*
X130350000Y-122047000D01*
X131953000Y-122047000D01*
X131953000Y-122547000D01*
X132004619Y-122817101D01*
X132107941Y-123071942D01*
X132258994Y-123301729D01*
X132451974Y-123497632D01*
X132679465Y-123652122D01*
X132932724Y-123759262D01*
X133006930Y-123774220D01*
X133223000Y-123651720D01*
X133223000Y-122047000D01*
X131953000Y-122047000D01*
X130350000Y-122047000D01*
X130350000Y-120985512D01*
X131145513Y-120190000D01*
X132676340Y-120190000D01*
X132451974Y-120342368D01*
X132258994Y-120538271D01*
X132107941Y-120768058D01*
X132004619Y-121022899D01*
X131953000Y-121293000D01*
X131953000Y-121793000D01*
X133223000Y-121793000D01*
X133223000Y-121773000D01*
X133477000Y-121773000D01*
X133477000Y-121793000D01*
X133497000Y-121793000D01*
X133497000Y-122047000D01*
X133477000Y-122047000D01*
X133477000Y-123651720D01*
X133693070Y-123774220D01*
X133767276Y-123759262D01*
X134020535Y-123652122D01*
X134248026Y-123497632D01*
X134441006Y-123301729D01*
X134592059Y-123071942D01*
X134618962Y-123005587D01*
X134722817Y-123199887D01*
X134897393Y-123412608D01*
X135110114Y-123587183D01*
X135352806Y-123716904D01*
X135616141Y-123796786D01*
X135890000Y-123823759D01*
X136163860Y-123796786D01*
X136427195Y-123716904D01*
X136669887Y-123587183D01*
X136882608Y-123412608D01*
X137057183Y-123199887D01*
X137160000Y-123007529D01*
X137262817Y-123199887D01*
X137437393Y-123412608D01*
X137650114Y-123587183D01*
X137892806Y-123716904D01*
X138156141Y-123796786D01*
X138430000Y-123823759D01*
X138703860Y-123796786D01*
X138967195Y-123716904D01*
X139209887Y-123587183D01*
X139422608Y-123412608D01*
X139597183Y-123199887D01*
X139700000Y-123007529D01*
X139802817Y-123199887D01*
X139977393Y-123412608D01*
X140190114Y-123587183D01*
X140432806Y-123716904D01*
X140696141Y-123796786D01*
X140970000Y-123823759D01*
X141243860Y-123796786D01*
X141507195Y-123716904D01*
X141749887Y-123587183D01*
X141962608Y-123412608D01*
X142137183Y-123199887D01*
X142241038Y-123005587D01*
X142267941Y-123071942D01*
X142418994Y-123301729D01*
X142611974Y-123497632D01*
X142839465Y-123652122D01*
X143092724Y-123759262D01*
X143166930Y-123774220D01*
X143383000Y-123651720D01*
X143383000Y-122047000D01*
X143363000Y-122047000D01*
X143363000Y-121793000D01*
X143383000Y-121793000D01*
X143383000Y-121773000D01*
X143637000Y-121773000D01*
X143637000Y-121793000D01*
X143657000Y-121793000D01*
X143657000Y-122047000D01*
X143637000Y-122047000D01*
X143637000Y-123651720D01*
X143853070Y-123774220D01*
X143927276Y-123759262D01*
X144180535Y-123652122D01*
X144408026Y-123497632D01*
X144601006Y-123301729D01*
X144752059Y-123071942D01*
X144778962Y-123005587D01*
X144882817Y-123199887D01*
X145057393Y-123412608D01*
X145270114Y-123587183D01*
X145512806Y-123716904D01*
X145776141Y-123796786D01*
X146050000Y-123823759D01*
X146323860Y-123796786D01*
X146587195Y-123716904D01*
X146829887Y-123587183D01*
X147042608Y-123412608D01*
X147217183Y-123199887D01*
X147320000Y-123007529D01*
X147422817Y-123199887D01*
X147597393Y-123412608D01*
X147810114Y-123587183D01*
X148052806Y-123716904D01*
X148316141Y-123796786D01*
X148590000Y-123823759D01*
X148863860Y-123796786D01*
X149127195Y-123716904D01*
X149369887Y-123587183D01*
X149582608Y-123412608D01*
X149757183Y-123199887D01*
X149860000Y-123007529D01*
X149962817Y-123199887D01*
X150137393Y-123412608D01*
X150350114Y-123587183D01*
X150592806Y-123716904D01*
X150856141Y-123796786D01*
X151130000Y-123823759D01*
X151403860Y-123796786D01*
X151667195Y-123716904D01*
X151909887Y-123587183D01*
X152122608Y-123412608D01*
X152297183Y-123199887D01*
X152400000Y-123007529D01*
X152502817Y-123199887D01*
X152677393Y-123412608D01*
X152890114Y-123587183D01*
X153132806Y-123716904D01*
X153396141Y-123796786D01*
X153670000Y-123823759D01*
X153943860Y-123796786D01*
X154207195Y-123716904D01*
X154449887Y-123587183D01*
X154662608Y-123412608D01*
X154837183Y-123199887D01*
X154940000Y-123007529D01*
X155042817Y-123199887D01*
X155217393Y-123412608D01*
X155430114Y-123587183D01*
X155672806Y-123716904D01*
X155936141Y-123796786D01*
X156210000Y-123823759D01*
X156483860Y-123796786D01*
X156747195Y-123716904D01*
X156989887Y-123587183D01*
X157202608Y-123412608D01*
X157377183Y-123199887D01*
X157480000Y-123007529D01*
X157582817Y-123199887D01*
X157757393Y-123412608D01*
X157970114Y-123587183D01*
X158212806Y-123716904D01*
X158476141Y-123796786D01*
X158750000Y-123823759D01*
X159023860Y-123796786D01*
X159287195Y-123716904D01*
X159529887Y-123587183D01*
X159742608Y-123412608D01*
X159917183Y-123199887D01*
X160046904Y-122957195D01*
X160126786Y-122693860D01*
X160147000Y-122488625D01*
X160147000Y-121351375D01*
X160126786Y-121146140D01*
X160046904Y-120882805D01*
X159917183Y-120640113D01*
X159742607Y-120427392D01*
X159529886Y-120252817D01*
X159287194Y-120123096D01*
X159023859Y-120043214D01*
X158750000Y-120016241D01*
X158476140Y-120043214D01*
X158212805Y-120123096D01*
X157970113Y-120252817D01*
X157757392Y-120427393D01*
X157582817Y-120640114D01*
X157480000Y-120832471D01*
X157377183Y-120640113D01*
X157202607Y-120427392D01*
X156989886Y-120252817D01*
X156747194Y-120123096D01*
X156483859Y-120043214D01*
X156210000Y-120016241D01*
X155936140Y-120043214D01*
X155672805Y-120123096D01*
X155430113Y-120252817D01*
X155217392Y-120427393D01*
X155042817Y-120640114D01*
X154940000Y-120832471D01*
X154837183Y-120640113D01*
X154662607Y-120427392D01*
X154449886Y-120252817D01*
X154207194Y-120123096D01*
X153943859Y-120043214D01*
X153670000Y-120016241D01*
X153396140Y-120043214D01*
X153132805Y-120123096D01*
X152890113Y-120252817D01*
X152677392Y-120427393D01*
X152502817Y-120640114D01*
X152400000Y-120832471D01*
X152297183Y-120640113D01*
X152122607Y-120427392D01*
X151909886Y-120252817D01*
X151667194Y-120123096D01*
X151403859Y-120043214D01*
X151130000Y-120016241D01*
X150856140Y-120043214D01*
X150592805Y-120123096D01*
X150350113Y-120252817D01*
X150137392Y-120427393D01*
X149962817Y-120640114D01*
X149860000Y-120832471D01*
X149757183Y-120640113D01*
X149582607Y-120427392D01*
X149369886Y-120252817D01*
X149266573Y-120197595D01*
X149190893Y-120105380D01*
X149165528Y-120074472D01*
X149134618Y-120049105D01*
X147920899Y-118835387D01*
X147895528Y-118804472D01*
X147772189Y-118703251D01*
X147631473Y-118628037D01*
X147478788Y-118581720D01*
X147359791Y-118570000D01*
X147359788Y-118570000D01*
X147320000Y-118566081D01*
X147280212Y-118570000D01*
X130849787Y-118570000D01*
X130809999Y-118566081D01*
X130770211Y-118570000D01*
X130770209Y-118570000D01*
X130651212Y-118581720D01*
X130498527Y-118628037D01*
X130448794Y-118654620D01*
X130357810Y-118703251D01*
X130302210Y-118748881D01*
X130234472Y-118804472D01*
X130209107Y-118835380D01*
X128995387Y-120049101D01*
X128964472Y-120074472D01*
X128894703Y-120159487D01*
X128863251Y-120197811D01*
X128857263Y-120209014D01*
X128788037Y-120338528D01*
X128741720Y-120491213D01*
X128730000Y-120610209D01*
X128726081Y-120650000D01*
X128730000Y-120689788D01*
X128730001Y-126664486D01*
X127934488Y-127460000D01*
X113157114Y-127460000D01*
X113138599Y-127398966D01*
X113000706Y-127140986D01*
X112815134Y-126914866D01*
X112589013Y-126729294D01*
X112570000Y-126719131D01*
X112570000Y-124499787D01*
X112573919Y-124459999D01*
X112570000Y-124420209D01*
X112558280Y-124301212D01*
X112511963Y-124148527D01*
X112476951Y-124083024D01*
X112436749Y-124007810D01*
X112382708Y-123941962D01*
X112335528Y-123884472D01*
X112304618Y-123859105D01*
X111090899Y-122645387D01*
X111065528Y-122614472D01*
X110942189Y-122513251D01*
X110801473Y-122438037D01*
X110648788Y-122391720D01*
X110529791Y-122380000D01*
X110529788Y-122380000D01*
X110490000Y-122376081D01*
X110450212Y-122380000D01*
X105745513Y-122380000D01*
X105193646Y-121828133D01*
X105338932Y-121651101D01*
X105472182Y-121401807D01*
X105554236Y-121131308D01*
X105575000Y-120920491D01*
X105575000Y-120379508D01*
X105554236Y-120168691D01*
X105472182Y-119898192D01*
X105338932Y-119648899D01*
X105159607Y-119430392D01*
X104941231Y-119251176D01*
X104938280Y-119221212D01*
X104891963Y-119068527D01*
X104816750Y-118927812D01*
X104816749Y-118927810D01*
X104740893Y-118835380D01*
X104715528Y-118804472D01*
X104684619Y-118779106D01*
X103470899Y-117565387D01*
X103445528Y-117534472D01*
X103322189Y-117433251D01*
X103181473Y-117358037D01*
X103028788Y-117311720D01*
X102909791Y-117300000D01*
X102909788Y-117300000D01*
X102870000Y-117296081D01*
X102830212Y-117300000D01*
X96559787Y-117300000D01*
X96519999Y-117296081D01*
X96480211Y-117300000D01*
X96480209Y-117300000D01*
X96361212Y-117311720D01*
X96208527Y-117358037D01*
X96143024Y-117393049D01*
X96067810Y-117433251D01*
X96012210Y-117478881D01*
X95944472Y-117534472D01*
X95919105Y-117565382D01*
X94705383Y-118779105D01*
X94674473Y-118804472D01*
X94649108Y-118835380D01*
X94573251Y-118927811D01*
X94515550Y-119035764D01*
X94498038Y-119068527D01*
X94478010Y-119134549D01*
X94473513Y-119088889D01*
X94388599Y-118808966D01*
X94250706Y-118550986D01*
X94065134Y-118324866D01*
X93839014Y-118139294D01*
X93780663Y-118108105D01*
X93940619Y-118004176D01*
X94149857Y-117800252D01*
X94315291Y-117559426D01*
X94430563Y-117290953D01*
X94451476Y-117196890D01*
X94330155Y-116967000D01*
X92837000Y-116967000D01*
X92837000Y-116987000D01*
X92583000Y-116987000D01*
X92583000Y-116967000D01*
X91089845Y-116967000D01*
X90968524Y-117196890D01*
X90989437Y-117290953D01*
X91104709Y-117559426D01*
X91270143Y-117800252D01*
X91479381Y-118004176D01*
X91639337Y-118108105D01*
X91580986Y-118139294D01*
X91354866Y-118324866D01*
X91169294Y-118550986D01*
X91031401Y-118808966D01*
X90946487Y-119088889D01*
X90917815Y-119380000D01*
X89560000Y-119380000D01*
X89560000Y-113450000D01*
X90921928Y-113450000D01*
X90921928Y-115150000D01*
X90934188Y-115274482D01*
X90970498Y-115394180D01*
X91029463Y-115504494D01*
X91108815Y-115601185D01*
X91205506Y-115680537D01*
X91315820Y-115739502D01*
X91390728Y-115762225D01*
X91270143Y-115879748D01*
X91104709Y-116120574D01*
X90989437Y-116389047D01*
X90968524Y-116483110D01*
X91089845Y-116713000D01*
X92583000Y-116713000D01*
X92583000Y-116693000D01*
X92837000Y-116693000D01*
X92837000Y-116713000D01*
X94330155Y-116713000D01*
X94451476Y-116483110D01*
X94430563Y-116389047D01*
X94315291Y-116120574D01*
X94149857Y-115879748D01*
X94029272Y-115762225D01*
X94104180Y-115739502D01*
X94214494Y-115680537D01*
X94311185Y-115601185D01*
X94390537Y-115504494D01*
X94449502Y-115394180D01*
X94485812Y-115274482D01*
X94498072Y-115150000D01*
X94498072Y-113450000D01*
X94485812Y-113325518D01*
X94449502Y-113205820D01*
X94390537Y-113095506D01*
X94311185Y-112998815D01*
X94214494Y-112919463D01*
X94104180Y-112860498D01*
X93984482Y-112824188D01*
X93860000Y-112811928D01*
X91560000Y-112811928D01*
X91435518Y-112824188D01*
X91315820Y-112860498D01*
X91205506Y-112919463D01*
X91108815Y-112998815D01*
X91029463Y-113095506D01*
X90970498Y-113205820D01*
X90934188Y-113325518D01*
X90921928Y-113450000D01*
X89560000Y-113450000D01*
X89560000Y-112759509D01*
X97625000Y-112759509D01*
X97625000Y-113300492D01*
X97645764Y-113511309D01*
X97727818Y-113781808D01*
X97861068Y-114031101D01*
X98040393Y-114249608D01*
X98258900Y-114428932D01*
X98508193Y-114562182D01*
X98778692Y-114644236D01*
X99060000Y-114671943D01*
X99341309Y-114644236D01*
X99611808Y-114562182D01*
X99861101Y-114428932D01*
X100079608Y-114249608D01*
X100258932Y-114031101D01*
X100392182Y-113781807D01*
X100474236Y-113511308D01*
X100495000Y-113300491D01*
X100495000Y-112759509D01*
X102705000Y-112759509D01*
X102705000Y-113300492D01*
X102725764Y-113511309D01*
X102807818Y-113781808D01*
X102941068Y-114031101D01*
X103120393Y-114249608D01*
X103338900Y-114428932D01*
X103588193Y-114562182D01*
X103858692Y-114644236D01*
X104140000Y-114671943D01*
X104421309Y-114644236D01*
X104691808Y-114562182D01*
X104941101Y-114428932D01*
X105159608Y-114249608D01*
X105338932Y-114031101D01*
X105441077Y-113840000D01*
X106344488Y-113840000D01*
X107140000Y-114635513D01*
X107140001Y-119224827D01*
X106907748Y-119380013D01*
X106680013Y-119607748D01*
X106501082Y-119875537D01*
X106377832Y-120173088D01*
X106315000Y-120488967D01*
X106315000Y-120811033D01*
X106377832Y-121126912D01*
X106501082Y-121424463D01*
X106680013Y-121692252D01*
X106907748Y-121919987D01*
X107175537Y-122098918D01*
X107473088Y-122222168D01*
X107788967Y-122285000D01*
X108111033Y-122285000D01*
X108426912Y-122222168D01*
X108724463Y-122098918D01*
X108992252Y-121919987D01*
X109219987Y-121692252D01*
X109398918Y-121424463D01*
X109522168Y-121126912D01*
X109585000Y-120811033D01*
X109585000Y-120488967D01*
X109563228Y-120379508D01*
X110325000Y-120379508D01*
X110325000Y-120920491D01*
X110345764Y-121131308D01*
X110427818Y-121401807D01*
X110561068Y-121651100D01*
X110740392Y-121869607D01*
X110958899Y-122048932D01*
X111208192Y-122182182D01*
X111478691Y-122264236D01*
X111760000Y-122291943D01*
X112041308Y-122264236D01*
X112311807Y-122182182D01*
X112561100Y-122048932D01*
X112779607Y-121869608D01*
X112958932Y-121651101D01*
X113092182Y-121401808D01*
X113174236Y-121131309D01*
X113195000Y-120920492D01*
X113195000Y-120379509D01*
X113195000Y-120379508D01*
X115405000Y-120379508D01*
X115405000Y-120920491D01*
X115425764Y-121131308D01*
X115507818Y-121401807D01*
X115641068Y-121651100D01*
X115820392Y-121869607D01*
X116038899Y-122048932D01*
X116288192Y-122182182D01*
X116558691Y-122264236D01*
X116840000Y-122291943D01*
X117121308Y-122264236D01*
X117391807Y-122182182D01*
X117641100Y-122048932D01*
X117859607Y-121869608D01*
X118038932Y-121651101D01*
X118172182Y-121401808D01*
X118254236Y-121131309D01*
X118275000Y-120920492D01*
X118275000Y-120379509D01*
X118254236Y-120168692D01*
X118172182Y-119898193D01*
X118038932Y-119648899D01*
X117859608Y-119430392D01*
X117641101Y-119251068D01*
X117391808Y-119117818D01*
X117121309Y-119035764D01*
X116840000Y-119008057D01*
X116558692Y-119035764D01*
X116288193Y-119117818D01*
X116038900Y-119251068D01*
X115820393Y-119430392D01*
X115641068Y-119648899D01*
X115507818Y-119898192D01*
X115425764Y-120168691D01*
X115405000Y-120379508D01*
X113195000Y-120379508D01*
X113174236Y-120168692D01*
X113092182Y-119898193D01*
X112958932Y-119648899D01*
X112779608Y-119430392D01*
X112561101Y-119251068D01*
X112311808Y-119117818D01*
X112041309Y-119035764D01*
X111760000Y-119008057D01*
X111478692Y-119035764D01*
X111208193Y-119117818D01*
X110958900Y-119251068D01*
X110740393Y-119430392D01*
X110561068Y-119648899D01*
X110427818Y-119898192D01*
X110345764Y-120168691D01*
X110325000Y-120379508D01*
X109563228Y-120379508D01*
X109522168Y-120173088D01*
X109398918Y-119875537D01*
X109219987Y-119607748D01*
X108992252Y-119380013D01*
X108760000Y-119224827D01*
X108760000Y-114339787D01*
X108763919Y-114299999D01*
X108758956Y-114249607D01*
X108748280Y-114141212D01*
X108701963Y-113988527D01*
X108626750Y-113847812D01*
X108626749Y-113847810D01*
X108572581Y-113781807D01*
X108525528Y-113724472D01*
X108494619Y-113699106D01*
X107555021Y-112759508D01*
X110325000Y-112759508D01*
X110325000Y-113300491D01*
X110345764Y-113511308D01*
X110427818Y-113781807D01*
X110561068Y-114031100D01*
X110740392Y-114249607D01*
X110958899Y-114428932D01*
X111208192Y-114562182D01*
X111478691Y-114644236D01*
X111760000Y-114671943D01*
X112041308Y-114644236D01*
X112311807Y-114562182D01*
X112561100Y-114428932D01*
X112779607Y-114249608D01*
X112958932Y-114031101D01*
X113092182Y-113781808D01*
X113174236Y-113511309D01*
X113195000Y-113300492D01*
X113195000Y-112759509D01*
X113174236Y-112548692D01*
X113092182Y-112278193D01*
X112958932Y-112028899D01*
X112779608Y-111810392D01*
X112561101Y-111631068D01*
X112311808Y-111497818D01*
X112041309Y-111415764D01*
X111760000Y-111388057D01*
X111478692Y-111415764D01*
X111208193Y-111497818D01*
X110958900Y-111631068D01*
X110740393Y-111810392D01*
X110561068Y-112028899D01*
X110427818Y-112278192D01*
X110345764Y-112548691D01*
X110325000Y-112759508D01*
X107555021Y-112759508D01*
X107280899Y-112485387D01*
X107255528Y-112454472D01*
X107132189Y-112353251D01*
X106991473Y-112278037D01*
X106838788Y-112231720D01*
X106719791Y-112220000D01*
X106719788Y-112220000D01*
X106680000Y-112216081D01*
X106640212Y-112220000D01*
X105441078Y-112220000D01*
X105338932Y-112028899D01*
X105159607Y-111810392D01*
X104941100Y-111631068D01*
X104691807Y-111497818D01*
X104421308Y-111415764D01*
X104140000Y-111388057D01*
X103858691Y-111415764D01*
X103588192Y-111497818D01*
X103338899Y-111631068D01*
X103120392Y-111810393D01*
X102941068Y-112028900D01*
X102807818Y-112278193D01*
X102725764Y-112548692D01*
X102705000Y-112759509D01*
X100495000Y-112759509D01*
X100495000Y-112759508D01*
X100474236Y-112548691D01*
X100392182Y-112278192D01*
X100258932Y-112028899D01*
X100079607Y-111810392D01*
X99861100Y-111631068D01*
X99611807Y-111497818D01*
X99341308Y-111415764D01*
X99060000Y-111388057D01*
X98778691Y-111415764D01*
X98508192Y-111497818D01*
X98258899Y-111631068D01*
X98040392Y-111810393D01*
X97861068Y-112028900D01*
X97727818Y-112278193D01*
X97645764Y-112548692D01*
X97625000Y-112759509D01*
X89560000Y-112759509D01*
X89560000Y-108800000D01*
X90921928Y-108800000D01*
X90934188Y-108924482D01*
X90970498Y-109044180D01*
X91029463Y-109154494D01*
X91108815Y-109251185D01*
X91205506Y-109330537D01*
X91315820Y-109389502D01*
X91435518Y-109425812D01*
X91560000Y-109438072D01*
X92424250Y-109435000D01*
X92583000Y-109276250D01*
X92583000Y-108077000D01*
X92837000Y-108077000D01*
X92837000Y-109276250D01*
X92995750Y-109435000D01*
X93860000Y-109438072D01*
X93984482Y-109425812D01*
X94104180Y-109389502D01*
X94214494Y-109330537D01*
X94311185Y-109251185D01*
X94390537Y-109154494D01*
X94449502Y-109044180D01*
X94485812Y-108924482D01*
X94498072Y-108800000D01*
X94495000Y-108235750D01*
X94336250Y-108077000D01*
X92837000Y-108077000D01*
X92583000Y-108077000D01*
X91083750Y-108077000D01*
X90925000Y-108235750D01*
X90921928Y-108800000D01*
X89560000Y-108800000D01*
X89560000Y-105410000D01*
X90917815Y-105410000D01*
X90946487Y-105701111D01*
X91031401Y-105981034D01*
X91169294Y-106239014D01*
X91354866Y-106465134D01*
X91384687Y-106489607D01*
X91315820Y-106510498D01*
X91205506Y-106569463D01*
X91108815Y-106648815D01*
X91029463Y-106745506D01*
X90970498Y-106855820D01*
X90934188Y-106975518D01*
X90921928Y-107100000D01*
X90925000Y-107664250D01*
X91083750Y-107823000D01*
X92583000Y-107823000D01*
X92583000Y-107803000D01*
X92837000Y-107803000D01*
X92837000Y-107823000D01*
X94336250Y-107823000D01*
X94495000Y-107664250D01*
X94498072Y-107100000D01*
X94485812Y-106975518D01*
X94449502Y-106855820D01*
X94390537Y-106745506D01*
X94311185Y-106648815D01*
X94214494Y-106569463D01*
X94104180Y-106510498D01*
X94035313Y-106489607D01*
X94065134Y-106465134D01*
X94250706Y-106239014D01*
X94260869Y-106220000D01*
X106640212Y-106220000D01*
X106680000Y-106223919D01*
X106719788Y-106220000D01*
X106719791Y-106220000D01*
X106838788Y-106208280D01*
X106991473Y-106161963D01*
X107132189Y-106086749D01*
X107255528Y-105985528D01*
X107280899Y-105954613D01*
X108494618Y-104740895D01*
X108525528Y-104715528D01*
X108581119Y-104647790D01*
X108626749Y-104592190D01*
X108701962Y-104451474D01*
X108701963Y-104451473D01*
X108748280Y-104298788D01*
X108760000Y-104179791D01*
X108760000Y-104179789D01*
X108763919Y-104140001D01*
X108760000Y-104100213D01*
X108760000Y-96814360D01*
X108894078Y-97006317D01*
X109126046Y-97228895D01*
X109396980Y-97401942D01*
X109696468Y-97518807D01*
X110013000Y-97575000D01*
X110363000Y-97575000D01*
X110363000Y-96067000D01*
X110617000Y-96067000D01*
X110617000Y-97575000D01*
X110967000Y-97575000D01*
X111283532Y-97518807D01*
X111583020Y-97401942D01*
X111853954Y-97228895D01*
X112085922Y-97006317D01*
X112270010Y-96742761D01*
X112399144Y-96448355D01*
X112430124Y-96320434D01*
X115049876Y-96320434D01*
X115080856Y-96448355D01*
X115209990Y-96742761D01*
X115394078Y-97006317D01*
X115626046Y-97228895D01*
X115896980Y-97401942D01*
X116196468Y-97518807D01*
X116513000Y-97575000D01*
X116863000Y-97575000D01*
X116863000Y-96067000D01*
X115169223Y-96067000D01*
X115049876Y-96320434D01*
X112430124Y-96320434D01*
X112310777Y-96067000D01*
X110617000Y-96067000D01*
X110363000Y-96067000D01*
X110343000Y-96067000D01*
X110343000Y-95813000D01*
X110363000Y-95813000D01*
X110363000Y-94305000D01*
X110617000Y-94305000D01*
X110617000Y-95813000D01*
X112310777Y-95813000D01*
X112430124Y-95559566D01*
X115049876Y-95559566D01*
X115169223Y-95813000D01*
X116863000Y-95813000D01*
X116863000Y-94305000D01*
X116513000Y-94305000D01*
X116196468Y-94361193D01*
X115896980Y-94478058D01*
X115626046Y-94651105D01*
X115394078Y-94873683D01*
X115209990Y-95137239D01*
X115080856Y-95431645D01*
X115049876Y-95559566D01*
X112430124Y-95559566D01*
X112399144Y-95431645D01*
X112270010Y-95137239D01*
X112085922Y-94873683D01*
X111853954Y-94651105D01*
X111583020Y-94478058D01*
X111283532Y-94361193D01*
X110967000Y-94305000D01*
X110617000Y-94305000D01*
X110363000Y-94305000D01*
X110013000Y-94305000D01*
X109696468Y-94361193D01*
X109396980Y-94478058D01*
X109126046Y-94651105D01*
X108894078Y-94873683D01*
X108760000Y-95065640D01*
X108760000Y-92615512D01*
X108886113Y-92489400D01*
X108978286Y-92601714D01*
X109227248Y-92806031D01*
X109511285Y-92957852D01*
X109819484Y-93051343D01*
X110059678Y-93075000D01*
X110920322Y-93075000D01*
X111160516Y-93051343D01*
X111468715Y-92957852D01*
X111752752Y-92806031D01*
X112001714Y-92601714D01*
X112206031Y-92352752D01*
X112260953Y-92250000D01*
X115219047Y-92250000D01*
X115273969Y-92352752D01*
X115478286Y-92601714D01*
X115727248Y-92806031D01*
X116011285Y-92957852D01*
X116319484Y-93051343D01*
X116559678Y-93075000D01*
X117420322Y-93075000D01*
X117660516Y-93051343D01*
X117968715Y-92957852D01*
X118252752Y-92806031D01*
X118501714Y-92601714D01*
X118570000Y-92518507D01*
X118570000Y-94858406D01*
X118353954Y-94651105D01*
X118083020Y-94478058D01*
X117783532Y-94361193D01*
X117467000Y-94305000D01*
X117117000Y-94305000D01*
X117117000Y-95813000D01*
X117137000Y-95813000D01*
X117137000Y-96067000D01*
X117117000Y-96067000D01*
X117117000Y-97575000D01*
X117467000Y-97575000D01*
X117783532Y-97518807D01*
X118083020Y-97401942D01*
X118353954Y-97228895D01*
X118570000Y-97021594D01*
X118570001Y-111424486D01*
X118005872Y-111988615D01*
X117859608Y-111810392D01*
X117641101Y-111631068D01*
X117391808Y-111497818D01*
X117121309Y-111415764D01*
X116840000Y-111388057D01*
X116558692Y-111415764D01*
X116288193Y-111497818D01*
X116038900Y-111631068D01*
X115820393Y-111810392D01*
X115641068Y-112028899D01*
X115507818Y-112278192D01*
X115425764Y-112548691D01*
X115405000Y-112759508D01*
X115405000Y-113300491D01*
X115425764Y-113511308D01*
X115507818Y-113781807D01*
X115641068Y-114031100D01*
X115820392Y-114249607D01*
X116038899Y-114428932D01*
X116288192Y-114562182D01*
X116558691Y-114644236D01*
X116840000Y-114671943D01*
X117121308Y-114644236D01*
X117391807Y-114562182D01*
X117641100Y-114428932D01*
X117859607Y-114249608D01*
X118038932Y-114031101D01*
X118140594Y-113840906D01*
X118149788Y-113840000D01*
X118149791Y-113840000D01*
X118268788Y-113828280D01*
X118421473Y-113781963D01*
X118562189Y-113706749D01*
X118685528Y-113605528D01*
X118710899Y-113574613D01*
X119924618Y-112360895D01*
X119955528Y-112335528D01*
X120040720Y-112231721D01*
X120056749Y-112212190D01*
X120131962Y-112071474D01*
X120131963Y-112071473D01*
X120178280Y-111918788D01*
X120190000Y-111799791D01*
X120190000Y-111799789D01*
X120193919Y-111760001D01*
X120190000Y-111720213D01*
X120190000Y-94100000D01*
X121701928Y-94100000D01*
X121701928Y-96400000D01*
X121714188Y-96524482D01*
X121750498Y-96644180D01*
X121809463Y-96754494D01*
X121888815Y-96851185D01*
X121985506Y-96930537D01*
X122095820Y-96989502D01*
X122215518Y-97025812D01*
X122340000Y-97038072D01*
X122380000Y-97038072D01*
X122380001Y-111720202D01*
X122376081Y-111760000D01*
X122381045Y-111810393D01*
X122391721Y-111918788D01*
X122427700Y-112037392D01*
X122438038Y-112071473D01*
X122513251Y-112212189D01*
X122567419Y-112278192D01*
X122614473Y-112335528D01*
X122645383Y-112360895D01*
X123859105Y-113574618D01*
X123884472Y-113605528D01*
X123952210Y-113661119D01*
X124007810Y-113706749D01*
X124083024Y-113746951D01*
X124148527Y-113781963D01*
X124301212Y-113828280D01*
X124420209Y-113840000D01*
X124420211Y-113840000D01*
X124459999Y-113843919D01*
X124499787Y-113840000D01*
X139962530Y-113840000D01*
X140112392Y-114022608D01*
X140325113Y-114197183D01*
X140567805Y-114326904D01*
X140831140Y-114406786D01*
X141036375Y-114427000D01*
X142173625Y-114427000D01*
X142378860Y-114406786D01*
X142642195Y-114326904D01*
X142884887Y-114197183D01*
X143097608Y-114022608D01*
X143272183Y-113809887D01*
X143401904Y-113567195D01*
X143481786Y-113303860D01*
X143508759Y-113030000D01*
X143481786Y-112756140D01*
X143401904Y-112492805D01*
X143272183Y-112250113D01*
X143097608Y-112037392D01*
X142884887Y-111862817D01*
X142692529Y-111760000D01*
X142884887Y-111657183D01*
X143097608Y-111482608D01*
X143272183Y-111269887D01*
X143401904Y-111027195D01*
X143481786Y-110763860D01*
X143508759Y-110490000D01*
X143481786Y-110216140D01*
X143401904Y-109952805D01*
X143272183Y-109710113D01*
X143097608Y-109497392D01*
X142884887Y-109322817D01*
X142642195Y-109193096D01*
X142378860Y-109113214D01*
X142173625Y-109093000D01*
X141036375Y-109093000D01*
X140831140Y-109113214D01*
X140567805Y-109193096D01*
X140325113Y-109322817D01*
X140112392Y-109497392D01*
X139962530Y-109680000D01*
X127335513Y-109680000D01*
X126540000Y-108884488D01*
X126540000Y-101727000D01*
X131953000Y-101727000D01*
X131953000Y-102227000D01*
X132004619Y-102497101D01*
X132107941Y-102751942D01*
X132258994Y-102981729D01*
X132451974Y-103177632D01*
X132679465Y-103332122D01*
X132932724Y-103439262D01*
X133006930Y-103454220D01*
X133223000Y-103331720D01*
X133223000Y-101727000D01*
X131953000Y-101727000D01*
X126540000Y-101727000D01*
X126540000Y-100973000D01*
X131953000Y-100973000D01*
X131953000Y-101473000D01*
X133223000Y-101473000D01*
X133223000Y-99868280D01*
X133477000Y-99868280D01*
X133477000Y-101473000D01*
X133497000Y-101473000D01*
X133497000Y-101727000D01*
X133477000Y-101727000D01*
X133477000Y-103331720D01*
X133693070Y-103454220D01*
X133767276Y-103439262D01*
X134020535Y-103332122D01*
X134248026Y-103177632D01*
X134441006Y-102981729D01*
X134592059Y-102751942D01*
X134618962Y-102685587D01*
X134722817Y-102879887D01*
X134897393Y-103092608D01*
X135110114Y-103267183D01*
X135352806Y-103396904D01*
X135616141Y-103476786D01*
X135890000Y-103503759D01*
X136163860Y-103476786D01*
X136427195Y-103396904D01*
X136669887Y-103267183D01*
X136882608Y-103092608D01*
X137057183Y-102879887D01*
X137160000Y-102687529D01*
X137262817Y-102879887D01*
X137437393Y-103092608D01*
X137650114Y-103267183D01*
X137892806Y-103396904D01*
X138156141Y-103476786D01*
X138430000Y-103503759D01*
X138703860Y-103476786D01*
X138967195Y-103396904D01*
X139209887Y-103267183D01*
X139422608Y-103092608D01*
X139597183Y-102879887D01*
X139700000Y-102687529D01*
X139802817Y-102879887D01*
X139977393Y-103092608D01*
X140190114Y-103267183D01*
X140432806Y-103396904D01*
X140696141Y-103476786D01*
X140970000Y-103503759D01*
X141243860Y-103476786D01*
X141507195Y-103396904D01*
X141749887Y-103267183D01*
X141962608Y-103092608D01*
X142137183Y-102879887D01*
X142240000Y-102687529D01*
X142342817Y-102879887D01*
X142517393Y-103092608D01*
X142730114Y-103267183D01*
X142972806Y-103396904D01*
X143236141Y-103476786D01*
X143510000Y-103503759D01*
X143783860Y-103476786D01*
X144047195Y-103396904D01*
X144289887Y-103267183D01*
X144502608Y-103092608D01*
X144677183Y-102879887D01*
X144780000Y-102687529D01*
X144882817Y-102879887D01*
X145057393Y-103092608D01*
X145270114Y-103267183D01*
X145512806Y-103396904D01*
X145776141Y-103476786D01*
X146050000Y-103503759D01*
X146323860Y-103476786D01*
X146587195Y-103396904D01*
X146829887Y-103267183D01*
X147042608Y-103092608D01*
X147217183Y-102879887D01*
X147320000Y-102687529D01*
X147422817Y-102879887D01*
X147597393Y-103092608D01*
X147810114Y-103267183D01*
X148052806Y-103396904D01*
X148316141Y-103476786D01*
X148590000Y-103503759D01*
X148863860Y-103476786D01*
X149127195Y-103396904D01*
X149369887Y-103267183D01*
X149582608Y-103092608D01*
X149757183Y-102879887D01*
X149860000Y-102687529D01*
X149962817Y-102879887D01*
X150137393Y-103092608D01*
X150350114Y-103267183D01*
X150592806Y-103396904D01*
X150856141Y-103476786D01*
X151130000Y-103503759D01*
X151403860Y-103476786D01*
X151667195Y-103396904D01*
X151909887Y-103267183D01*
X152122608Y-103092608D01*
X152297183Y-102879887D01*
X152400000Y-102687529D01*
X152502817Y-102879887D01*
X152677393Y-103092608D01*
X152890114Y-103267183D01*
X153132806Y-103396904D01*
X153396141Y-103476786D01*
X153670000Y-103503759D01*
X153943860Y-103476786D01*
X154207195Y-103396904D01*
X154449887Y-103267183D01*
X154662608Y-103092608D01*
X154837183Y-102879887D01*
X154940000Y-102687529D01*
X155042817Y-102879887D01*
X155217393Y-103092608D01*
X155430114Y-103267183D01*
X155672806Y-103396904D01*
X155936141Y-103476786D01*
X156210000Y-103503759D01*
X156483860Y-103476786D01*
X156747195Y-103396904D01*
X156989887Y-103267183D01*
X157202608Y-103092608D01*
X157377183Y-102879887D01*
X157480000Y-102687529D01*
X157582817Y-102879887D01*
X157757393Y-103092608D01*
X157970114Y-103267183D01*
X158212806Y-103396904D01*
X158476141Y-103476786D01*
X158750000Y-103503759D01*
X159023860Y-103476786D01*
X159287195Y-103396904D01*
X159529887Y-103267183D01*
X159742608Y-103092608D01*
X159917183Y-102879887D01*
X160046904Y-102637195D01*
X160126786Y-102373860D01*
X160147000Y-102168625D01*
X160147000Y-101031375D01*
X160126786Y-100826140D01*
X160046904Y-100562805D01*
X159917183Y-100320113D01*
X159742607Y-100107392D01*
X159529886Y-99932817D01*
X159287194Y-99803096D01*
X159023859Y-99723214D01*
X158750000Y-99696241D01*
X158476140Y-99723214D01*
X158212805Y-99803096D01*
X157970113Y-99932817D01*
X157757392Y-100107393D01*
X157582817Y-100320114D01*
X157480000Y-100512471D01*
X157377183Y-100320113D01*
X157202607Y-100107392D01*
X156989886Y-99932817D01*
X156747194Y-99803096D01*
X156483859Y-99723214D01*
X156210000Y-99696241D01*
X155936140Y-99723214D01*
X155672805Y-99803096D01*
X155430113Y-99932817D01*
X155217392Y-100107393D01*
X155042817Y-100320114D01*
X154940000Y-100512471D01*
X154837183Y-100320113D01*
X154662607Y-100107392D01*
X154449886Y-99932817D01*
X154207194Y-99803096D01*
X153943859Y-99723214D01*
X153670000Y-99696241D01*
X153396140Y-99723214D01*
X153132805Y-99803096D01*
X152890113Y-99932817D01*
X152677392Y-100107393D01*
X152502817Y-100320114D01*
X152400000Y-100512471D01*
X152297183Y-100320113D01*
X152122607Y-100107392D01*
X151909886Y-99932817D01*
X151667194Y-99803096D01*
X151403859Y-99723214D01*
X151130000Y-99696241D01*
X150856140Y-99723214D01*
X150592805Y-99803096D01*
X150350113Y-99932817D01*
X150137392Y-100107393D01*
X149962817Y-100320114D01*
X149860000Y-100512471D01*
X149757183Y-100320113D01*
X149582607Y-100107392D01*
X149369886Y-99932817D01*
X149127194Y-99803096D01*
X148863859Y-99723214D01*
X148590000Y-99696241D01*
X148316140Y-99723214D01*
X148052805Y-99803096D01*
X147810113Y-99932817D01*
X147597392Y-100107393D01*
X147422817Y-100320114D01*
X147320000Y-100512471D01*
X147217183Y-100320113D01*
X147042607Y-100107392D01*
X146829886Y-99932817D01*
X146587194Y-99803096D01*
X146323859Y-99723214D01*
X146050000Y-99696241D01*
X145776140Y-99723214D01*
X145512805Y-99803096D01*
X145270113Y-99932817D01*
X145057392Y-100107393D01*
X144882817Y-100320114D01*
X144780000Y-100512471D01*
X144677183Y-100320113D01*
X144502607Y-100107392D01*
X144289886Y-99932817D01*
X144047194Y-99803096D01*
X143783859Y-99723214D01*
X143510000Y-99696241D01*
X143236140Y-99723214D01*
X142972805Y-99803096D01*
X142730113Y-99932817D01*
X142517392Y-100107393D01*
X142342817Y-100320114D01*
X142240000Y-100512471D01*
X142137183Y-100320113D01*
X141962607Y-100107392D01*
X141749886Y-99932817D01*
X141507194Y-99803096D01*
X141243859Y-99723214D01*
X140970000Y-99696241D01*
X140696140Y-99723214D01*
X140432805Y-99803096D01*
X140190113Y-99932817D01*
X139977392Y-100107393D01*
X139802817Y-100320114D01*
X139700000Y-100512471D01*
X139597183Y-100320113D01*
X139422607Y-100107392D01*
X139209886Y-99932817D01*
X138967194Y-99803096D01*
X138703859Y-99723214D01*
X138430000Y-99696241D01*
X138156140Y-99723214D01*
X137892805Y-99803096D01*
X137650113Y-99932817D01*
X137437392Y-100107393D01*
X137262817Y-100320114D01*
X137160000Y-100512471D01*
X137057183Y-100320113D01*
X136882607Y-100107392D01*
X136669886Y-99932817D01*
X136427194Y-99803096D01*
X136163859Y-99723214D01*
X135890000Y-99696241D01*
X135616140Y-99723214D01*
X135352805Y-99803096D01*
X135110113Y-99932817D01*
X134897392Y-100107393D01*
X134722817Y-100320114D01*
X134618962Y-100514414D01*
X134592059Y-100448058D01*
X134441006Y-100218271D01*
X134248026Y-100022368D01*
X134020535Y-99867878D01*
X133767276Y-99760738D01*
X133693070Y-99745780D01*
X133477000Y-99868280D01*
X133223000Y-99868280D01*
X133006930Y-99745780D01*
X132932724Y-99760738D01*
X132679465Y-99867878D01*
X132451974Y-100022368D01*
X132258994Y-100218271D01*
X132107941Y-100448058D01*
X132004619Y-100702899D01*
X131953000Y-100973000D01*
X126540000Y-100973000D01*
X126540000Y-96800869D01*
X126559014Y-96790706D01*
X126785134Y-96605134D01*
X126953483Y-96400000D01*
X131861928Y-96400000D01*
X131874188Y-96524482D01*
X131910498Y-96644180D01*
X131969463Y-96754494D01*
X132048815Y-96851185D01*
X132145506Y-96930537D01*
X132255820Y-96989502D01*
X132375518Y-97025812D01*
X132500000Y-97038072D01*
X133064250Y-97035000D01*
X133223000Y-96876250D01*
X133223000Y-95377000D01*
X132023750Y-95377000D01*
X131865000Y-95535750D01*
X131861928Y-96400000D01*
X126953483Y-96400000D01*
X126970706Y-96379014D01*
X127108599Y-96121034D01*
X127193513Y-95841110D01*
X127215000Y-95622949D01*
X127215000Y-94877050D01*
X127193513Y-94658889D01*
X127108599Y-94378966D01*
X126970706Y-94120986D01*
X126953484Y-94100000D01*
X131861928Y-94100000D01*
X131865000Y-94964250D01*
X132023750Y-95123000D01*
X133223000Y-95123000D01*
X133223000Y-93623750D01*
X133477000Y-93623750D01*
X133477000Y-95123000D01*
X133497000Y-95123000D01*
X133497000Y-95377000D01*
X133477000Y-95377000D01*
X133477000Y-96876250D01*
X133635750Y-97035000D01*
X134200000Y-97038072D01*
X134324482Y-97025812D01*
X134444180Y-96989502D01*
X134554494Y-96930537D01*
X134651185Y-96851185D01*
X134730537Y-96754494D01*
X134789502Y-96644180D01*
X134810393Y-96575313D01*
X134834866Y-96605134D01*
X135060987Y-96790706D01*
X135318967Y-96928599D01*
X135598890Y-97013513D01*
X135890000Y-97042185D01*
X136181111Y-97013513D01*
X136461034Y-96928599D01*
X136719014Y-96790706D01*
X136945134Y-96605134D01*
X137130706Y-96379014D01*
X137160000Y-96324209D01*
X137189294Y-96379014D01*
X137374866Y-96605134D01*
X137600987Y-96790706D01*
X137858967Y-96928599D01*
X138138890Y-97013513D01*
X138430000Y-97042185D01*
X138721111Y-97013513D01*
X139001034Y-96928599D01*
X139259014Y-96790706D01*
X139485134Y-96605134D01*
X139670706Y-96379014D01*
X139700000Y-96324209D01*
X139729294Y-96379014D01*
X139914866Y-96605134D01*
X140140987Y-96790706D01*
X140398967Y-96928599D01*
X140678890Y-97013513D01*
X140970000Y-97042185D01*
X141261111Y-97013513D01*
X141541034Y-96928599D01*
X141799014Y-96790706D01*
X142025134Y-96605134D01*
X142210706Y-96379014D01*
X142240000Y-96324209D01*
X142269294Y-96379014D01*
X142454866Y-96605134D01*
X142680987Y-96790706D01*
X142938967Y-96928599D01*
X143218890Y-97013513D01*
X143510000Y-97042185D01*
X143801111Y-97013513D01*
X144081034Y-96928599D01*
X144339014Y-96790706D01*
X144565134Y-96605134D01*
X144750706Y-96379014D01*
X144780000Y-96324209D01*
X144809294Y-96379014D01*
X144994866Y-96605134D01*
X145220987Y-96790706D01*
X145478967Y-96928599D01*
X145758890Y-97013513D01*
X146050000Y-97042185D01*
X146341111Y-97013513D01*
X146621034Y-96928599D01*
X146879014Y-96790706D01*
X147105134Y-96605134D01*
X147290706Y-96379014D01*
X147320000Y-96324209D01*
X147349294Y-96379014D01*
X147534866Y-96605134D01*
X147760987Y-96790706D01*
X148018967Y-96928599D01*
X148298890Y-97013513D01*
X148590000Y-97042185D01*
X148881111Y-97013513D01*
X149161034Y-96928599D01*
X149419014Y-96790706D01*
X149645134Y-96605134D01*
X149830706Y-96379014D01*
X149860000Y-96324209D01*
X149889294Y-96379014D01*
X150074866Y-96605134D01*
X150300987Y-96790706D01*
X150558967Y-96928599D01*
X150838890Y-97013513D01*
X151130000Y-97042185D01*
X151421111Y-97013513D01*
X151701034Y-96928599D01*
X151959014Y-96790706D01*
X152185134Y-96605134D01*
X152370706Y-96379014D01*
X152400000Y-96324209D01*
X152429294Y-96379014D01*
X152614866Y-96605134D01*
X152840987Y-96790706D01*
X153098967Y-96928599D01*
X153378890Y-97013513D01*
X153670000Y-97042185D01*
X153961111Y-97013513D01*
X154241034Y-96928599D01*
X154499014Y-96790706D01*
X154725134Y-96605134D01*
X154910706Y-96379014D01*
X154940000Y-96324209D01*
X154969294Y-96379014D01*
X155154866Y-96605134D01*
X155380987Y-96790706D01*
X155638967Y-96928599D01*
X155918890Y-97013513D01*
X156210000Y-97042185D01*
X156501111Y-97013513D01*
X156781034Y-96928599D01*
X157039014Y-96790706D01*
X157265134Y-96605134D01*
X157450706Y-96379014D01*
X157480000Y-96324209D01*
X157509294Y-96379014D01*
X157694866Y-96605134D01*
X157920987Y-96790706D01*
X158178967Y-96928599D01*
X158458890Y-97013513D01*
X158750000Y-97042185D01*
X159041111Y-97013513D01*
X159321034Y-96928599D01*
X159579014Y-96790706D01*
X159805134Y-96605134D01*
X159990706Y-96379014D01*
X160128599Y-96121034D01*
X160213513Y-95841110D01*
X160235000Y-95622949D01*
X160235000Y-94877050D01*
X160213513Y-94658889D01*
X160128599Y-94378966D01*
X159990706Y-94120986D01*
X159805134Y-93894866D01*
X159579013Y-93709294D01*
X159321033Y-93571401D01*
X159041110Y-93486487D01*
X158750000Y-93457815D01*
X158458889Y-93486487D01*
X158178966Y-93571401D01*
X157920986Y-93709294D01*
X157694866Y-93894866D01*
X157509294Y-94120987D01*
X157480000Y-94175792D01*
X157450706Y-94120986D01*
X157265134Y-93894866D01*
X157039013Y-93709294D01*
X156781033Y-93571401D01*
X156501110Y-93486487D01*
X156210000Y-93457815D01*
X155918889Y-93486487D01*
X155638966Y-93571401D01*
X155380986Y-93709294D01*
X155154866Y-93894866D01*
X154969294Y-94120987D01*
X154940000Y-94175792D01*
X154910706Y-94120986D01*
X154725134Y-93894866D01*
X154499013Y-93709294D01*
X154241033Y-93571401D01*
X153961110Y-93486487D01*
X153670000Y-93457815D01*
X153378889Y-93486487D01*
X153098966Y-93571401D01*
X152840986Y-93709294D01*
X152614866Y-93894866D01*
X152429294Y-94120987D01*
X152400000Y-94175792D01*
X152370706Y-94120986D01*
X152185134Y-93894866D01*
X151959013Y-93709294D01*
X151701033Y-93571401D01*
X151421110Y-93486487D01*
X151130000Y-93457815D01*
X150838889Y-93486487D01*
X150558966Y-93571401D01*
X150300986Y-93709294D01*
X150074866Y-93894866D01*
X149889294Y-94120987D01*
X149860000Y-94175792D01*
X149830706Y-94120986D01*
X149645134Y-93894866D01*
X149419013Y-93709294D01*
X149161033Y-93571401D01*
X148881110Y-93486487D01*
X148590000Y-93457815D01*
X148298889Y-93486487D01*
X148018966Y-93571401D01*
X147760986Y-93709294D01*
X147534866Y-93894866D01*
X147349294Y-94120987D01*
X147320000Y-94175792D01*
X147290706Y-94120986D01*
X147105134Y-93894866D01*
X146879013Y-93709294D01*
X146621033Y-93571401D01*
X146341110Y-93486487D01*
X146050000Y-93457815D01*
X145758889Y-93486487D01*
X145478966Y-93571401D01*
X145220986Y-93709294D01*
X144994866Y-93894866D01*
X144809294Y-94120987D01*
X144780000Y-94175792D01*
X144750706Y-94120986D01*
X144565134Y-93894866D01*
X144339013Y-93709294D01*
X144081033Y-93571401D01*
X143801110Y-93486487D01*
X143510000Y-93457815D01*
X143218889Y-93486487D01*
X142938966Y-93571401D01*
X142680986Y-93709294D01*
X142454866Y-93894866D01*
X142269294Y-94120987D01*
X142240000Y-94175792D01*
X142210706Y-94120986D01*
X142025134Y-93894866D01*
X141799013Y-93709294D01*
X141541033Y-93571401D01*
X141261110Y-93486487D01*
X140970000Y-93457815D01*
X140678889Y-93486487D01*
X140398966Y-93571401D01*
X140140986Y-93709294D01*
X139914866Y-93894866D01*
X139729294Y-94120987D01*
X139700000Y-94175792D01*
X139670706Y-94120986D01*
X139485134Y-93894866D01*
X139259013Y-93709294D01*
X139001033Y-93571401D01*
X138721110Y-93486487D01*
X138430000Y-93457815D01*
X138138889Y-93486487D01*
X137858966Y-93571401D01*
X137600986Y-93709294D01*
X137374866Y-93894866D01*
X137189294Y-94120987D01*
X137160000Y-94175792D01*
X137130706Y-94120986D01*
X136945134Y-93894866D01*
X136719013Y-93709294D01*
X136461033Y-93571401D01*
X136181110Y-93486487D01*
X135890000Y-93457815D01*
X135598889Y-93486487D01*
X135318966Y-93571401D01*
X135060986Y-93709294D01*
X134834866Y-93894866D01*
X134810393Y-93924687D01*
X134789502Y-93855820D01*
X134730537Y-93745506D01*
X134651185Y-93648815D01*
X134554494Y-93569463D01*
X134444180Y-93510498D01*
X134324482Y-93474188D01*
X134200000Y-93461928D01*
X133635750Y-93465000D01*
X133477000Y-93623750D01*
X133223000Y-93623750D01*
X133064250Y-93465000D01*
X132500000Y-93461928D01*
X132375518Y-93474188D01*
X132255820Y-93510498D01*
X132145506Y-93569463D01*
X132048815Y-93648815D01*
X131969463Y-93745506D01*
X131910498Y-93855820D01*
X131874188Y-93975518D01*
X131861928Y-94100000D01*
X126953484Y-94100000D01*
X126785134Y-93894866D01*
X126559013Y-93709294D01*
X126301033Y-93571401D01*
X126021110Y-93486487D01*
X125730000Y-93457815D01*
X125438889Y-93486487D01*
X125158966Y-93571401D01*
X124900986Y-93709294D01*
X124674866Y-93894866D01*
X124650393Y-93924687D01*
X124629502Y-93855820D01*
X124570537Y-93745506D01*
X124491185Y-93648815D01*
X124394494Y-93569463D01*
X124284180Y-93510498D01*
X124164482Y-93474188D01*
X124040000Y-93461928D01*
X122340000Y-93461928D01*
X122215518Y-93474188D01*
X122095820Y-93510498D01*
X121985506Y-93569463D01*
X121888815Y-93648815D01*
X121809463Y-93745506D01*
X121750498Y-93855820D01*
X121714188Y-93975518D01*
X121701928Y-94100000D01*
X120190000Y-94100000D01*
X120190000Y-92169787D01*
X120193919Y-92129999D01*
X120184179Y-92031110D01*
X120178280Y-91971212D01*
X120131963Y-91818527D01*
X120082373Y-91725750D01*
X120056749Y-91677810D01*
X120011119Y-91622210D01*
X119955528Y-91554472D01*
X119924619Y-91529106D01*
X119462563Y-91067050D01*
X121705000Y-91067050D01*
X121705000Y-91812949D01*
X121726487Y-92031110D01*
X121811401Y-92311033D01*
X121949294Y-92569013D01*
X122134866Y-92795134D01*
X122360986Y-92980706D01*
X122618966Y-93118599D01*
X122898889Y-93203513D01*
X123190000Y-93232185D01*
X123481110Y-93203513D01*
X123761033Y-93118599D01*
X124019013Y-92980706D01*
X124245134Y-92795134D01*
X124269607Y-92765313D01*
X124290498Y-92834180D01*
X124349463Y-92944494D01*
X124428815Y-93041185D01*
X124525506Y-93120537D01*
X124635820Y-93179502D01*
X124755518Y-93215812D01*
X124880000Y-93228072D01*
X125444250Y-93225000D01*
X125603000Y-93066250D01*
X125603000Y-91567000D01*
X125857000Y-91567000D01*
X125857000Y-93066250D01*
X126015750Y-93225000D01*
X126580000Y-93228072D01*
X126704482Y-93215812D01*
X126824180Y-93179502D01*
X126934494Y-93120537D01*
X127031185Y-93041185D01*
X127110537Y-92944494D01*
X127169502Y-92834180D01*
X127205812Y-92714482D01*
X127218072Y-92590000D01*
X131861928Y-92590000D01*
X131874188Y-92714482D01*
X131910498Y-92834180D01*
X131969463Y-92944494D01*
X132048815Y-93041185D01*
X132145506Y-93120537D01*
X132255820Y-93179502D01*
X132375518Y-93215812D01*
X132500000Y-93228072D01*
X133064250Y-93225000D01*
X133223000Y-93066250D01*
X133223000Y-91567000D01*
X132023750Y-91567000D01*
X131865000Y-91725750D01*
X131861928Y-92590000D01*
X127218072Y-92590000D01*
X127215000Y-91725750D01*
X127056250Y-91567000D01*
X125857000Y-91567000D01*
X125603000Y-91567000D01*
X125583000Y-91567000D01*
X125583000Y-91313000D01*
X125603000Y-91313000D01*
X125603000Y-89813750D01*
X125857000Y-89813750D01*
X125857000Y-91313000D01*
X127056250Y-91313000D01*
X127215000Y-91154250D01*
X127218072Y-90290000D01*
X131861928Y-90290000D01*
X131865000Y-91154250D01*
X132023750Y-91313000D01*
X133223000Y-91313000D01*
X133223000Y-89813750D01*
X133477000Y-89813750D01*
X133477000Y-91313000D01*
X133497000Y-91313000D01*
X133497000Y-91567000D01*
X133477000Y-91567000D01*
X133477000Y-93066250D01*
X133635750Y-93225000D01*
X134200000Y-93228072D01*
X134324482Y-93215812D01*
X134444180Y-93179502D01*
X134554494Y-93120537D01*
X134651185Y-93041185D01*
X134730537Y-92944494D01*
X134789502Y-92834180D01*
X134810393Y-92765313D01*
X134834866Y-92795134D01*
X135060987Y-92980706D01*
X135318967Y-93118599D01*
X135598890Y-93203513D01*
X135890000Y-93232185D01*
X136181111Y-93203513D01*
X136461034Y-93118599D01*
X136719014Y-92980706D01*
X136945134Y-92795134D01*
X137130706Y-92569014D01*
X137268599Y-92311034D01*
X137353513Y-92031110D01*
X137375000Y-91812949D01*
X137375000Y-91792887D01*
X147238063Y-91792887D01*
X147295404Y-92069306D01*
X147405570Y-92329227D01*
X147564327Y-92562662D01*
X147765575Y-92760639D01*
X148001579Y-92915551D01*
X148263270Y-93021444D01*
X148320961Y-93031904D01*
X148543000Y-92909915D01*
X148543000Y-91567000D01*
X148797000Y-91567000D01*
X148797000Y-92909915D01*
X149019039Y-93031904D01*
X149076730Y-93021444D01*
X149338421Y-92915551D01*
X149574425Y-92760639D01*
X149775673Y-92562662D01*
X149934430Y-92329227D01*
X150044596Y-92069306D01*
X150101937Y-91792887D01*
X149949474Y-91567000D01*
X148797000Y-91567000D01*
X148543000Y-91567000D01*
X147390526Y-91567000D01*
X147238063Y-91792887D01*
X137375000Y-91792887D01*
X137375000Y-91087113D01*
X147238063Y-91087113D01*
X147390526Y-91313000D01*
X148543000Y-91313000D01*
X148543000Y-89970085D01*
X148797000Y-89970085D01*
X148797000Y-91313000D01*
X149949474Y-91313000D01*
X150046324Y-91169508D01*
X152235000Y-91169508D01*
X152235000Y-91710491D01*
X152255764Y-91921308D01*
X152337818Y-92191807D01*
X152471068Y-92441100D01*
X152650392Y-92659607D01*
X152868899Y-92838932D01*
X153118192Y-92972182D01*
X153388691Y-93054236D01*
X153670000Y-93081943D01*
X153951308Y-93054236D01*
X154221807Y-92972182D01*
X154471100Y-92838932D01*
X154689607Y-92659608D01*
X154868932Y-92441101D01*
X154940000Y-92308142D01*
X155011068Y-92441101D01*
X155190393Y-92659608D01*
X155408900Y-92838932D01*
X155658193Y-92972182D01*
X155928692Y-93054236D01*
X156210000Y-93081943D01*
X156491309Y-93054236D01*
X156761808Y-92972182D01*
X157011101Y-92838932D01*
X157229608Y-92659608D01*
X157408932Y-92441101D01*
X157542182Y-92191807D01*
X157624236Y-91921308D01*
X157636884Y-91792887D01*
X159778063Y-91792887D01*
X159835404Y-92069306D01*
X159945570Y-92329227D01*
X160104327Y-92562662D01*
X160305575Y-92760639D01*
X160541579Y-92915551D01*
X160803270Y-93021444D01*
X160860961Y-93031904D01*
X161083000Y-92909915D01*
X161083000Y-91567000D01*
X161337000Y-91567000D01*
X161337000Y-92909915D01*
X161559039Y-93031904D01*
X161616730Y-93021444D01*
X161878421Y-92915551D01*
X162114425Y-92760639D01*
X162315673Y-92562662D01*
X162474430Y-92329227D01*
X162584596Y-92069306D01*
X162641937Y-91792887D01*
X162489474Y-91567000D01*
X161337000Y-91567000D01*
X161083000Y-91567000D01*
X159930526Y-91567000D01*
X159778063Y-91792887D01*
X157636884Y-91792887D01*
X157645000Y-91710491D01*
X157645000Y-91169508D01*
X157636885Y-91087113D01*
X159778063Y-91087113D01*
X159930526Y-91313000D01*
X161083000Y-91313000D01*
X161083000Y-89970085D01*
X161337000Y-89970085D01*
X161337000Y-91313000D01*
X162489474Y-91313000D01*
X162512444Y-91278967D01*
X164735000Y-91278967D01*
X164735000Y-91601033D01*
X164797832Y-91916912D01*
X164921082Y-92214463D01*
X165100013Y-92482252D01*
X165327748Y-92709987D01*
X165595537Y-92888918D01*
X165893088Y-93012168D01*
X166208967Y-93075000D01*
X166531033Y-93075000D01*
X166846912Y-93012168D01*
X167144463Y-92888918D01*
X167412252Y-92709987D01*
X167639987Y-92482252D01*
X167818918Y-92214463D01*
X167942168Y-91916912D01*
X168005000Y-91601033D01*
X168005000Y-91278967D01*
X167942168Y-90963088D01*
X167818918Y-90665537D01*
X167639987Y-90397748D01*
X167412252Y-90170013D01*
X167144463Y-89991082D01*
X166846912Y-89867832D01*
X166531033Y-89805000D01*
X166208967Y-89805000D01*
X165893088Y-89867832D01*
X165595537Y-89991082D01*
X165327748Y-90170013D01*
X165100013Y-90397748D01*
X164921082Y-90665537D01*
X164797832Y-90963088D01*
X164735000Y-91278967D01*
X162512444Y-91278967D01*
X162641937Y-91087113D01*
X162584596Y-90810694D01*
X162474430Y-90550773D01*
X162315673Y-90317338D01*
X162114425Y-90119361D01*
X161878421Y-89964449D01*
X161616730Y-89858556D01*
X161559039Y-89848096D01*
X161337000Y-89970085D01*
X161083000Y-89970085D01*
X160860961Y-89848096D01*
X160803270Y-89858556D01*
X160541579Y-89964449D01*
X160305575Y-90119361D01*
X160104327Y-90317338D01*
X159945570Y-90550773D01*
X159835404Y-90810694D01*
X159778063Y-91087113D01*
X157636885Y-91087113D01*
X157624236Y-90958691D01*
X157542182Y-90688192D01*
X157408932Y-90438899D01*
X157229607Y-90220392D01*
X157011100Y-90041068D01*
X156761807Y-89907818D01*
X156491308Y-89825764D01*
X156210000Y-89798057D01*
X155928691Y-89825764D01*
X155658192Y-89907818D01*
X155408899Y-90041068D01*
X155190392Y-90220393D01*
X155011068Y-90438900D01*
X154940000Y-90571859D01*
X154868932Y-90438899D01*
X154689608Y-90220392D01*
X154471101Y-90041068D01*
X154221808Y-89907818D01*
X153951309Y-89825764D01*
X153670000Y-89798057D01*
X153388692Y-89825764D01*
X153118193Y-89907818D01*
X152868900Y-90041068D01*
X152650393Y-90220392D01*
X152471068Y-90438899D01*
X152337818Y-90688192D01*
X152255764Y-90958691D01*
X152235000Y-91169508D01*
X150046324Y-91169508D01*
X150101937Y-91087113D01*
X150044596Y-90810694D01*
X149934430Y-90550773D01*
X149775673Y-90317338D01*
X149574425Y-90119361D01*
X149338421Y-89964449D01*
X149076730Y-89858556D01*
X149019039Y-89848096D01*
X148797000Y-89970085D01*
X148543000Y-89970085D01*
X148320961Y-89848096D01*
X148263270Y-89858556D01*
X148001579Y-89964449D01*
X147765575Y-90119361D01*
X147564327Y-90317338D01*
X147405570Y-90550773D01*
X147295404Y-90810694D01*
X147238063Y-91087113D01*
X137375000Y-91087113D01*
X137375000Y-91067050D01*
X137353513Y-90848889D01*
X137268599Y-90568966D01*
X137130706Y-90310986D01*
X136945134Y-90084866D01*
X136719013Y-89899294D01*
X136461033Y-89761401D01*
X136181110Y-89676487D01*
X135890000Y-89647815D01*
X135598889Y-89676487D01*
X135318966Y-89761401D01*
X135060986Y-89899294D01*
X134834866Y-90084866D01*
X134810393Y-90114687D01*
X134789502Y-90045820D01*
X134730537Y-89935506D01*
X134651185Y-89838815D01*
X134554494Y-89759463D01*
X134444180Y-89700498D01*
X134324482Y-89664188D01*
X134200000Y-89651928D01*
X133635750Y-89655000D01*
X133477000Y-89813750D01*
X133223000Y-89813750D01*
X133064250Y-89655000D01*
X132500000Y-89651928D01*
X132375518Y-89664188D01*
X132255820Y-89700498D01*
X132145506Y-89759463D01*
X132048815Y-89838815D01*
X131969463Y-89935506D01*
X131910498Y-90045820D01*
X131874188Y-90165518D01*
X131861928Y-90290000D01*
X127218072Y-90290000D01*
X127205812Y-90165518D01*
X127169502Y-90045820D01*
X127110537Y-89935506D01*
X127031185Y-89838815D01*
X126934494Y-89759463D01*
X126824180Y-89700498D01*
X126704482Y-89664188D01*
X126580000Y-89651928D01*
X126015750Y-89655000D01*
X125857000Y-89813750D01*
X125603000Y-89813750D01*
X125444250Y-89655000D01*
X124880000Y-89651928D01*
X124755518Y-89664188D01*
X124635820Y-89700498D01*
X124525506Y-89759463D01*
X124428815Y-89838815D01*
X124349463Y-89935506D01*
X124290498Y-90045820D01*
X124269607Y-90114687D01*
X124245134Y-90084866D01*
X124019014Y-89899294D01*
X123761034Y-89761401D01*
X123481111Y-89676487D01*
X123190000Y-89647815D01*
X122898890Y-89676487D01*
X122618967Y-89761401D01*
X122360987Y-89899294D01*
X122134866Y-90084866D01*
X121949294Y-90310986D01*
X121811401Y-90568966D01*
X121726487Y-90848889D01*
X121705000Y-91067050D01*
X119462563Y-91067050D01*
X119290899Y-90895387D01*
X119265528Y-90864472D01*
X119142189Y-90763251D01*
X119001473Y-90688037D01*
X118848788Y-90641720D01*
X118762685Y-90633240D01*
X118706031Y-90527248D01*
X118501714Y-90278286D01*
X118252752Y-90073969D01*
X117968715Y-89922148D01*
X117660516Y-89828657D01*
X117420322Y-89805000D01*
X116559678Y-89805000D01*
X116319484Y-89828657D01*
X116011285Y-89922148D01*
X115727248Y-90073969D01*
X115478286Y-90278286D01*
X115273969Y-90527248D01*
X115219047Y-90630000D01*
X112260953Y-90630000D01*
X112206031Y-90527248D01*
X112001714Y-90278286D01*
X111752752Y-90073969D01*
X111468715Y-89922148D01*
X111160516Y-89828657D01*
X110920322Y-89805000D01*
X110059678Y-89805000D01*
X109819484Y-89828657D01*
X109511285Y-89922148D01*
X109227248Y-90073969D01*
X108978286Y-90278286D01*
X108773969Y-90527248D01*
X108717315Y-90633240D01*
X108631212Y-90641720D01*
X108478527Y-90688037D01*
X108337811Y-90763251D01*
X108214472Y-90864472D01*
X108189105Y-90895382D01*
X107542906Y-91541582D01*
X107552911Y-91440000D01*
X107521343Y-91119484D01*
X107427852Y-90811285D01*
X107276031Y-90527248D01*
X107071714Y-90278286D01*
X106822752Y-90073969D01*
X106538715Y-89922148D01*
X106230516Y-89828657D01*
X105990322Y-89805000D01*
X105129678Y-89805000D01*
X104889484Y-89828657D01*
X104581285Y-89922148D01*
X104297248Y-90073969D01*
X104048286Y-90278286D01*
X103843969Y-90527248D01*
X103692148Y-90811285D01*
X103598657Y-91119484D01*
X103567089Y-91440000D01*
X103598657Y-91760516D01*
X103692148Y-92068715D01*
X103843969Y-92352752D01*
X104048286Y-92601714D01*
X104297248Y-92806031D01*
X104581285Y-92957852D01*
X104889484Y-93051343D01*
X105129678Y-93075000D01*
X105990322Y-93075000D01*
X106230516Y-93051343D01*
X106538715Y-92957852D01*
X106822752Y-92806031D01*
X107071714Y-92601714D01*
X107140000Y-92518507D01*
X107140000Y-94858406D01*
X106923954Y-94651105D01*
X106653020Y-94478058D01*
X106353532Y-94361193D01*
X106037000Y-94305000D01*
X105687000Y-94305000D01*
X105687000Y-95813000D01*
X105707000Y-95813000D01*
X105707000Y-96067000D01*
X105687000Y-96067000D01*
X105687000Y-97575000D01*
X106037000Y-97575000D01*
X106353532Y-97518807D01*
X106653020Y-97401942D01*
X106923954Y-97228895D01*
X107140000Y-97021594D01*
X107140001Y-103804486D01*
X106344488Y-104600000D01*
X94260869Y-104600000D01*
X94250706Y-104580986D01*
X94065134Y-104354866D01*
X93839014Y-104169294D01*
X93581034Y-104031401D01*
X93301111Y-103946487D01*
X93082950Y-103925000D01*
X92337050Y-103925000D01*
X92118889Y-103946487D01*
X91838966Y-104031401D01*
X91580986Y-104169294D01*
X91354866Y-104354866D01*
X91169294Y-104580986D01*
X91031401Y-104838966D01*
X90946487Y-105118889D01*
X90917815Y-105410000D01*
X89560000Y-105410000D01*
X89560000Y-99910000D01*
X90921928Y-99910000D01*
X90934188Y-100034482D01*
X90970498Y-100154180D01*
X91029463Y-100264494D01*
X91108815Y-100361185D01*
X91205506Y-100440537D01*
X91315820Y-100499502D01*
X91435518Y-100535812D01*
X91560000Y-100548072D01*
X92424250Y-100545000D01*
X92583000Y-100386250D01*
X92583000Y-99187000D01*
X92837000Y-99187000D01*
X92837000Y-100386250D01*
X92995750Y-100545000D01*
X93860000Y-100548072D01*
X93984482Y-100535812D01*
X94104180Y-100499502D01*
X94214494Y-100440537D01*
X94311185Y-100361185D01*
X94390537Y-100264494D01*
X94449502Y-100154180D01*
X94485812Y-100034482D01*
X94498072Y-99910000D01*
X94495000Y-99345750D01*
X94336250Y-99187000D01*
X92837000Y-99187000D01*
X92583000Y-99187000D01*
X91083750Y-99187000D01*
X90925000Y-99345750D01*
X90921928Y-99910000D01*
X89560000Y-99910000D01*
X89560000Y-96520000D01*
X90917815Y-96520000D01*
X90946487Y-96811111D01*
X91031401Y-97091034D01*
X91169294Y-97349014D01*
X91354866Y-97575134D01*
X91384687Y-97599607D01*
X91315820Y-97620498D01*
X91205506Y-97679463D01*
X91108815Y-97758815D01*
X91029463Y-97855506D01*
X90970498Y-97965820D01*
X90934188Y-98085518D01*
X90921928Y-98210000D01*
X90925000Y-98774250D01*
X91083750Y-98933000D01*
X92583000Y-98933000D01*
X92583000Y-98913000D01*
X92837000Y-98913000D01*
X92837000Y-98933000D01*
X94336250Y-98933000D01*
X94495000Y-98774250D01*
X94498072Y-98210000D01*
X94485812Y-98085518D01*
X94449502Y-97965820D01*
X94390537Y-97855506D01*
X94311185Y-97758815D01*
X94214494Y-97679463D01*
X94104180Y-97620498D01*
X94035313Y-97599607D01*
X94065134Y-97575134D01*
X94250706Y-97349014D01*
X94388599Y-97091034D01*
X94473513Y-96811111D01*
X94502185Y-96520000D01*
X94482530Y-96320434D01*
X97119876Y-96320434D01*
X97150856Y-96448355D01*
X97279990Y-96742761D01*
X97464078Y-97006317D01*
X97696046Y-97228895D01*
X97966980Y-97401942D01*
X98266468Y-97518807D01*
X98583000Y-97575000D01*
X98933000Y-97575000D01*
X98933000Y-96067000D01*
X99187000Y-96067000D01*
X99187000Y-97575000D01*
X99537000Y-97575000D01*
X99853532Y-97518807D01*
X100153020Y-97401942D01*
X100423954Y-97228895D01*
X100655922Y-97006317D01*
X100840010Y-96742761D01*
X100969144Y-96448355D01*
X101000124Y-96320434D01*
X103619876Y-96320434D01*
X103650856Y-96448355D01*
X103779990Y-96742761D01*
X103964078Y-97006317D01*
X104196046Y-97228895D01*
X104466980Y-97401942D01*
X104766468Y-97518807D01*
X105083000Y-97575000D01*
X105433000Y-97575000D01*
X105433000Y-96067000D01*
X103739223Y-96067000D01*
X103619876Y-96320434D01*
X101000124Y-96320434D01*
X100880777Y-96067000D01*
X99187000Y-96067000D01*
X98933000Y-96067000D01*
X97239223Y-96067000D01*
X97119876Y-96320434D01*
X94482530Y-96320434D01*
X94473513Y-96228889D01*
X94388599Y-95948966D01*
X94250706Y-95690986D01*
X94142853Y-95559566D01*
X97119876Y-95559566D01*
X97239223Y-95813000D01*
X98933000Y-95813000D01*
X98933000Y-94305000D01*
X99187000Y-94305000D01*
X99187000Y-95813000D01*
X100880777Y-95813000D01*
X101000124Y-95559566D01*
X103619876Y-95559566D01*
X103739223Y-95813000D01*
X105433000Y-95813000D01*
X105433000Y-94305000D01*
X105083000Y-94305000D01*
X104766468Y-94361193D01*
X104466980Y-94478058D01*
X104196046Y-94651105D01*
X103964078Y-94873683D01*
X103779990Y-95137239D01*
X103650856Y-95431645D01*
X103619876Y-95559566D01*
X101000124Y-95559566D01*
X100969144Y-95431645D01*
X100840010Y-95137239D01*
X100655922Y-94873683D01*
X100423954Y-94651105D01*
X100153020Y-94478058D01*
X99853532Y-94361193D01*
X99537000Y-94305000D01*
X99187000Y-94305000D01*
X98933000Y-94305000D01*
X98583000Y-94305000D01*
X98266468Y-94361193D01*
X97966980Y-94478058D01*
X97696046Y-94651105D01*
X97464078Y-94873683D01*
X97279990Y-95137239D01*
X97150856Y-95431645D01*
X97119876Y-95559566D01*
X94142853Y-95559566D01*
X94065134Y-95464866D01*
X93839014Y-95279294D01*
X93581034Y-95141401D01*
X93301111Y-95056487D01*
X93082950Y-95035000D01*
X92337050Y-95035000D01*
X92118889Y-95056487D01*
X91838966Y-95141401D01*
X91580986Y-95279294D01*
X91354866Y-95464866D01*
X91169294Y-95690986D01*
X91031401Y-95948966D01*
X90946487Y-96228889D01*
X90917815Y-96520000D01*
X89560000Y-96520000D01*
X89560000Y-91278967D01*
X91075000Y-91278967D01*
X91075000Y-91601033D01*
X91137832Y-91916912D01*
X91261082Y-92214463D01*
X91440013Y-92482252D01*
X91667748Y-92709987D01*
X91935537Y-92888918D01*
X92233088Y-93012168D01*
X92548967Y-93075000D01*
X92871033Y-93075000D01*
X93186912Y-93012168D01*
X93484463Y-92888918D01*
X93752252Y-92709987D01*
X93979987Y-92482252D01*
X94158918Y-92214463D01*
X94282168Y-91916912D01*
X94345000Y-91601033D01*
X94345000Y-91440000D01*
X97067089Y-91440000D01*
X97098657Y-91760516D01*
X97192148Y-92068715D01*
X97343969Y-92352752D01*
X97548286Y-92601714D01*
X97797248Y-92806031D01*
X98081285Y-92957852D01*
X98389484Y-93051343D01*
X98629678Y-93075000D01*
X99490322Y-93075000D01*
X99730516Y-93051343D01*
X100038715Y-92957852D01*
X100322752Y-92806031D01*
X100571714Y-92601714D01*
X100776031Y-92352752D01*
X100927852Y-92068715D01*
X101021343Y-91760516D01*
X101052911Y-91440000D01*
X101021343Y-91119484D01*
X100927852Y-90811285D01*
X100776031Y-90527248D01*
X100571714Y-90278286D01*
X100322752Y-90073969D01*
X100038715Y-89922148D01*
X99730516Y-89828657D01*
X99490322Y-89805000D01*
X98629678Y-89805000D01*
X98389484Y-89828657D01*
X98081285Y-89922148D01*
X97797248Y-90073969D01*
X97548286Y-90278286D01*
X97343969Y-90527248D01*
X97192148Y-90811285D01*
X97098657Y-91119484D01*
X97067089Y-91440000D01*
X94345000Y-91440000D01*
X94345000Y-91278967D01*
X94282168Y-90963088D01*
X94158918Y-90665537D01*
X93979987Y-90397748D01*
X93752252Y-90170013D01*
X93484463Y-89991082D01*
X93186912Y-89867832D01*
X92871033Y-89805000D01*
X92548967Y-89805000D01*
X92233088Y-89867832D01*
X91935537Y-89991082D01*
X91667748Y-90170013D01*
X91440013Y-90397748D01*
X91261082Y-90665537D01*
X91137832Y-90963088D01*
X91075000Y-91278967D01*
X89560000Y-91278967D01*
X89560000Y-77968003D01*
X89767573Y-77968003D01*
X89847947Y-78265368D01*
X90046388Y-78689439D01*
X90323748Y-79066648D01*
X90669369Y-79382498D01*
X91069968Y-79624852D01*
X91510150Y-79784396D01*
X91973000Y-79855000D01*
X92973000Y-79855000D01*
X92973000Y-77597000D01*
X93227000Y-77597000D01*
X93227000Y-79855000D01*
X94227000Y-79855000D01*
X94689850Y-79784396D01*
X95130032Y-79624852D01*
X95530631Y-79382498D01*
X95876252Y-79066648D01*
X96153612Y-78689439D01*
X96352053Y-78265368D01*
X96432427Y-77968003D01*
X96322625Y-77597000D01*
X93227000Y-77597000D01*
X92973000Y-77597000D01*
X89877375Y-77597000D01*
X89767573Y-77968003D01*
X89560000Y-77968003D01*
X89560000Y-76971997D01*
X89767573Y-76971997D01*
X89877375Y-77343000D01*
X92973000Y-77343000D01*
X92973000Y-75085000D01*
X93227000Y-75085000D01*
X93227000Y-77343000D01*
X96322625Y-77343000D01*
X96350187Y-77249872D01*
X98610000Y-77249872D01*
X98610000Y-77690128D01*
X98695890Y-78121925D01*
X98864369Y-78528669D01*
X99108962Y-78894729D01*
X99420271Y-79206038D01*
X99786331Y-79450631D01*
X100193075Y-79619110D01*
X100624872Y-79705000D01*
X101065128Y-79705000D01*
X101496925Y-79619110D01*
X101903669Y-79450631D01*
X102269729Y-79206038D01*
X102581038Y-78894729D01*
X102825631Y-78528669D01*
X102994110Y-78121925D01*
X103080000Y-77690128D01*
X103080000Y-77249872D01*
X154220000Y-77249872D01*
X154220000Y-77690128D01*
X154305890Y-78121925D01*
X154474369Y-78528669D01*
X154718962Y-78894729D01*
X155030271Y-79206038D01*
X155396331Y-79450631D01*
X155803075Y-79619110D01*
X156234872Y-79705000D01*
X156675128Y-79705000D01*
X157106925Y-79619110D01*
X157513669Y-79450631D01*
X157879729Y-79206038D01*
X158191038Y-78894729D01*
X158435631Y-78528669D01*
X158604110Y-78121925D01*
X158690000Y-77690128D01*
X158690000Y-77249872D01*
X158604110Y-76818075D01*
X158435631Y-76411331D01*
X158191038Y-76045271D01*
X157879729Y-75733962D01*
X157858834Y-75720000D01*
X161711928Y-75720000D01*
X161711928Y-79220000D01*
X161724188Y-79344482D01*
X161760498Y-79464180D01*
X161819463Y-79574494D01*
X161898815Y-79671185D01*
X161995506Y-79750537D01*
X162105820Y-79809502D01*
X162225518Y-79845812D01*
X162350000Y-79858072D01*
X167850000Y-79858072D01*
X167974482Y-79845812D01*
X168094180Y-79809502D01*
X168204494Y-79750537D01*
X168301185Y-79671185D01*
X168380537Y-79574494D01*
X168439502Y-79464180D01*
X168475812Y-79344482D01*
X168488072Y-79220000D01*
X168488072Y-75720000D01*
X168475812Y-75595518D01*
X168439502Y-75475820D01*
X168380537Y-75365506D01*
X168301185Y-75268815D01*
X168204494Y-75189463D01*
X168094180Y-75130498D01*
X167974482Y-75094188D01*
X167850000Y-75081928D01*
X162350000Y-75081928D01*
X162225518Y-75094188D01*
X162105820Y-75130498D01*
X161995506Y-75189463D01*
X161898815Y-75268815D01*
X161819463Y-75365506D01*
X161760498Y-75475820D01*
X161724188Y-75595518D01*
X161711928Y-75720000D01*
X157858834Y-75720000D01*
X157513669Y-75489369D01*
X157106925Y-75320890D01*
X156675128Y-75235000D01*
X156234872Y-75235000D01*
X155803075Y-75320890D01*
X155396331Y-75489369D01*
X155030271Y-75733962D01*
X154718962Y-76045271D01*
X154474369Y-76411331D01*
X154305890Y-76818075D01*
X154220000Y-77249872D01*
X103080000Y-77249872D01*
X102994110Y-76818075D01*
X102825631Y-76411331D01*
X102581038Y-76045271D01*
X102269729Y-75733962D01*
X101903669Y-75489369D01*
X101496925Y-75320890D01*
X101065128Y-75235000D01*
X100624872Y-75235000D01*
X100193075Y-75320890D01*
X99786331Y-75489369D01*
X99420271Y-75733962D01*
X99108962Y-76045271D01*
X98864369Y-76411331D01*
X98695890Y-76818075D01*
X98610000Y-77249872D01*
X96350187Y-77249872D01*
X96432427Y-76971997D01*
X96352053Y-76674632D01*
X96153612Y-76250561D01*
X95876252Y-75873352D01*
X95530631Y-75557502D01*
X95130032Y-75315148D01*
X94689850Y-75155604D01*
X94227000Y-75085000D01*
X93227000Y-75085000D01*
X92973000Y-75085000D01*
X91973000Y-75085000D01*
X91510150Y-75155604D01*
X91069968Y-75315148D01*
X90669369Y-75557502D01*
X90323748Y-75873352D01*
X90046388Y-76250561D01*
X89847947Y-76674632D01*
X89767573Y-76971997D01*
X89560000Y-76971997D01*
X89560000Y-66700000D01*
X169520000Y-66700000D01*
X169520001Y-131420000D01*
G37*
X169520001Y-131420000D02*
X89560000Y-131420000D01*
X89560000Y-128108967D01*
X91075000Y-128108967D01*
X91075000Y-128431033D01*
X91137832Y-128746912D01*
X91261082Y-129044463D01*
X91440013Y-129312252D01*
X91667748Y-129539987D01*
X91935537Y-129718918D01*
X92233088Y-129842168D01*
X92548967Y-129905000D01*
X92871033Y-129905000D01*
X93186912Y-129842168D01*
X93484463Y-129718918D01*
X93752252Y-129539987D01*
X93979987Y-129312252D01*
X94158918Y-129044463D01*
X94282168Y-128746912D01*
X94345000Y-128431033D01*
X94345000Y-128108967D01*
X94282168Y-127793088D01*
X94158918Y-127495537D01*
X93979987Y-127227748D01*
X93872239Y-127120000D01*
X102651928Y-127120000D01*
X102651928Y-129420000D01*
X102664188Y-129544482D01*
X102700498Y-129664180D01*
X102759463Y-129774494D01*
X102838815Y-129871185D01*
X102935506Y-129950537D01*
X103045820Y-130009502D01*
X103165518Y-130045812D01*
X103290000Y-130058072D01*
X104990000Y-130058072D01*
X105114482Y-130045812D01*
X105234180Y-130009502D01*
X105344494Y-129950537D01*
X105441185Y-129871185D01*
X105520537Y-129774494D01*
X105579502Y-129664180D01*
X105602225Y-129589272D01*
X105719748Y-129709857D01*
X105960574Y-129875291D01*
X106229047Y-129990563D01*
X106323110Y-130011476D01*
X106553000Y-129890155D01*
X106553000Y-128397000D01*
X106533000Y-128397000D01*
X106533000Y-128143000D01*
X106553000Y-128143000D01*
X106553000Y-126649845D01*
X106323110Y-126528524D01*
X106229047Y-126549437D01*
X105960574Y-126664709D01*
X105719748Y-126830143D01*
X105602225Y-126950728D01*
X105579502Y-126875820D01*
X105520537Y-126765506D01*
X105441185Y-126668815D01*
X105344494Y-126589463D01*
X105234180Y-126530498D01*
X105114482Y-126494188D01*
X104990000Y-126481928D01*
X103290000Y-126481928D01*
X103165518Y-126494188D01*
X103045820Y-126530498D01*
X102935506Y-126589463D01*
X102838815Y-126668815D01*
X102759463Y-126765506D01*
X102700498Y-126875820D01*
X102664188Y-126995518D01*
X102651928Y-127120000D01*
X93872239Y-127120000D01*
X93752252Y-127000013D01*
X93484463Y-126821082D01*
X93186912Y-126697832D01*
X92871033Y-126635000D01*
X92548967Y-126635000D01*
X92233088Y-126697832D01*
X91935537Y-126821082D01*
X91667748Y-127000013D01*
X91440013Y-127227748D01*
X91261082Y-127495537D01*
X91137832Y-127793088D01*
X91075000Y-128108967D01*
X89560000Y-128108967D01*
X89560000Y-119380000D01*
X90917815Y-119380000D01*
X90946487Y-119671111D01*
X91031401Y-119951034D01*
X91169294Y-120209014D01*
X91354866Y-120435134D01*
X91580986Y-120620706D01*
X91635791Y-120650000D01*
X91580986Y-120679294D01*
X91354866Y-120864866D01*
X91169294Y-121090986D01*
X91031401Y-121348966D01*
X90946487Y-121628889D01*
X90917815Y-121920000D01*
X90946487Y-122211111D01*
X91031401Y-122491034D01*
X91169294Y-122749014D01*
X91354866Y-122975134D01*
X91580986Y-123160706D01*
X91838966Y-123298599D01*
X92118889Y-123383513D01*
X92337050Y-123405000D01*
X93082950Y-123405000D01*
X93301111Y-123383513D01*
X93581034Y-123298599D01*
X93839014Y-123160706D01*
X94065134Y-122975134D01*
X94250706Y-122749014D01*
X94261485Y-122728848D01*
X94368788Y-122718280D01*
X94521473Y-122671963D01*
X94662189Y-122596749D01*
X94785528Y-122495528D01*
X94810899Y-122464613D01*
X95794619Y-121480894D01*
X95825528Y-121455528D01*
X95916669Y-121344472D01*
X95926749Y-121332190D01*
X96001962Y-121191474D01*
X96001963Y-121191473D01*
X96048280Y-121038788D01*
X96060000Y-120919791D01*
X96060000Y-120919789D01*
X96063919Y-120880001D01*
X96060000Y-120840213D01*
X96060000Y-119715512D01*
X96855513Y-118920000D01*
X102534488Y-118920000D01*
X103086355Y-119471867D01*
X102941068Y-119648900D01*
X102807818Y-119898193D01*
X102725764Y-120168692D01*
X102705000Y-120379509D01*
X102705000Y-120920492D01*
X102725764Y-121131309D01*
X102807818Y-121401808D01*
X102941068Y-121651101D01*
X103120393Y-121869608D01*
X103338769Y-122048824D01*
X103341720Y-122078787D01*
X103388037Y-122231472D01*
X103388038Y-122231473D01*
X103463251Y-122372189D01*
X103479280Y-122391720D01*
X103564472Y-122495528D01*
X103595387Y-122520899D01*
X104724487Y-123650000D01*
X100665513Y-123650000D01*
X99870000Y-122854488D01*
X99870000Y-122041629D01*
X100079608Y-121869608D01*
X100258932Y-121651101D01*
X100392182Y-121401807D01*
X100474236Y-121131308D01*
X100495000Y-120920491D01*
X100495000Y-120379508D01*
X100474236Y-120168691D01*
X100392182Y-119898192D01*
X100258932Y-119648899D01*
X100079607Y-119430392D01*
X99861100Y-119251068D01*
X99611807Y-119117818D01*
X99341308Y-119035764D01*
X99060000Y-119008057D01*
X98778691Y-119035764D01*
X98508192Y-119117818D01*
X98258899Y-119251068D01*
X98040392Y-119430393D01*
X97861068Y-119648900D01*
X97727818Y-119898193D01*
X97645764Y-120168692D01*
X97625000Y-120379509D01*
X97625000Y-120920492D01*
X97645764Y-121131309D01*
X97727818Y-121401808D01*
X97861068Y-121651101D01*
X98040393Y-121869608D01*
X98250000Y-122041628D01*
X98250000Y-123150212D01*
X98246081Y-123190000D01*
X98250000Y-123229788D01*
X98250000Y-123229790D01*
X98261720Y-123348787D01*
X98308037Y-123501472D01*
X98308038Y-123501473D01*
X98383251Y-123642189D01*
X98399280Y-123661720D01*
X98484472Y-123765528D01*
X98515387Y-123790899D01*
X99729105Y-125004618D01*
X99754472Y-125035528D01*
X99822210Y-125091119D01*
X99877810Y-125136749D01*
X99953024Y-125176951D01*
X100018527Y-125211963D01*
X100171212Y-125258280D01*
X100290209Y-125270000D01*
X100290211Y-125270000D01*
X100329999Y-125273919D01*
X100369787Y-125270000D01*
X107614488Y-125270000D01*
X108410001Y-126065514D01*
X108410001Y-126719130D01*
X108390986Y-126729294D01*
X108164866Y-126914866D01*
X107979294Y-127140987D01*
X107948105Y-127199338D01*
X107844176Y-127039381D01*
X107640252Y-126830143D01*
X107399426Y-126664709D01*
X107130953Y-126549437D01*
X107036890Y-126528524D01*
X106807000Y-126649845D01*
X106807000Y-128143000D01*
X106827000Y-128143000D01*
X106827000Y-128397000D01*
X106807000Y-128397000D01*
X106807000Y-129890155D01*
X107036890Y-130011476D01*
X107130953Y-129990563D01*
X107399426Y-129875291D01*
X107640252Y-129709857D01*
X107844176Y-129500619D01*
X107948105Y-129340663D01*
X107979294Y-129399014D01*
X108164866Y-129625134D01*
X108390987Y-129810706D01*
X108648967Y-129948599D01*
X108928890Y-130033513D01*
X109220000Y-130062185D01*
X109511111Y-130033513D01*
X109791034Y-129948599D01*
X110049014Y-129810706D01*
X110275134Y-129625134D01*
X110460706Y-129399014D01*
X110490000Y-129344209D01*
X110519294Y-129399014D01*
X110704866Y-129625134D01*
X110930987Y-129810706D01*
X111188967Y-129948599D01*
X111468890Y-130033513D01*
X111760000Y-130062185D01*
X112051111Y-130033513D01*
X112331034Y-129948599D01*
X112589014Y-129810706D01*
X112815134Y-129625134D01*
X112983483Y-129420000D01*
X131861928Y-129420000D01*
X131874188Y-129544482D01*
X131910498Y-129664180D01*
X131969463Y-129774494D01*
X132048815Y-129871185D01*
X132145506Y-129950537D01*
X132255820Y-130009502D01*
X132375518Y-130045812D01*
X132500000Y-130058072D01*
X133064250Y-130055000D01*
X133223000Y-129896250D01*
X133223000Y-128397000D01*
X132023750Y-128397000D01*
X131865000Y-128555750D01*
X131861928Y-129420000D01*
X112983483Y-129420000D01*
X113000706Y-129399014D01*
X113138599Y-129141034D01*
X113157113Y-129080000D01*
X128230212Y-129080000D01*
X128270000Y-129083919D01*
X128309788Y-129080000D01*
X128309791Y-129080000D01*
X128428788Y-129068280D01*
X128581473Y-129021963D01*
X128722189Y-128946749D01*
X128845528Y-128845528D01*
X128870899Y-128814613D01*
X130084618Y-127600895D01*
X130115528Y-127575528D01*
X130171119Y-127507790D01*
X130216749Y-127452190D01*
X130291962Y-127311474D01*
X130291963Y-127311473D01*
X130338280Y-127158788D01*
X130342100Y-127120000D01*
X131861928Y-127120000D01*
X131865000Y-127984250D01*
X132023750Y-128143000D01*
X133223000Y-128143000D01*
X133223000Y-126643750D01*
X133477000Y-126643750D01*
X133477000Y-128143000D01*
X133497000Y-128143000D01*
X133497000Y-128397000D01*
X133477000Y-128397000D01*
X133477000Y-129896250D01*
X133635750Y-130055000D01*
X134200000Y-130058072D01*
X134324482Y-130045812D01*
X134444180Y-130009502D01*
X134554494Y-129950537D01*
X134651185Y-129871185D01*
X134730537Y-129774494D01*
X134789502Y-129664180D01*
X134810393Y-129595313D01*
X134834866Y-129625134D01*
X135060987Y-129810706D01*
X135318967Y-129948599D01*
X135598890Y-130033513D01*
X135890000Y-130062185D01*
X136181111Y-130033513D01*
X136461034Y-129948599D01*
X136719014Y-129810706D01*
X136945134Y-129625134D01*
X137130706Y-129399014D01*
X137160000Y-129344209D01*
X137189294Y-129399014D01*
X137374866Y-129625134D01*
X137600987Y-129810706D01*
X137858967Y-129948599D01*
X138138890Y-130033513D01*
X138430000Y-130062185D01*
X138721111Y-130033513D01*
X139001034Y-129948599D01*
X139259014Y-129810706D01*
X139485134Y-129625134D01*
X139670706Y-129399014D01*
X139700000Y-129344209D01*
X139729294Y-129399014D01*
X139914866Y-129625134D01*
X140140987Y-129810706D01*
X140398967Y-129948599D01*
X140678890Y-130033513D01*
X140970000Y-130062185D01*
X141261111Y-130033513D01*
X141541034Y-129948599D01*
X141799014Y-129810706D01*
X142025134Y-129625134D01*
X142210706Y-129399014D01*
X142241895Y-129340663D01*
X142345824Y-129500619D01*
X142549748Y-129709857D01*
X142790574Y-129875291D01*
X143059047Y-129990563D01*
X143153110Y-130011476D01*
X143383000Y-129890155D01*
X143383000Y-128397000D01*
X143363000Y-128397000D01*
X143363000Y-128143000D01*
X143383000Y-128143000D01*
X143383000Y-126649845D01*
X143637000Y-126649845D01*
X143637000Y-128143000D01*
X143657000Y-128143000D01*
X143657000Y-128397000D01*
X143637000Y-128397000D01*
X143637000Y-129890155D01*
X143866890Y-130011476D01*
X143960953Y-129990563D01*
X144229426Y-129875291D01*
X144470252Y-129709857D01*
X144674176Y-129500619D01*
X144778105Y-129340663D01*
X144809294Y-129399014D01*
X144994866Y-129625134D01*
X145220987Y-129810706D01*
X145478967Y-129948599D01*
X145758890Y-130033513D01*
X146050000Y-130062185D01*
X146341111Y-130033513D01*
X146621034Y-129948599D01*
X146879014Y-129810706D01*
X147105134Y-129625134D01*
X147290706Y-129399014D01*
X147320000Y-129344209D01*
X147349294Y-129399014D01*
X147534866Y-129625134D01*
X147760987Y-129810706D01*
X148018967Y-129948599D01*
X148298890Y-130033513D01*
X148590000Y-130062185D01*
X148881111Y-130033513D01*
X149161034Y-129948599D01*
X149419014Y-129810706D01*
X149645134Y-129625134D01*
X149830706Y-129399014D01*
X149860000Y-129344209D01*
X149889294Y-129399014D01*
X150074866Y-129625134D01*
X150300987Y-129810706D01*
X150558967Y-129948599D01*
X150838890Y-130033513D01*
X151130000Y-130062185D01*
X151421111Y-130033513D01*
X151701034Y-129948599D01*
X151959014Y-129810706D01*
X152185134Y-129625134D01*
X152370706Y-129399014D01*
X152400000Y-129344209D01*
X152429294Y-129399014D01*
X152614866Y-129625134D01*
X152840987Y-129810706D01*
X153098967Y-129948599D01*
X153378890Y-130033513D01*
X153670000Y-130062185D01*
X153961111Y-130033513D01*
X154241034Y-129948599D01*
X154499014Y-129810706D01*
X154725134Y-129625134D01*
X154910706Y-129399014D01*
X154940000Y-129344209D01*
X154969294Y-129399014D01*
X155154866Y-129625134D01*
X155380987Y-129810706D01*
X155638967Y-129948599D01*
X155918890Y-130033513D01*
X156210000Y-130062185D01*
X156501111Y-130033513D01*
X156781034Y-129948599D01*
X157039014Y-129810706D01*
X157265134Y-129625134D01*
X157450706Y-129399014D01*
X157480000Y-129344209D01*
X157509294Y-129399014D01*
X157694866Y-129625134D01*
X157920987Y-129810706D01*
X158178967Y-129948599D01*
X158458890Y-130033513D01*
X158750000Y-130062185D01*
X159041111Y-130033513D01*
X159321034Y-129948599D01*
X159579014Y-129810706D01*
X159805134Y-129625134D01*
X159990706Y-129399014D01*
X160128599Y-129141034D01*
X160213513Y-128861110D01*
X160235000Y-128642949D01*
X160235000Y-128108967D01*
X164735000Y-128108967D01*
X164735000Y-128431033D01*
X164797832Y-128746912D01*
X164921082Y-129044463D01*
X165100013Y-129312252D01*
X165327748Y-129539987D01*
X165595537Y-129718918D01*
X165893088Y-129842168D01*
X166208967Y-129905000D01*
X166531033Y-129905000D01*
X166846912Y-129842168D01*
X167144463Y-129718918D01*
X167412252Y-129539987D01*
X167639987Y-129312252D01*
X167818918Y-129044463D01*
X167942168Y-128746912D01*
X168005000Y-128431033D01*
X168005000Y-128108967D01*
X167942168Y-127793088D01*
X167818918Y-127495537D01*
X167639987Y-127227748D01*
X167412252Y-127000013D01*
X167144463Y-126821082D01*
X166846912Y-126697832D01*
X166531033Y-126635000D01*
X166208967Y-126635000D01*
X165893088Y-126697832D01*
X165595537Y-126821082D01*
X165327748Y-127000013D01*
X165100013Y-127227748D01*
X164921082Y-127495537D01*
X164797832Y-127793088D01*
X164735000Y-128108967D01*
X160235000Y-128108967D01*
X160235000Y-127897050D01*
X160213513Y-127678889D01*
X160128599Y-127398966D01*
X159990706Y-127140986D01*
X159805134Y-126914866D01*
X159579013Y-126729294D01*
X159321033Y-126591401D01*
X159041110Y-126506487D01*
X158750000Y-126477815D01*
X158458889Y-126506487D01*
X158178966Y-126591401D01*
X157920986Y-126729294D01*
X157694866Y-126914866D01*
X157509294Y-127140987D01*
X157480000Y-127195792D01*
X157450706Y-127140986D01*
X157265134Y-126914866D01*
X157039013Y-126729294D01*
X156781033Y-126591401D01*
X156501110Y-126506487D01*
X156210000Y-126477815D01*
X155918889Y-126506487D01*
X155638966Y-126591401D01*
X155380986Y-126729294D01*
X155154866Y-126914866D01*
X154969294Y-127140987D01*
X154940000Y-127195792D01*
X154910706Y-127140986D01*
X154725134Y-126914866D01*
X154499013Y-126729294D01*
X154241033Y-126591401D01*
X153961110Y-126506487D01*
X153670000Y-126477815D01*
X153378889Y-126506487D01*
X153098966Y-126591401D01*
X152840986Y-126729294D01*
X152614866Y-126914866D01*
X152429294Y-127140987D01*
X152400000Y-127195792D01*
X152370706Y-127140986D01*
X152185134Y-126914866D01*
X151959013Y-126729294D01*
X151701033Y-126591401D01*
X151421110Y-126506487D01*
X151130000Y-126477815D01*
X150838889Y-126506487D01*
X150558966Y-126591401D01*
X150300986Y-126729294D01*
X150074866Y-126914866D01*
X149889294Y-127140987D01*
X149860000Y-127195792D01*
X149830706Y-127140986D01*
X149645134Y-126914866D01*
X149419013Y-126729294D01*
X149161033Y-126591401D01*
X148881110Y-126506487D01*
X148590000Y-126477815D01*
X148298889Y-126506487D01*
X148018966Y-126591401D01*
X147760986Y-126729294D01*
X147534866Y-126914866D01*
X147349294Y-127140987D01*
X147320000Y-127195792D01*
X147290706Y-127140986D01*
X147105134Y-126914866D01*
X146879013Y-126729294D01*
X146621033Y-126591401D01*
X146341110Y-126506487D01*
X146050000Y-126477815D01*
X145758889Y-126506487D01*
X145478966Y-126591401D01*
X145220986Y-126729294D01*
X144994866Y-126914866D01*
X144809294Y-127140987D01*
X144778105Y-127199338D01*
X144674176Y-127039381D01*
X144470252Y-126830143D01*
X144229426Y-126664709D01*
X143960953Y-126549437D01*
X143866890Y-126528524D01*
X143637000Y-126649845D01*
X143383000Y-126649845D01*
X143153110Y-126528524D01*
X143059047Y-126549437D01*
X142790574Y-126664709D01*
X142549748Y-126830143D01*
X142345824Y-127039381D01*
X142241895Y-127199337D01*
X142210706Y-127140986D01*
X142025134Y-126914866D01*
X141799013Y-126729294D01*
X141541033Y-126591401D01*
X141261110Y-126506487D01*
X140970000Y-126477815D01*
X140678889Y-126506487D01*
X140398966Y-126591401D01*
X140140986Y-126729294D01*
X139914866Y-126914866D01*
X139729294Y-127140987D01*
X139700000Y-127195792D01*
X139670706Y-127140986D01*
X139485134Y-126914866D01*
X139259013Y-126729294D01*
X139001033Y-126591401D01*
X138721110Y-126506487D01*
X138430000Y-126477815D01*
X138138889Y-126506487D01*
X137858966Y-126591401D01*
X137600986Y-126729294D01*
X137374866Y-126914866D01*
X137189294Y-127140987D01*
X137160000Y-127195792D01*
X137130706Y-127140986D01*
X136945134Y-126914866D01*
X136719013Y-126729294D01*
X136461033Y-126591401D01*
X136181110Y-126506487D01*
X135890000Y-126477815D01*
X135598889Y-126506487D01*
X135318966Y-126591401D01*
X135060986Y-126729294D01*
X134834866Y-126914866D01*
X134810393Y-126944687D01*
X134789502Y-126875820D01*
X134730537Y-126765506D01*
X134651185Y-126668815D01*
X134554494Y-126589463D01*
X134444180Y-126530498D01*
X134324482Y-126494188D01*
X134200000Y-126481928D01*
X133635750Y-126485000D01*
X133477000Y-126643750D01*
X133223000Y-126643750D01*
X133064250Y-126485000D01*
X132500000Y-126481928D01*
X132375518Y-126494188D01*
X132255820Y-126530498D01*
X132145506Y-126589463D01*
X132048815Y-126668815D01*
X131969463Y-126765506D01*
X131910498Y-126875820D01*
X131874188Y-126995518D01*
X131861928Y-127120000D01*
X130342100Y-127120000D01*
X130350000Y-127039791D01*
X130350000Y-127039789D01*
X130353919Y-127000001D01*
X130350000Y-126960213D01*
X130350000Y-122047000D01*
X131953000Y-122047000D01*
X131953000Y-122547000D01*
X132004619Y-122817101D01*
X132107941Y-123071942D01*
X132258994Y-123301729D01*
X132451974Y-123497632D01*
X132679465Y-123652122D01*
X132932724Y-123759262D01*
X133006930Y-123774220D01*
X133223000Y-123651720D01*
X133223000Y-122047000D01*
X131953000Y-122047000D01*
X130350000Y-122047000D01*
X130350000Y-120985512D01*
X131145513Y-120190000D01*
X132676340Y-120190000D01*
X132451974Y-120342368D01*
X132258994Y-120538271D01*
X132107941Y-120768058D01*
X132004619Y-121022899D01*
X131953000Y-121293000D01*
X131953000Y-121793000D01*
X133223000Y-121793000D01*
X133223000Y-121773000D01*
X133477000Y-121773000D01*
X133477000Y-121793000D01*
X133497000Y-121793000D01*
X133497000Y-122047000D01*
X133477000Y-122047000D01*
X133477000Y-123651720D01*
X133693070Y-123774220D01*
X133767276Y-123759262D01*
X134020535Y-123652122D01*
X134248026Y-123497632D01*
X134441006Y-123301729D01*
X134592059Y-123071942D01*
X134618962Y-123005587D01*
X134722817Y-123199887D01*
X134897393Y-123412608D01*
X135110114Y-123587183D01*
X135352806Y-123716904D01*
X135616141Y-123796786D01*
X135890000Y-123823759D01*
X136163860Y-123796786D01*
X136427195Y-123716904D01*
X136669887Y-123587183D01*
X136882608Y-123412608D01*
X137057183Y-123199887D01*
X137160000Y-123007529D01*
X137262817Y-123199887D01*
X137437393Y-123412608D01*
X137650114Y-123587183D01*
X137892806Y-123716904D01*
X138156141Y-123796786D01*
X138430000Y-123823759D01*
X138703860Y-123796786D01*
X138967195Y-123716904D01*
X139209887Y-123587183D01*
X139422608Y-123412608D01*
X139597183Y-123199887D01*
X139700000Y-123007529D01*
X139802817Y-123199887D01*
X139977393Y-123412608D01*
X140190114Y-123587183D01*
X140432806Y-123716904D01*
X140696141Y-123796786D01*
X140970000Y-123823759D01*
X141243860Y-123796786D01*
X141507195Y-123716904D01*
X141749887Y-123587183D01*
X141962608Y-123412608D01*
X142137183Y-123199887D01*
X142241038Y-123005587D01*
X142267941Y-123071942D01*
X142418994Y-123301729D01*
X142611974Y-123497632D01*
X142839465Y-123652122D01*
X143092724Y-123759262D01*
X143166930Y-123774220D01*
X143383000Y-123651720D01*
X143383000Y-122047000D01*
X143363000Y-122047000D01*
X143363000Y-121793000D01*
X143383000Y-121793000D01*
X143383000Y-121773000D01*
X143637000Y-121773000D01*
X143637000Y-121793000D01*
X143657000Y-121793000D01*
X143657000Y-122047000D01*
X143637000Y-122047000D01*
X143637000Y-123651720D01*
X143853070Y-123774220D01*
X143927276Y-123759262D01*
X144180535Y-123652122D01*
X144408026Y-123497632D01*
X144601006Y-123301729D01*
X144752059Y-123071942D01*
X144778962Y-123005587D01*
X144882817Y-123199887D01*
X145057393Y-123412608D01*
X145270114Y-123587183D01*
X145512806Y-123716904D01*
X145776141Y-123796786D01*
X146050000Y-123823759D01*
X146323860Y-123796786D01*
X146587195Y-123716904D01*
X146829887Y-123587183D01*
X147042608Y-123412608D01*
X147217183Y-123199887D01*
X147320000Y-123007529D01*
X147422817Y-123199887D01*
X147597393Y-123412608D01*
X147810114Y-123587183D01*
X148052806Y-123716904D01*
X148316141Y-123796786D01*
X148590000Y-123823759D01*
X148863860Y-123796786D01*
X149127195Y-123716904D01*
X149369887Y-123587183D01*
X149582608Y-123412608D01*
X149757183Y-123199887D01*
X149860000Y-123007529D01*
X149962817Y-123199887D01*
X150137393Y-123412608D01*
X150350114Y-123587183D01*
X150592806Y-123716904D01*
X150856141Y-123796786D01*
X151130000Y-123823759D01*
X151403860Y-123796786D01*
X151667195Y-123716904D01*
X151909887Y-123587183D01*
X152122608Y-123412608D01*
X152297183Y-123199887D01*
X152400000Y-123007529D01*
X152502817Y-123199887D01*
X152677393Y-123412608D01*
X152890114Y-123587183D01*
X153132806Y-123716904D01*
X153396141Y-123796786D01*
X153670000Y-123823759D01*
X153943860Y-123796786D01*
X154207195Y-123716904D01*
X154449887Y-123587183D01*
X154662608Y-123412608D01*
X154837183Y-123199887D01*
X154940000Y-123007529D01*
X155042817Y-123199887D01*
X155217393Y-123412608D01*
X155430114Y-123587183D01*
X155672806Y-123716904D01*
X155936141Y-123796786D01*
X156210000Y-123823759D01*
X156483860Y-123796786D01*
X156747195Y-123716904D01*
X156989887Y-123587183D01*
X157202608Y-123412608D01*
X157377183Y-123199887D01*
X157480000Y-123007529D01*
X157582817Y-123199887D01*
X157757393Y-123412608D01*
X157970114Y-123587183D01*
X158212806Y-123716904D01*
X158476141Y-123796786D01*
X158750000Y-123823759D01*
X159023860Y-123796786D01*
X159287195Y-123716904D01*
X159529887Y-123587183D01*
X159742608Y-123412608D01*
X159917183Y-123199887D01*
X160046904Y-122957195D01*
X160126786Y-122693860D01*
X160147000Y-122488625D01*
X160147000Y-121351375D01*
X160126786Y-121146140D01*
X160046904Y-120882805D01*
X159917183Y-120640113D01*
X159742607Y-120427392D01*
X159529886Y-120252817D01*
X159287194Y-120123096D01*
X159023859Y-120043214D01*
X158750000Y-120016241D01*
X158476140Y-120043214D01*
X158212805Y-120123096D01*
X157970113Y-120252817D01*
X157757392Y-120427393D01*
X157582817Y-120640114D01*
X157480000Y-120832471D01*
X157377183Y-120640113D01*
X157202607Y-120427392D01*
X156989886Y-120252817D01*
X156747194Y-120123096D01*
X156483859Y-120043214D01*
X156210000Y-120016241D01*
X155936140Y-120043214D01*
X155672805Y-120123096D01*
X155430113Y-120252817D01*
X155217392Y-120427393D01*
X155042817Y-120640114D01*
X154940000Y-120832471D01*
X154837183Y-120640113D01*
X154662607Y-120427392D01*
X154449886Y-120252817D01*
X154207194Y-120123096D01*
X153943859Y-120043214D01*
X153670000Y-120016241D01*
X153396140Y-120043214D01*
X153132805Y-120123096D01*
X152890113Y-120252817D01*
X152677392Y-120427393D01*
X152502817Y-120640114D01*
X152400000Y-120832471D01*
X152297183Y-120640113D01*
X152122607Y-120427392D01*
X151909886Y-120252817D01*
X151667194Y-120123096D01*
X151403859Y-120043214D01*
X151130000Y-120016241D01*
X150856140Y-120043214D01*
X150592805Y-120123096D01*
X150350113Y-120252817D01*
X150137392Y-120427393D01*
X149962817Y-120640114D01*
X149860000Y-120832471D01*
X149757183Y-120640113D01*
X149582607Y-120427392D01*
X149369886Y-120252817D01*
X149266573Y-120197595D01*
X149190893Y-120105380D01*
X149165528Y-120074472D01*
X149134618Y-120049105D01*
X147920899Y-118835387D01*
X147895528Y-118804472D01*
X147772189Y-118703251D01*
X147631473Y-118628037D01*
X147478788Y-118581720D01*
X147359791Y-118570000D01*
X147359788Y-118570000D01*
X147320000Y-118566081D01*
X147280212Y-118570000D01*
X130849787Y-118570000D01*
X130809999Y-118566081D01*
X130770211Y-118570000D01*
X130770209Y-118570000D01*
X130651212Y-118581720D01*
X130498527Y-118628037D01*
X130448794Y-118654620D01*
X130357810Y-118703251D01*
X130302210Y-118748881D01*
X130234472Y-118804472D01*
X130209107Y-118835380D01*
X128995387Y-120049101D01*
X128964472Y-120074472D01*
X128894703Y-120159487D01*
X128863251Y-120197811D01*
X128857263Y-120209014D01*
X128788037Y-120338528D01*
X128741720Y-120491213D01*
X128730000Y-120610209D01*
X128726081Y-120650000D01*
X128730000Y-120689788D01*
X128730001Y-126664486D01*
X127934488Y-127460000D01*
X113157114Y-127460000D01*
X113138599Y-127398966D01*
X113000706Y-127140986D01*
X112815134Y-126914866D01*
X112589013Y-126729294D01*
X112570000Y-126719131D01*
X112570000Y-124499787D01*
X112573919Y-124459999D01*
X112570000Y-124420209D01*
X112558280Y-124301212D01*
X112511963Y-124148527D01*
X112476951Y-124083024D01*
X112436749Y-124007810D01*
X112382708Y-123941962D01*
X112335528Y-123884472D01*
X112304618Y-123859105D01*
X111090899Y-122645387D01*
X111065528Y-122614472D01*
X110942189Y-122513251D01*
X110801473Y-122438037D01*
X110648788Y-122391720D01*
X110529791Y-122380000D01*
X110529788Y-122380000D01*
X110490000Y-122376081D01*
X110450212Y-122380000D01*
X105745513Y-122380000D01*
X105193646Y-121828133D01*
X105338932Y-121651101D01*
X105472182Y-121401807D01*
X105554236Y-121131308D01*
X105575000Y-120920491D01*
X105575000Y-120379508D01*
X105554236Y-120168691D01*
X105472182Y-119898192D01*
X105338932Y-119648899D01*
X105159607Y-119430392D01*
X104941231Y-119251176D01*
X104938280Y-119221212D01*
X104891963Y-119068527D01*
X104816750Y-118927812D01*
X104816749Y-118927810D01*
X104740893Y-118835380D01*
X104715528Y-118804472D01*
X104684619Y-118779106D01*
X103470899Y-117565387D01*
X103445528Y-117534472D01*
X103322189Y-117433251D01*
X103181473Y-117358037D01*
X103028788Y-117311720D01*
X102909791Y-117300000D01*
X102909788Y-117300000D01*
X102870000Y-117296081D01*
X102830212Y-117300000D01*
X96559787Y-117300000D01*
X96519999Y-117296081D01*
X96480211Y-117300000D01*
X96480209Y-117300000D01*
X96361212Y-117311720D01*
X96208527Y-117358037D01*
X96143024Y-117393049D01*
X96067810Y-117433251D01*
X96012210Y-117478881D01*
X95944472Y-117534472D01*
X95919105Y-117565382D01*
X94705383Y-118779105D01*
X94674473Y-118804472D01*
X94649108Y-118835380D01*
X94573251Y-118927811D01*
X94515550Y-119035764D01*
X94498038Y-119068527D01*
X94478010Y-119134549D01*
X94473513Y-119088889D01*
X94388599Y-118808966D01*
X94250706Y-118550986D01*
X94065134Y-118324866D01*
X93839014Y-118139294D01*
X93780663Y-118108105D01*
X93940619Y-118004176D01*
X94149857Y-117800252D01*
X94315291Y-117559426D01*
X94430563Y-117290953D01*
X94451476Y-117196890D01*
X94330155Y-116967000D01*
X92837000Y-116967000D01*
X92837000Y-116987000D01*
X92583000Y-116987000D01*
X92583000Y-116967000D01*
X91089845Y-116967000D01*
X90968524Y-117196890D01*
X90989437Y-117290953D01*
X91104709Y-117559426D01*
X91270143Y-117800252D01*
X91479381Y-118004176D01*
X91639337Y-118108105D01*
X91580986Y-118139294D01*
X91354866Y-118324866D01*
X91169294Y-118550986D01*
X91031401Y-118808966D01*
X90946487Y-119088889D01*
X90917815Y-119380000D01*
X89560000Y-119380000D01*
X89560000Y-113450000D01*
X90921928Y-113450000D01*
X90921928Y-115150000D01*
X90934188Y-115274482D01*
X90970498Y-115394180D01*
X91029463Y-115504494D01*
X91108815Y-115601185D01*
X91205506Y-115680537D01*
X91315820Y-115739502D01*
X91390728Y-115762225D01*
X91270143Y-115879748D01*
X91104709Y-116120574D01*
X90989437Y-116389047D01*
X90968524Y-116483110D01*
X91089845Y-116713000D01*
X92583000Y-116713000D01*
X92583000Y-116693000D01*
X92837000Y-116693000D01*
X92837000Y-116713000D01*
X94330155Y-116713000D01*
X94451476Y-116483110D01*
X94430563Y-116389047D01*
X94315291Y-116120574D01*
X94149857Y-115879748D01*
X94029272Y-115762225D01*
X94104180Y-115739502D01*
X94214494Y-115680537D01*
X94311185Y-115601185D01*
X94390537Y-115504494D01*
X94449502Y-115394180D01*
X94485812Y-115274482D01*
X94498072Y-115150000D01*
X94498072Y-113450000D01*
X94485812Y-113325518D01*
X94449502Y-113205820D01*
X94390537Y-113095506D01*
X94311185Y-112998815D01*
X94214494Y-112919463D01*
X94104180Y-112860498D01*
X93984482Y-112824188D01*
X93860000Y-112811928D01*
X91560000Y-112811928D01*
X91435518Y-112824188D01*
X91315820Y-112860498D01*
X91205506Y-112919463D01*
X91108815Y-112998815D01*
X91029463Y-113095506D01*
X90970498Y-113205820D01*
X90934188Y-113325518D01*
X90921928Y-113450000D01*
X89560000Y-113450000D01*
X89560000Y-112759509D01*
X97625000Y-112759509D01*
X97625000Y-113300492D01*
X97645764Y-113511309D01*
X97727818Y-113781808D01*
X97861068Y-114031101D01*
X98040393Y-114249608D01*
X98258900Y-114428932D01*
X98508193Y-114562182D01*
X98778692Y-114644236D01*
X99060000Y-114671943D01*
X99341309Y-114644236D01*
X99611808Y-114562182D01*
X99861101Y-114428932D01*
X100079608Y-114249608D01*
X100258932Y-114031101D01*
X100392182Y-113781807D01*
X100474236Y-113511308D01*
X100495000Y-113300491D01*
X100495000Y-112759509D01*
X102705000Y-112759509D01*
X102705000Y-113300492D01*
X102725764Y-113511309D01*
X102807818Y-113781808D01*
X102941068Y-114031101D01*
X103120393Y-114249608D01*
X103338900Y-114428932D01*
X103588193Y-114562182D01*
X103858692Y-114644236D01*
X104140000Y-114671943D01*
X104421309Y-114644236D01*
X104691808Y-114562182D01*
X104941101Y-114428932D01*
X105159608Y-114249608D01*
X105338932Y-114031101D01*
X105441077Y-113840000D01*
X106344488Y-113840000D01*
X107140000Y-114635513D01*
X107140001Y-119224827D01*
X106907748Y-119380013D01*
X106680013Y-119607748D01*
X106501082Y-119875537D01*
X106377832Y-120173088D01*
X106315000Y-120488967D01*
X106315000Y-120811033D01*
X106377832Y-121126912D01*
X106501082Y-121424463D01*
X106680013Y-121692252D01*
X106907748Y-121919987D01*
X107175537Y-122098918D01*
X107473088Y-122222168D01*
X107788967Y-122285000D01*
X108111033Y-122285000D01*
X108426912Y-122222168D01*
X108724463Y-122098918D01*
X108992252Y-121919987D01*
X109219987Y-121692252D01*
X109398918Y-121424463D01*
X109522168Y-121126912D01*
X109585000Y-120811033D01*
X109585000Y-120488967D01*
X109563228Y-120379508D01*
X110325000Y-120379508D01*
X110325000Y-120920491D01*
X110345764Y-121131308D01*
X110427818Y-121401807D01*
X110561068Y-121651100D01*
X110740392Y-121869607D01*
X110958899Y-122048932D01*
X111208192Y-122182182D01*
X111478691Y-122264236D01*
X111760000Y-122291943D01*
X112041308Y-122264236D01*
X112311807Y-122182182D01*
X112561100Y-122048932D01*
X112779607Y-121869608D01*
X112958932Y-121651101D01*
X113092182Y-121401808D01*
X113174236Y-121131309D01*
X113195000Y-120920492D01*
X113195000Y-120379509D01*
X113195000Y-120379508D01*
X115405000Y-120379508D01*
X115405000Y-120920491D01*
X115425764Y-121131308D01*
X115507818Y-121401807D01*
X115641068Y-121651100D01*
X115820392Y-121869607D01*
X116038899Y-122048932D01*
X116288192Y-122182182D01*
X116558691Y-122264236D01*
X116840000Y-122291943D01*
X117121308Y-122264236D01*
X117391807Y-122182182D01*
X117641100Y-122048932D01*
X117859607Y-121869608D01*
X118038932Y-121651101D01*
X118172182Y-121401808D01*
X118254236Y-121131309D01*
X118275000Y-120920492D01*
X118275000Y-120379509D01*
X118254236Y-120168692D01*
X118172182Y-119898193D01*
X118038932Y-119648899D01*
X117859608Y-119430392D01*
X117641101Y-119251068D01*
X117391808Y-119117818D01*
X117121309Y-119035764D01*
X116840000Y-119008057D01*
X116558692Y-119035764D01*
X116288193Y-119117818D01*
X116038900Y-119251068D01*
X115820393Y-119430392D01*
X115641068Y-119648899D01*
X115507818Y-119898192D01*
X115425764Y-120168691D01*
X115405000Y-120379508D01*
X113195000Y-120379508D01*
X113174236Y-120168692D01*
X113092182Y-119898193D01*
X112958932Y-119648899D01*
X112779608Y-119430392D01*
X112561101Y-119251068D01*
X112311808Y-119117818D01*
X112041309Y-119035764D01*
X111760000Y-119008057D01*
X111478692Y-119035764D01*
X111208193Y-119117818D01*
X110958900Y-119251068D01*
X110740393Y-119430392D01*
X110561068Y-119648899D01*
X110427818Y-119898192D01*
X110345764Y-120168691D01*
X110325000Y-120379508D01*
X109563228Y-120379508D01*
X109522168Y-120173088D01*
X109398918Y-119875537D01*
X109219987Y-119607748D01*
X108992252Y-119380013D01*
X108760000Y-119224827D01*
X108760000Y-114339787D01*
X108763919Y-114299999D01*
X108758956Y-114249607D01*
X108748280Y-114141212D01*
X108701963Y-113988527D01*
X108626750Y-113847812D01*
X108626749Y-113847810D01*
X108572581Y-113781807D01*
X108525528Y-113724472D01*
X108494619Y-113699106D01*
X107555021Y-112759508D01*
X110325000Y-112759508D01*
X110325000Y-113300491D01*
X110345764Y-113511308D01*
X110427818Y-113781807D01*
X110561068Y-114031100D01*
X110740392Y-114249607D01*
X110958899Y-114428932D01*
X111208192Y-114562182D01*
X111478691Y-114644236D01*
X111760000Y-114671943D01*
X112041308Y-114644236D01*
X112311807Y-114562182D01*
X112561100Y-114428932D01*
X112779607Y-114249608D01*
X112958932Y-114031101D01*
X113092182Y-113781808D01*
X113174236Y-113511309D01*
X113195000Y-113300492D01*
X113195000Y-112759509D01*
X113174236Y-112548692D01*
X113092182Y-112278193D01*
X112958932Y-112028899D01*
X112779608Y-111810392D01*
X112561101Y-111631068D01*
X112311808Y-111497818D01*
X112041309Y-111415764D01*
X111760000Y-111388057D01*
X111478692Y-111415764D01*
X111208193Y-111497818D01*
X110958900Y-111631068D01*
X110740393Y-111810392D01*
X110561068Y-112028899D01*
X110427818Y-112278192D01*
X110345764Y-112548691D01*
X110325000Y-112759508D01*
X107555021Y-112759508D01*
X107280899Y-112485387D01*
X107255528Y-112454472D01*
X107132189Y-112353251D01*
X106991473Y-112278037D01*
X106838788Y-112231720D01*
X106719791Y-112220000D01*
X106719788Y-112220000D01*
X106680000Y-112216081D01*
X106640212Y-112220000D01*
X105441078Y-112220000D01*
X105338932Y-112028899D01*
X105159607Y-111810392D01*
X104941100Y-111631068D01*
X104691807Y-111497818D01*
X104421308Y-111415764D01*
X104140000Y-111388057D01*
X103858691Y-111415764D01*
X103588192Y-111497818D01*
X103338899Y-111631068D01*
X103120392Y-111810393D01*
X102941068Y-112028900D01*
X102807818Y-112278193D01*
X102725764Y-112548692D01*
X102705000Y-112759509D01*
X100495000Y-112759509D01*
X100495000Y-112759508D01*
X100474236Y-112548691D01*
X100392182Y-112278192D01*
X100258932Y-112028899D01*
X100079607Y-111810392D01*
X99861100Y-111631068D01*
X99611807Y-111497818D01*
X99341308Y-111415764D01*
X99060000Y-111388057D01*
X98778691Y-111415764D01*
X98508192Y-111497818D01*
X98258899Y-111631068D01*
X98040392Y-111810393D01*
X97861068Y-112028900D01*
X97727818Y-112278193D01*
X97645764Y-112548692D01*
X97625000Y-112759509D01*
X89560000Y-112759509D01*
X89560000Y-108800000D01*
X90921928Y-108800000D01*
X90934188Y-108924482D01*
X90970498Y-109044180D01*
X91029463Y-109154494D01*
X91108815Y-109251185D01*
X91205506Y-109330537D01*
X91315820Y-109389502D01*
X91435518Y-109425812D01*
X91560000Y-109438072D01*
X92424250Y-109435000D01*
X92583000Y-109276250D01*
X92583000Y-108077000D01*
X92837000Y-108077000D01*
X92837000Y-109276250D01*
X92995750Y-109435000D01*
X93860000Y-109438072D01*
X93984482Y-109425812D01*
X94104180Y-109389502D01*
X94214494Y-109330537D01*
X94311185Y-109251185D01*
X94390537Y-109154494D01*
X94449502Y-109044180D01*
X94485812Y-108924482D01*
X94498072Y-108800000D01*
X94495000Y-108235750D01*
X94336250Y-108077000D01*
X92837000Y-108077000D01*
X92583000Y-108077000D01*
X91083750Y-108077000D01*
X90925000Y-108235750D01*
X90921928Y-108800000D01*
X89560000Y-108800000D01*
X89560000Y-105410000D01*
X90917815Y-105410000D01*
X90946487Y-105701111D01*
X91031401Y-105981034D01*
X91169294Y-106239014D01*
X91354866Y-106465134D01*
X91384687Y-106489607D01*
X91315820Y-106510498D01*
X91205506Y-106569463D01*
X91108815Y-106648815D01*
X91029463Y-106745506D01*
X90970498Y-106855820D01*
X90934188Y-106975518D01*
X90921928Y-107100000D01*
X90925000Y-107664250D01*
X91083750Y-107823000D01*
X92583000Y-107823000D01*
X92583000Y-107803000D01*
X92837000Y-107803000D01*
X92837000Y-107823000D01*
X94336250Y-107823000D01*
X94495000Y-107664250D01*
X94498072Y-107100000D01*
X94485812Y-106975518D01*
X94449502Y-106855820D01*
X94390537Y-106745506D01*
X94311185Y-106648815D01*
X94214494Y-106569463D01*
X94104180Y-106510498D01*
X94035313Y-106489607D01*
X94065134Y-106465134D01*
X94250706Y-106239014D01*
X94260869Y-106220000D01*
X106640212Y-106220000D01*
X106680000Y-106223919D01*
X106719788Y-106220000D01*
X106719791Y-106220000D01*
X106838788Y-106208280D01*
X106991473Y-106161963D01*
X107132189Y-106086749D01*
X107255528Y-105985528D01*
X107280899Y-105954613D01*
X108494618Y-104740895D01*
X108525528Y-104715528D01*
X108581119Y-104647790D01*
X108626749Y-104592190D01*
X108701962Y-104451474D01*
X108701963Y-104451473D01*
X108748280Y-104298788D01*
X108760000Y-104179791D01*
X108760000Y-104179789D01*
X108763919Y-104140001D01*
X108760000Y-104100213D01*
X108760000Y-96814360D01*
X108894078Y-97006317D01*
X109126046Y-97228895D01*
X109396980Y-97401942D01*
X109696468Y-97518807D01*
X110013000Y-97575000D01*
X110363000Y-97575000D01*
X110363000Y-96067000D01*
X110617000Y-96067000D01*
X110617000Y-97575000D01*
X110967000Y-97575000D01*
X111283532Y-97518807D01*
X111583020Y-97401942D01*
X111853954Y-97228895D01*
X112085922Y-97006317D01*
X112270010Y-96742761D01*
X112399144Y-96448355D01*
X112430124Y-96320434D01*
X115049876Y-96320434D01*
X115080856Y-96448355D01*
X115209990Y-96742761D01*
X115394078Y-97006317D01*
X115626046Y-97228895D01*
X115896980Y-97401942D01*
X116196468Y-97518807D01*
X116513000Y-97575000D01*
X116863000Y-97575000D01*
X116863000Y-96067000D01*
X115169223Y-96067000D01*
X115049876Y-96320434D01*
X112430124Y-96320434D01*
X112310777Y-96067000D01*
X110617000Y-96067000D01*
X110363000Y-96067000D01*
X110343000Y-96067000D01*
X110343000Y-95813000D01*
X110363000Y-95813000D01*
X110363000Y-94305000D01*
X110617000Y-94305000D01*
X110617000Y-95813000D01*
X112310777Y-95813000D01*
X112430124Y-95559566D01*
X115049876Y-95559566D01*
X115169223Y-95813000D01*
X116863000Y-95813000D01*
X116863000Y-94305000D01*
X116513000Y-94305000D01*
X116196468Y-94361193D01*
X115896980Y-94478058D01*
X115626046Y-94651105D01*
X115394078Y-94873683D01*
X115209990Y-95137239D01*
X115080856Y-95431645D01*
X115049876Y-95559566D01*
X112430124Y-95559566D01*
X112399144Y-95431645D01*
X112270010Y-95137239D01*
X112085922Y-94873683D01*
X111853954Y-94651105D01*
X111583020Y-94478058D01*
X111283532Y-94361193D01*
X110967000Y-94305000D01*
X110617000Y-94305000D01*
X110363000Y-94305000D01*
X110013000Y-94305000D01*
X109696468Y-94361193D01*
X109396980Y-94478058D01*
X109126046Y-94651105D01*
X108894078Y-94873683D01*
X108760000Y-95065640D01*
X108760000Y-92615512D01*
X108886113Y-92489400D01*
X108978286Y-92601714D01*
X109227248Y-92806031D01*
X109511285Y-92957852D01*
X109819484Y-93051343D01*
X110059678Y-93075000D01*
X110920322Y-93075000D01*
X111160516Y-93051343D01*
X111468715Y-92957852D01*
X111752752Y-92806031D01*
X112001714Y-92601714D01*
X112206031Y-92352752D01*
X112260953Y-92250000D01*
X115219047Y-92250000D01*
X115273969Y-92352752D01*
X115478286Y-92601714D01*
X115727248Y-92806031D01*
X116011285Y-92957852D01*
X116319484Y-93051343D01*
X116559678Y-93075000D01*
X117420322Y-93075000D01*
X117660516Y-93051343D01*
X117968715Y-92957852D01*
X118252752Y-92806031D01*
X118501714Y-92601714D01*
X118570000Y-92518507D01*
X118570000Y-94858406D01*
X118353954Y-94651105D01*
X118083020Y-94478058D01*
X117783532Y-94361193D01*
X117467000Y-94305000D01*
X117117000Y-94305000D01*
X117117000Y-95813000D01*
X117137000Y-95813000D01*
X117137000Y-96067000D01*
X117117000Y-96067000D01*
X117117000Y-97575000D01*
X117467000Y-97575000D01*
X117783532Y-97518807D01*
X118083020Y-97401942D01*
X118353954Y-97228895D01*
X118570000Y-97021594D01*
X118570001Y-111424486D01*
X118005872Y-111988615D01*
X117859608Y-111810392D01*
X117641101Y-111631068D01*
X117391808Y-111497818D01*
X117121309Y-111415764D01*
X116840000Y-111388057D01*
X116558692Y-111415764D01*
X116288193Y-111497818D01*
X116038900Y-111631068D01*
X115820393Y-111810392D01*
X115641068Y-112028899D01*
X115507818Y-112278192D01*
X115425764Y-112548691D01*
X115405000Y-112759508D01*
X115405000Y-113300491D01*
X115425764Y-113511308D01*
X115507818Y-113781807D01*
X115641068Y-114031100D01*
X115820392Y-114249607D01*
X116038899Y-114428932D01*
X116288192Y-114562182D01*
X116558691Y-114644236D01*
X116840000Y-114671943D01*
X117121308Y-114644236D01*
X117391807Y-114562182D01*
X117641100Y-114428932D01*
X117859607Y-114249608D01*
X118038932Y-114031101D01*
X118140594Y-113840906D01*
X118149788Y-113840000D01*
X118149791Y-113840000D01*
X118268788Y-113828280D01*
X118421473Y-113781963D01*
X118562189Y-113706749D01*
X118685528Y-113605528D01*
X118710899Y-113574613D01*
X119924618Y-112360895D01*
X119955528Y-112335528D01*
X120040720Y-112231721D01*
X120056749Y-112212190D01*
X120131962Y-112071474D01*
X120131963Y-112071473D01*
X120178280Y-111918788D01*
X120190000Y-111799791D01*
X120190000Y-111799789D01*
X120193919Y-111760001D01*
X120190000Y-111720213D01*
X120190000Y-94100000D01*
X121701928Y-94100000D01*
X121701928Y-96400000D01*
X121714188Y-96524482D01*
X121750498Y-96644180D01*
X121809463Y-96754494D01*
X121888815Y-96851185D01*
X121985506Y-96930537D01*
X122095820Y-96989502D01*
X122215518Y-97025812D01*
X122340000Y-97038072D01*
X122380000Y-97038072D01*
X122380001Y-111720202D01*
X122376081Y-111760000D01*
X122381045Y-111810393D01*
X122391721Y-111918788D01*
X122427700Y-112037392D01*
X122438038Y-112071473D01*
X122513251Y-112212189D01*
X122567419Y-112278192D01*
X122614473Y-112335528D01*
X122645383Y-112360895D01*
X123859105Y-113574618D01*
X123884472Y-113605528D01*
X123952210Y-113661119D01*
X124007810Y-113706749D01*
X124083024Y-113746951D01*
X124148527Y-113781963D01*
X124301212Y-113828280D01*
X124420209Y-113840000D01*
X124420211Y-113840000D01*
X124459999Y-113843919D01*
X124499787Y-113840000D01*
X139962530Y-113840000D01*
X140112392Y-114022608D01*
X140325113Y-114197183D01*
X140567805Y-114326904D01*
X140831140Y-114406786D01*
X141036375Y-114427000D01*
X142173625Y-114427000D01*
X142378860Y-114406786D01*
X142642195Y-114326904D01*
X142884887Y-114197183D01*
X143097608Y-114022608D01*
X143272183Y-113809887D01*
X143401904Y-113567195D01*
X143481786Y-113303860D01*
X143508759Y-113030000D01*
X143481786Y-112756140D01*
X143401904Y-112492805D01*
X143272183Y-112250113D01*
X143097608Y-112037392D01*
X142884887Y-111862817D01*
X142692529Y-111760000D01*
X142884887Y-111657183D01*
X143097608Y-111482608D01*
X143272183Y-111269887D01*
X143401904Y-111027195D01*
X143481786Y-110763860D01*
X143508759Y-110490000D01*
X143481786Y-110216140D01*
X143401904Y-109952805D01*
X143272183Y-109710113D01*
X143097608Y-109497392D01*
X142884887Y-109322817D01*
X142642195Y-109193096D01*
X142378860Y-109113214D01*
X142173625Y-109093000D01*
X141036375Y-109093000D01*
X140831140Y-109113214D01*
X140567805Y-109193096D01*
X140325113Y-109322817D01*
X140112392Y-109497392D01*
X139962530Y-109680000D01*
X127335513Y-109680000D01*
X126540000Y-108884488D01*
X126540000Y-101727000D01*
X131953000Y-101727000D01*
X131953000Y-102227000D01*
X132004619Y-102497101D01*
X132107941Y-102751942D01*
X132258994Y-102981729D01*
X132451974Y-103177632D01*
X132679465Y-103332122D01*
X132932724Y-103439262D01*
X133006930Y-103454220D01*
X133223000Y-103331720D01*
X133223000Y-101727000D01*
X131953000Y-101727000D01*
X126540000Y-101727000D01*
X126540000Y-100973000D01*
X131953000Y-100973000D01*
X131953000Y-101473000D01*
X133223000Y-101473000D01*
X133223000Y-99868280D01*
X133477000Y-99868280D01*
X133477000Y-101473000D01*
X133497000Y-101473000D01*
X133497000Y-101727000D01*
X133477000Y-101727000D01*
X133477000Y-103331720D01*
X133693070Y-103454220D01*
X133767276Y-103439262D01*
X134020535Y-103332122D01*
X134248026Y-103177632D01*
X134441006Y-102981729D01*
X134592059Y-102751942D01*
X134618962Y-102685587D01*
X134722817Y-102879887D01*
X134897393Y-103092608D01*
X135110114Y-103267183D01*
X135352806Y-103396904D01*
X135616141Y-103476786D01*
X135890000Y-103503759D01*
X136163860Y-103476786D01*
X136427195Y-103396904D01*
X136669887Y-103267183D01*
X136882608Y-103092608D01*
X137057183Y-102879887D01*
X137160000Y-102687529D01*
X137262817Y-102879887D01*
X137437393Y-103092608D01*
X137650114Y-103267183D01*
X137892806Y-103396904D01*
X138156141Y-103476786D01*
X138430000Y-103503759D01*
X138703860Y-103476786D01*
X138967195Y-103396904D01*
X139209887Y-103267183D01*
X139422608Y-103092608D01*
X139597183Y-102879887D01*
X139700000Y-102687529D01*
X139802817Y-102879887D01*
X139977393Y-103092608D01*
X140190114Y-103267183D01*
X140432806Y-103396904D01*
X140696141Y-103476786D01*
X140970000Y-103503759D01*
X141243860Y-103476786D01*
X141507195Y-103396904D01*
X141749887Y-103267183D01*
X141962608Y-103092608D01*
X142137183Y-102879887D01*
X142240000Y-102687529D01*
X142342817Y-102879887D01*
X142517393Y-103092608D01*
X142730114Y-103267183D01*
X142972806Y-103396904D01*
X143236141Y-103476786D01*
X143510000Y-103503759D01*
X143783860Y-103476786D01*
X144047195Y-103396904D01*
X144289887Y-103267183D01*
X144502608Y-103092608D01*
X144677183Y-102879887D01*
X144780000Y-102687529D01*
X144882817Y-102879887D01*
X145057393Y-103092608D01*
X145270114Y-103267183D01*
X145512806Y-103396904D01*
X145776141Y-103476786D01*
X146050000Y-103503759D01*
X146323860Y-103476786D01*
X146587195Y-103396904D01*
X146829887Y-103267183D01*
X147042608Y-103092608D01*
X147217183Y-102879887D01*
X147320000Y-102687529D01*
X147422817Y-102879887D01*
X147597393Y-103092608D01*
X147810114Y-103267183D01*
X148052806Y-103396904D01*
X148316141Y-103476786D01*
X148590000Y-103503759D01*
X148863860Y-103476786D01*
X149127195Y-103396904D01*
X149369887Y-103267183D01*
X149582608Y-103092608D01*
X149757183Y-102879887D01*
X149860000Y-102687529D01*
X149962817Y-102879887D01*
X150137393Y-103092608D01*
X150350114Y-103267183D01*
X150592806Y-103396904D01*
X150856141Y-103476786D01*
X151130000Y-103503759D01*
X151403860Y-103476786D01*
X151667195Y-103396904D01*
X151909887Y-103267183D01*
X152122608Y-103092608D01*
X152297183Y-102879887D01*
X152400000Y-102687529D01*
X152502817Y-102879887D01*
X152677393Y-103092608D01*
X152890114Y-103267183D01*
X153132806Y-103396904D01*
X153396141Y-103476786D01*
X153670000Y-103503759D01*
X153943860Y-103476786D01*
X154207195Y-103396904D01*
X154449887Y-103267183D01*
X154662608Y-103092608D01*
X154837183Y-102879887D01*
X154940000Y-102687529D01*
X155042817Y-102879887D01*
X155217393Y-103092608D01*
X155430114Y-103267183D01*
X155672806Y-103396904D01*
X155936141Y-103476786D01*
X156210000Y-103503759D01*
X156483860Y-103476786D01*
X156747195Y-103396904D01*
X156989887Y-103267183D01*
X157202608Y-103092608D01*
X157377183Y-102879887D01*
X157480000Y-102687529D01*
X157582817Y-102879887D01*
X157757393Y-103092608D01*
X157970114Y-103267183D01*
X158212806Y-103396904D01*
X158476141Y-103476786D01*
X158750000Y-103503759D01*
X159023860Y-103476786D01*
X159287195Y-103396904D01*
X159529887Y-103267183D01*
X159742608Y-103092608D01*
X159917183Y-102879887D01*
X160046904Y-102637195D01*
X160126786Y-102373860D01*
X160147000Y-102168625D01*
X160147000Y-101031375D01*
X160126786Y-100826140D01*
X160046904Y-100562805D01*
X159917183Y-100320113D01*
X159742607Y-100107392D01*
X159529886Y-99932817D01*
X159287194Y-99803096D01*
X159023859Y-99723214D01*
X158750000Y-99696241D01*
X158476140Y-99723214D01*
X158212805Y-99803096D01*
X157970113Y-99932817D01*
X157757392Y-100107393D01*
X157582817Y-100320114D01*
X157480000Y-100512471D01*
X157377183Y-100320113D01*
X157202607Y-100107392D01*
X156989886Y-99932817D01*
X156747194Y-99803096D01*
X156483859Y-99723214D01*
X156210000Y-99696241D01*
X155936140Y-99723214D01*
X155672805Y-99803096D01*
X155430113Y-99932817D01*
X155217392Y-100107393D01*
X155042817Y-100320114D01*
X154940000Y-100512471D01*
X154837183Y-100320113D01*
X154662607Y-100107392D01*
X154449886Y-99932817D01*
X154207194Y-99803096D01*
X153943859Y-99723214D01*
X153670000Y-99696241D01*
X153396140Y-99723214D01*
X153132805Y-99803096D01*
X152890113Y-99932817D01*
X152677392Y-100107393D01*
X152502817Y-100320114D01*
X152400000Y-100512471D01*
X152297183Y-100320113D01*
X152122607Y-100107392D01*
X151909886Y-99932817D01*
X151667194Y-99803096D01*
X151403859Y-99723214D01*
X151130000Y-99696241D01*
X150856140Y-99723214D01*
X150592805Y-99803096D01*
X150350113Y-99932817D01*
X150137392Y-100107393D01*
X149962817Y-100320114D01*
X149860000Y-100512471D01*
X149757183Y-100320113D01*
X149582607Y-100107392D01*
X149369886Y-99932817D01*
X149127194Y-99803096D01*
X148863859Y-99723214D01*
X148590000Y-99696241D01*
X148316140Y-99723214D01*
X148052805Y-99803096D01*
X147810113Y-99932817D01*
X147597392Y-100107393D01*
X147422817Y-100320114D01*
X147320000Y-100512471D01*
X147217183Y-100320113D01*
X147042607Y-100107392D01*
X146829886Y-99932817D01*
X146587194Y-99803096D01*
X146323859Y-99723214D01*
X146050000Y-99696241D01*
X145776140Y-99723214D01*
X145512805Y-99803096D01*
X145270113Y-99932817D01*
X145057392Y-100107393D01*
X144882817Y-100320114D01*
X144780000Y-100512471D01*
X144677183Y-100320113D01*
X144502607Y-100107392D01*
X144289886Y-99932817D01*
X144047194Y-99803096D01*
X143783859Y-99723214D01*
X143510000Y-99696241D01*
X143236140Y-99723214D01*
X142972805Y-99803096D01*
X142730113Y-99932817D01*
X142517392Y-100107393D01*
X142342817Y-100320114D01*
X142240000Y-100512471D01*
X142137183Y-100320113D01*
X141962607Y-100107392D01*
X141749886Y-99932817D01*
X141507194Y-99803096D01*
X141243859Y-99723214D01*
X140970000Y-99696241D01*
X140696140Y-99723214D01*
X140432805Y-99803096D01*
X140190113Y-99932817D01*
X139977392Y-100107393D01*
X139802817Y-100320114D01*
X139700000Y-100512471D01*
X139597183Y-100320113D01*
X139422607Y-100107392D01*
X139209886Y-99932817D01*
X138967194Y-99803096D01*
X138703859Y-99723214D01*
X138430000Y-99696241D01*
X138156140Y-99723214D01*
X137892805Y-99803096D01*
X137650113Y-99932817D01*
X137437392Y-100107393D01*
X137262817Y-100320114D01*
X137160000Y-100512471D01*
X137057183Y-100320113D01*
X136882607Y-100107392D01*
X136669886Y-99932817D01*
X136427194Y-99803096D01*
X136163859Y-99723214D01*
X135890000Y-99696241D01*
X135616140Y-99723214D01*
X135352805Y-99803096D01*
X135110113Y-99932817D01*
X134897392Y-100107393D01*
X134722817Y-100320114D01*
X134618962Y-100514414D01*
X134592059Y-100448058D01*
X134441006Y-100218271D01*
X134248026Y-100022368D01*
X134020535Y-99867878D01*
X133767276Y-99760738D01*
X133693070Y-99745780D01*
X133477000Y-99868280D01*
X133223000Y-99868280D01*
X133006930Y-99745780D01*
X132932724Y-99760738D01*
X132679465Y-99867878D01*
X132451974Y-100022368D01*
X132258994Y-100218271D01*
X132107941Y-100448058D01*
X132004619Y-100702899D01*
X131953000Y-100973000D01*
X126540000Y-100973000D01*
X126540000Y-96800869D01*
X126559014Y-96790706D01*
X126785134Y-96605134D01*
X126953483Y-96400000D01*
X131861928Y-96400000D01*
X131874188Y-96524482D01*
X131910498Y-96644180D01*
X131969463Y-96754494D01*
X132048815Y-96851185D01*
X132145506Y-96930537D01*
X132255820Y-96989502D01*
X132375518Y-97025812D01*
X132500000Y-97038072D01*
X133064250Y-97035000D01*
X133223000Y-96876250D01*
X133223000Y-95377000D01*
X132023750Y-95377000D01*
X131865000Y-95535750D01*
X131861928Y-96400000D01*
X126953483Y-96400000D01*
X126970706Y-96379014D01*
X127108599Y-96121034D01*
X127193513Y-95841110D01*
X127215000Y-95622949D01*
X127215000Y-94877050D01*
X127193513Y-94658889D01*
X127108599Y-94378966D01*
X126970706Y-94120986D01*
X126953484Y-94100000D01*
X131861928Y-94100000D01*
X131865000Y-94964250D01*
X132023750Y-95123000D01*
X133223000Y-95123000D01*
X133223000Y-93623750D01*
X133477000Y-93623750D01*
X133477000Y-95123000D01*
X133497000Y-95123000D01*
X133497000Y-95377000D01*
X133477000Y-95377000D01*
X133477000Y-96876250D01*
X133635750Y-97035000D01*
X134200000Y-97038072D01*
X134324482Y-97025812D01*
X134444180Y-96989502D01*
X134554494Y-96930537D01*
X134651185Y-96851185D01*
X134730537Y-96754494D01*
X134789502Y-96644180D01*
X134810393Y-96575313D01*
X134834866Y-96605134D01*
X135060987Y-96790706D01*
X135318967Y-96928599D01*
X135598890Y-97013513D01*
X135890000Y-97042185D01*
X136181111Y-97013513D01*
X136461034Y-96928599D01*
X136719014Y-96790706D01*
X136945134Y-96605134D01*
X137130706Y-96379014D01*
X137160000Y-96324209D01*
X137189294Y-96379014D01*
X137374866Y-96605134D01*
X137600987Y-96790706D01*
X137858967Y-96928599D01*
X138138890Y-97013513D01*
X138430000Y-97042185D01*
X138721111Y-97013513D01*
X139001034Y-96928599D01*
X139259014Y-96790706D01*
X139485134Y-96605134D01*
X139670706Y-96379014D01*
X139700000Y-96324209D01*
X139729294Y-96379014D01*
X139914866Y-96605134D01*
X140140987Y-96790706D01*
X140398967Y-96928599D01*
X140678890Y-97013513D01*
X140970000Y-97042185D01*
X141261111Y-97013513D01*
X141541034Y-96928599D01*
X141799014Y-96790706D01*
X142025134Y-96605134D01*
X142210706Y-96379014D01*
X142240000Y-96324209D01*
X142269294Y-96379014D01*
X142454866Y-96605134D01*
X142680987Y-96790706D01*
X142938967Y-96928599D01*
X143218890Y-97013513D01*
X143510000Y-97042185D01*
X143801111Y-97013513D01*
X144081034Y-96928599D01*
X144339014Y-96790706D01*
X144565134Y-96605134D01*
X144750706Y-96379014D01*
X144780000Y-96324209D01*
X144809294Y-96379014D01*
X144994866Y-96605134D01*
X145220987Y-96790706D01*
X145478967Y-96928599D01*
X145758890Y-97013513D01*
X146050000Y-97042185D01*
X146341111Y-97013513D01*
X146621034Y-96928599D01*
X146879014Y-96790706D01*
X147105134Y-96605134D01*
X147290706Y-96379014D01*
X147320000Y-96324209D01*
X147349294Y-96379014D01*
X147534866Y-96605134D01*
X147760987Y-96790706D01*
X148018967Y-96928599D01*
X148298890Y-97013513D01*
X148590000Y-97042185D01*
X148881111Y-97013513D01*
X149161034Y-96928599D01*
X149419014Y-96790706D01*
X149645134Y-96605134D01*
X149830706Y-96379014D01*
X149860000Y-96324209D01*
X149889294Y-96379014D01*
X150074866Y-96605134D01*
X150300987Y-96790706D01*
X150558967Y-96928599D01*
X150838890Y-97013513D01*
X151130000Y-97042185D01*
X151421111Y-97013513D01*
X151701034Y-96928599D01*
X151959014Y-96790706D01*
X152185134Y-96605134D01*
X152370706Y-96379014D01*
X152400000Y-96324209D01*
X152429294Y-96379014D01*
X152614866Y-96605134D01*
X152840987Y-96790706D01*
X153098967Y-96928599D01*
X153378890Y-97013513D01*
X153670000Y-97042185D01*
X153961111Y-97013513D01*
X154241034Y-96928599D01*
X154499014Y-96790706D01*
X154725134Y-96605134D01*
X154910706Y-96379014D01*
X154940000Y-96324209D01*
X154969294Y-96379014D01*
X155154866Y-96605134D01*
X155380987Y-96790706D01*
X155638967Y-96928599D01*
X155918890Y-97013513D01*
X156210000Y-97042185D01*
X156501111Y-97013513D01*
X156781034Y-96928599D01*
X157039014Y-96790706D01*
X157265134Y-96605134D01*
X157450706Y-96379014D01*
X157480000Y-96324209D01*
X157509294Y-96379014D01*
X157694866Y-96605134D01*
X157920987Y-96790706D01*
X158178967Y-96928599D01*
X158458890Y-97013513D01*
X158750000Y-97042185D01*
X159041111Y-97013513D01*
X159321034Y-96928599D01*
X159579014Y-96790706D01*
X159805134Y-96605134D01*
X159990706Y-96379014D01*
X160128599Y-96121034D01*
X160213513Y-95841110D01*
X160235000Y-95622949D01*
X160235000Y-94877050D01*
X160213513Y-94658889D01*
X160128599Y-94378966D01*
X159990706Y-94120986D01*
X159805134Y-93894866D01*
X159579013Y-93709294D01*
X159321033Y-93571401D01*
X159041110Y-93486487D01*
X158750000Y-93457815D01*
X158458889Y-93486487D01*
X158178966Y-93571401D01*
X157920986Y-93709294D01*
X157694866Y-93894866D01*
X157509294Y-94120987D01*
X157480000Y-94175792D01*
X157450706Y-94120986D01*
X157265134Y-93894866D01*
X157039013Y-93709294D01*
X156781033Y-93571401D01*
X156501110Y-93486487D01*
X156210000Y-93457815D01*
X155918889Y-93486487D01*
X155638966Y-93571401D01*
X155380986Y-93709294D01*
X155154866Y-93894866D01*
X154969294Y-94120987D01*
X154940000Y-94175792D01*
X154910706Y-94120986D01*
X154725134Y-93894866D01*
X154499013Y-93709294D01*
X154241033Y-93571401D01*
X153961110Y-93486487D01*
X153670000Y-93457815D01*
X153378889Y-93486487D01*
X153098966Y-93571401D01*
X152840986Y-93709294D01*
X152614866Y-93894866D01*
X152429294Y-94120987D01*
X152400000Y-94175792D01*
X152370706Y-94120986D01*
X152185134Y-93894866D01*
X151959013Y-93709294D01*
X151701033Y-93571401D01*
X151421110Y-93486487D01*
X151130000Y-93457815D01*
X150838889Y-93486487D01*
X150558966Y-93571401D01*
X150300986Y-93709294D01*
X150074866Y-93894866D01*
X149889294Y-94120987D01*
X149860000Y-94175792D01*
X149830706Y-94120986D01*
X149645134Y-93894866D01*
X149419013Y-93709294D01*
X149161033Y-93571401D01*
X148881110Y-93486487D01*
X148590000Y-93457815D01*
X148298889Y-93486487D01*
X148018966Y-93571401D01*
X147760986Y-93709294D01*
X147534866Y-93894866D01*
X147349294Y-94120987D01*
X147320000Y-94175792D01*
X147290706Y-94120986D01*
X147105134Y-93894866D01*
X146879013Y-93709294D01*
X146621033Y-93571401D01*
X146341110Y-93486487D01*
X146050000Y-93457815D01*
X145758889Y-93486487D01*
X145478966Y-93571401D01*
X145220986Y-93709294D01*
X144994866Y-93894866D01*
X144809294Y-94120987D01*
X144780000Y-94175792D01*
X144750706Y-94120986D01*
X144565134Y-93894866D01*
X144339013Y-93709294D01*
X144081033Y-93571401D01*
X143801110Y-93486487D01*
X143510000Y-93457815D01*
X143218889Y-93486487D01*
X142938966Y-93571401D01*
X142680986Y-93709294D01*
X142454866Y-93894866D01*
X142269294Y-94120987D01*
X142240000Y-94175792D01*
X142210706Y-94120986D01*
X142025134Y-93894866D01*
X141799013Y-93709294D01*
X141541033Y-93571401D01*
X141261110Y-93486487D01*
X140970000Y-93457815D01*
X140678889Y-93486487D01*
X140398966Y-93571401D01*
X140140986Y-93709294D01*
X139914866Y-93894866D01*
X139729294Y-94120987D01*
X139700000Y-94175792D01*
X139670706Y-94120986D01*
X139485134Y-93894866D01*
X139259013Y-93709294D01*
X139001033Y-93571401D01*
X138721110Y-93486487D01*
X138430000Y-93457815D01*
X138138889Y-93486487D01*
X137858966Y-93571401D01*
X137600986Y-93709294D01*
X137374866Y-93894866D01*
X137189294Y-94120987D01*
X137160000Y-94175792D01*
X137130706Y-94120986D01*
X136945134Y-93894866D01*
X136719013Y-93709294D01*
X136461033Y-93571401D01*
X136181110Y-93486487D01*
X135890000Y-93457815D01*
X135598889Y-93486487D01*
X135318966Y-93571401D01*
X135060986Y-93709294D01*
X134834866Y-93894866D01*
X134810393Y-93924687D01*
X134789502Y-93855820D01*
X134730537Y-93745506D01*
X134651185Y-93648815D01*
X134554494Y-93569463D01*
X134444180Y-93510498D01*
X134324482Y-93474188D01*
X134200000Y-93461928D01*
X133635750Y-93465000D01*
X133477000Y-93623750D01*
X133223000Y-93623750D01*
X133064250Y-93465000D01*
X132500000Y-93461928D01*
X132375518Y-93474188D01*
X132255820Y-93510498D01*
X132145506Y-93569463D01*
X132048815Y-93648815D01*
X131969463Y-93745506D01*
X131910498Y-93855820D01*
X131874188Y-93975518D01*
X131861928Y-94100000D01*
X126953484Y-94100000D01*
X126785134Y-93894866D01*
X126559013Y-93709294D01*
X126301033Y-93571401D01*
X126021110Y-93486487D01*
X125730000Y-93457815D01*
X125438889Y-93486487D01*
X125158966Y-93571401D01*
X124900986Y-93709294D01*
X124674866Y-93894866D01*
X124650393Y-93924687D01*
X124629502Y-93855820D01*
X124570537Y-93745506D01*
X124491185Y-93648815D01*
X124394494Y-93569463D01*
X124284180Y-93510498D01*
X124164482Y-93474188D01*
X124040000Y-93461928D01*
X122340000Y-93461928D01*
X122215518Y-93474188D01*
X122095820Y-93510498D01*
X121985506Y-93569463D01*
X121888815Y-93648815D01*
X121809463Y-93745506D01*
X121750498Y-93855820D01*
X121714188Y-93975518D01*
X121701928Y-94100000D01*
X120190000Y-94100000D01*
X120190000Y-92169787D01*
X120193919Y-92129999D01*
X120184179Y-92031110D01*
X120178280Y-91971212D01*
X120131963Y-91818527D01*
X120082373Y-91725750D01*
X120056749Y-91677810D01*
X120011119Y-91622210D01*
X119955528Y-91554472D01*
X119924619Y-91529106D01*
X119462563Y-91067050D01*
X121705000Y-91067050D01*
X121705000Y-91812949D01*
X121726487Y-92031110D01*
X121811401Y-92311033D01*
X121949294Y-92569013D01*
X122134866Y-92795134D01*
X122360986Y-92980706D01*
X122618966Y-93118599D01*
X122898889Y-93203513D01*
X123190000Y-93232185D01*
X123481110Y-93203513D01*
X123761033Y-93118599D01*
X124019013Y-92980706D01*
X124245134Y-92795134D01*
X124269607Y-92765313D01*
X124290498Y-92834180D01*
X124349463Y-92944494D01*
X124428815Y-93041185D01*
X124525506Y-93120537D01*
X124635820Y-93179502D01*
X124755518Y-93215812D01*
X124880000Y-93228072D01*
X125444250Y-93225000D01*
X125603000Y-93066250D01*
X125603000Y-91567000D01*
X125857000Y-91567000D01*
X125857000Y-93066250D01*
X126015750Y-93225000D01*
X126580000Y-93228072D01*
X126704482Y-93215812D01*
X126824180Y-93179502D01*
X126934494Y-93120537D01*
X127031185Y-93041185D01*
X127110537Y-92944494D01*
X127169502Y-92834180D01*
X127205812Y-92714482D01*
X127218072Y-92590000D01*
X131861928Y-92590000D01*
X131874188Y-92714482D01*
X131910498Y-92834180D01*
X131969463Y-92944494D01*
X132048815Y-93041185D01*
X132145506Y-93120537D01*
X132255820Y-93179502D01*
X132375518Y-93215812D01*
X132500000Y-93228072D01*
X133064250Y-93225000D01*
X133223000Y-93066250D01*
X133223000Y-91567000D01*
X132023750Y-91567000D01*
X131865000Y-91725750D01*
X131861928Y-92590000D01*
X127218072Y-92590000D01*
X127215000Y-91725750D01*
X127056250Y-91567000D01*
X125857000Y-91567000D01*
X125603000Y-91567000D01*
X125583000Y-91567000D01*
X125583000Y-91313000D01*
X125603000Y-91313000D01*
X125603000Y-89813750D01*
X125857000Y-89813750D01*
X125857000Y-91313000D01*
X127056250Y-91313000D01*
X127215000Y-91154250D01*
X127218072Y-90290000D01*
X131861928Y-90290000D01*
X131865000Y-91154250D01*
X132023750Y-91313000D01*
X133223000Y-91313000D01*
X133223000Y-89813750D01*
X133477000Y-89813750D01*
X133477000Y-91313000D01*
X133497000Y-91313000D01*
X133497000Y-91567000D01*
X133477000Y-91567000D01*
X133477000Y-93066250D01*
X133635750Y-93225000D01*
X134200000Y-93228072D01*
X134324482Y-93215812D01*
X134444180Y-93179502D01*
X134554494Y-93120537D01*
X134651185Y-93041185D01*
X134730537Y-92944494D01*
X134789502Y-92834180D01*
X134810393Y-92765313D01*
X134834866Y-92795134D01*
X135060987Y-92980706D01*
X135318967Y-93118599D01*
X135598890Y-93203513D01*
X135890000Y-93232185D01*
X136181111Y-93203513D01*
X136461034Y-93118599D01*
X136719014Y-92980706D01*
X136945134Y-92795134D01*
X137130706Y-92569014D01*
X137268599Y-92311034D01*
X137353513Y-92031110D01*
X137375000Y-91812949D01*
X137375000Y-91792887D01*
X147238063Y-91792887D01*
X147295404Y-92069306D01*
X147405570Y-92329227D01*
X147564327Y-92562662D01*
X147765575Y-92760639D01*
X148001579Y-92915551D01*
X148263270Y-93021444D01*
X148320961Y-93031904D01*
X148543000Y-92909915D01*
X148543000Y-91567000D01*
X148797000Y-91567000D01*
X148797000Y-92909915D01*
X149019039Y-93031904D01*
X149076730Y-93021444D01*
X149338421Y-92915551D01*
X149574425Y-92760639D01*
X149775673Y-92562662D01*
X149934430Y-92329227D01*
X150044596Y-92069306D01*
X150101937Y-91792887D01*
X149949474Y-91567000D01*
X148797000Y-91567000D01*
X148543000Y-91567000D01*
X147390526Y-91567000D01*
X147238063Y-91792887D01*
X137375000Y-91792887D01*
X137375000Y-91087113D01*
X147238063Y-91087113D01*
X147390526Y-91313000D01*
X148543000Y-91313000D01*
X148543000Y-89970085D01*
X148797000Y-89970085D01*
X148797000Y-91313000D01*
X149949474Y-91313000D01*
X150046324Y-91169508D01*
X152235000Y-91169508D01*
X152235000Y-91710491D01*
X152255764Y-91921308D01*
X152337818Y-92191807D01*
X152471068Y-92441100D01*
X152650392Y-92659607D01*
X152868899Y-92838932D01*
X153118192Y-92972182D01*
X153388691Y-93054236D01*
X153670000Y-93081943D01*
X153951308Y-93054236D01*
X154221807Y-92972182D01*
X154471100Y-92838932D01*
X154689607Y-92659608D01*
X154868932Y-92441101D01*
X154940000Y-92308142D01*
X155011068Y-92441101D01*
X155190393Y-92659608D01*
X155408900Y-92838932D01*
X155658193Y-92972182D01*
X155928692Y-93054236D01*
X156210000Y-93081943D01*
X156491309Y-93054236D01*
X156761808Y-92972182D01*
X157011101Y-92838932D01*
X157229608Y-92659608D01*
X157408932Y-92441101D01*
X157542182Y-92191807D01*
X157624236Y-91921308D01*
X157636884Y-91792887D01*
X159778063Y-91792887D01*
X159835404Y-92069306D01*
X159945570Y-92329227D01*
X160104327Y-92562662D01*
X160305575Y-92760639D01*
X160541579Y-92915551D01*
X160803270Y-93021444D01*
X160860961Y-93031904D01*
X161083000Y-92909915D01*
X161083000Y-91567000D01*
X161337000Y-91567000D01*
X161337000Y-92909915D01*
X161559039Y-93031904D01*
X161616730Y-93021444D01*
X161878421Y-92915551D01*
X162114425Y-92760639D01*
X162315673Y-92562662D01*
X162474430Y-92329227D01*
X162584596Y-92069306D01*
X162641937Y-91792887D01*
X162489474Y-91567000D01*
X161337000Y-91567000D01*
X161083000Y-91567000D01*
X159930526Y-91567000D01*
X159778063Y-91792887D01*
X157636884Y-91792887D01*
X157645000Y-91710491D01*
X157645000Y-91169508D01*
X157636885Y-91087113D01*
X159778063Y-91087113D01*
X159930526Y-91313000D01*
X161083000Y-91313000D01*
X161083000Y-89970085D01*
X161337000Y-89970085D01*
X161337000Y-91313000D01*
X162489474Y-91313000D01*
X162512444Y-91278967D01*
X164735000Y-91278967D01*
X164735000Y-91601033D01*
X164797832Y-91916912D01*
X164921082Y-92214463D01*
X165100013Y-92482252D01*
X165327748Y-92709987D01*
X165595537Y-92888918D01*
X165893088Y-93012168D01*
X166208967Y-93075000D01*
X166531033Y-93075000D01*
X166846912Y-93012168D01*
X167144463Y-92888918D01*
X167412252Y-92709987D01*
X167639987Y-92482252D01*
X167818918Y-92214463D01*
X167942168Y-91916912D01*
X168005000Y-91601033D01*
X168005000Y-91278967D01*
X167942168Y-90963088D01*
X167818918Y-90665537D01*
X167639987Y-90397748D01*
X167412252Y-90170013D01*
X167144463Y-89991082D01*
X166846912Y-89867832D01*
X166531033Y-89805000D01*
X166208967Y-89805000D01*
X165893088Y-89867832D01*
X165595537Y-89991082D01*
X165327748Y-90170013D01*
X165100013Y-90397748D01*
X164921082Y-90665537D01*
X164797832Y-90963088D01*
X164735000Y-91278967D01*
X162512444Y-91278967D01*
X162641937Y-91087113D01*
X162584596Y-90810694D01*
X162474430Y-90550773D01*
X162315673Y-90317338D01*
X162114425Y-90119361D01*
X161878421Y-89964449D01*
X161616730Y-89858556D01*
X161559039Y-89848096D01*
X161337000Y-89970085D01*
X161083000Y-89970085D01*
X160860961Y-89848096D01*
X160803270Y-89858556D01*
X160541579Y-89964449D01*
X160305575Y-90119361D01*
X160104327Y-90317338D01*
X159945570Y-90550773D01*
X159835404Y-90810694D01*
X159778063Y-91087113D01*
X157636885Y-91087113D01*
X157624236Y-90958691D01*
X157542182Y-90688192D01*
X157408932Y-90438899D01*
X157229607Y-90220392D01*
X157011100Y-90041068D01*
X156761807Y-89907818D01*
X156491308Y-89825764D01*
X156210000Y-89798057D01*
X155928691Y-89825764D01*
X155658192Y-89907818D01*
X155408899Y-90041068D01*
X155190392Y-90220393D01*
X155011068Y-90438900D01*
X154940000Y-90571859D01*
X154868932Y-90438899D01*
X154689608Y-90220392D01*
X154471101Y-90041068D01*
X154221808Y-89907818D01*
X153951309Y-89825764D01*
X153670000Y-89798057D01*
X153388692Y-89825764D01*
X153118193Y-89907818D01*
X152868900Y-90041068D01*
X152650393Y-90220392D01*
X152471068Y-90438899D01*
X152337818Y-90688192D01*
X152255764Y-90958691D01*
X152235000Y-91169508D01*
X150046324Y-91169508D01*
X150101937Y-91087113D01*
X150044596Y-90810694D01*
X149934430Y-90550773D01*
X149775673Y-90317338D01*
X149574425Y-90119361D01*
X149338421Y-89964449D01*
X149076730Y-89858556D01*
X149019039Y-89848096D01*
X148797000Y-89970085D01*
X148543000Y-89970085D01*
X148320961Y-89848096D01*
X148263270Y-89858556D01*
X148001579Y-89964449D01*
X147765575Y-90119361D01*
X147564327Y-90317338D01*
X147405570Y-90550773D01*
X147295404Y-90810694D01*
X147238063Y-91087113D01*
X137375000Y-91087113D01*
X137375000Y-91067050D01*
X137353513Y-90848889D01*
X137268599Y-90568966D01*
X137130706Y-90310986D01*
X136945134Y-90084866D01*
X136719013Y-89899294D01*
X136461033Y-89761401D01*
X136181110Y-89676487D01*
X135890000Y-89647815D01*
X135598889Y-89676487D01*
X135318966Y-89761401D01*
X135060986Y-89899294D01*
X134834866Y-90084866D01*
X134810393Y-90114687D01*
X134789502Y-90045820D01*
X134730537Y-89935506D01*
X134651185Y-89838815D01*
X134554494Y-89759463D01*
X134444180Y-89700498D01*
X134324482Y-89664188D01*
X134200000Y-89651928D01*
X133635750Y-89655000D01*
X133477000Y-89813750D01*
X133223000Y-89813750D01*
X133064250Y-89655000D01*
X132500000Y-89651928D01*
X132375518Y-89664188D01*
X132255820Y-89700498D01*
X132145506Y-89759463D01*
X132048815Y-89838815D01*
X131969463Y-89935506D01*
X131910498Y-90045820D01*
X131874188Y-90165518D01*
X131861928Y-90290000D01*
X127218072Y-90290000D01*
X127205812Y-90165518D01*
X127169502Y-90045820D01*
X127110537Y-89935506D01*
X127031185Y-89838815D01*
X126934494Y-89759463D01*
X126824180Y-89700498D01*
X126704482Y-89664188D01*
X126580000Y-89651928D01*
X126015750Y-89655000D01*
X125857000Y-89813750D01*
X125603000Y-89813750D01*
X125444250Y-89655000D01*
X124880000Y-89651928D01*
X124755518Y-89664188D01*
X124635820Y-89700498D01*
X124525506Y-89759463D01*
X124428815Y-89838815D01*
X124349463Y-89935506D01*
X124290498Y-90045820D01*
X124269607Y-90114687D01*
X124245134Y-90084866D01*
X124019014Y-89899294D01*
X123761034Y-89761401D01*
X123481111Y-89676487D01*
X123190000Y-89647815D01*
X122898890Y-89676487D01*
X122618967Y-89761401D01*
X122360987Y-89899294D01*
X122134866Y-90084866D01*
X121949294Y-90310986D01*
X121811401Y-90568966D01*
X121726487Y-90848889D01*
X121705000Y-91067050D01*
X119462563Y-91067050D01*
X119290899Y-90895387D01*
X119265528Y-90864472D01*
X119142189Y-90763251D01*
X119001473Y-90688037D01*
X118848788Y-90641720D01*
X118762685Y-90633240D01*
X118706031Y-90527248D01*
X118501714Y-90278286D01*
X118252752Y-90073969D01*
X117968715Y-89922148D01*
X117660516Y-89828657D01*
X117420322Y-89805000D01*
X116559678Y-89805000D01*
X116319484Y-89828657D01*
X116011285Y-89922148D01*
X115727248Y-90073969D01*
X115478286Y-90278286D01*
X115273969Y-90527248D01*
X115219047Y-90630000D01*
X112260953Y-90630000D01*
X112206031Y-90527248D01*
X112001714Y-90278286D01*
X111752752Y-90073969D01*
X111468715Y-89922148D01*
X111160516Y-89828657D01*
X110920322Y-89805000D01*
X110059678Y-89805000D01*
X109819484Y-89828657D01*
X109511285Y-89922148D01*
X109227248Y-90073969D01*
X108978286Y-90278286D01*
X108773969Y-90527248D01*
X108717315Y-90633240D01*
X108631212Y-90641720D01*
X108478527Y-90688037D01*
X108337811Y-90763251D01*
X108214472Y-90864472D01*
X108189105Y-90895382D01*
X107542906Y-91541582D01*
X107552911Y-91440000D01*
X107521343Y-91119484D01*
X107427852Y-90811285D01*
X107276031Y-90527248D01*
X107071714Y-90278286D01*
X106822752Y-90073969D01*
X106538715Y-89922148D01*
X106230516Y-89828657D01*
X105990322Y-89805000D01*
X105129678Y-89805000D01*
X104889484Y-89828657D01*
X104581285Y-89922148D01*
X104297248Y-90073969D01*
X104048286Y-90278286D01*
X103843969Y-90527248D01*
X103692148Y-90811285D01*
X103598657Y-91119484D01*
X103567089Y-91440000D01*
X103598657Y-91760516D01*
X103692148Y-92068715D01*
X103843969Y-92352752D01*
X104048286Y-92601714D01*
X104297248Y-92806031D01*
X104581285Y-92957852D01*
X104889484Y-93051343D01*
X105129678Y-93075000D01*
X105990322Y-93075000D01*
X106230516Y-93051343D01*
X106538715Y-92957852D01*
X106822752Y-92806031D01*
X107071714Y-92601714D01*
X107140000Y-92518507D01*
X107140000Y-94858406D01*
X106923954Y-94651105D01*
X106653020Y-94478058D01*
X106353532Y-94361193D01*
X106037000Y-94305000D01*
X105687000Y-94305000D01*
X105687000Y-95813000D01*
X105707000Y-95813000D01*
X105707000Y-96067000D01*
X105687000Y-96067000D01*
X105687000Y-97575000D01*
X106037000Y-97575000D01*
X106353532Y-97518807D01*
X106653020Y-97401942D01*
X106923954Y-97228895D01*
X107140000Y-97021594D01*
X107140001Y-103804486D01*
X106344488Y-104600000D01*
X94260869Y-104600000D01*
X94250706Y-104580986D01*
X94065134Y-104354866D01*
X93839014Y-104169294D01*
X93581034Y-104031401D01*
X93301111Y-103946487D01*
X93082950Y-103925000D01*
X92337050Y-103925000D01*
X92118889Y-103946487D01*
X91838966Y-104031401D01*
X91580986Y-104169294D01*
X91354866Y-104354866D01*
X91169294Y-104580986D01*
X91031401Y-104838966D01*
X90946487Y-105118889D01*
X90917815Y-105410000D01*
X89560000Y-105410000D01*
X89560000Y-99910000D01*
X90921928Y-99910000D01*
X90934188Y-100034482D01*
X90970498Y-100154180D01*
X91029463Y-100264494D01*
X91108815Y-100361185D01*
X91205506Y-100440537D01*
X91315820Y-100499502D01*
X91435518Y-100535812D01*
X91560000Y-100548072D01*
X92424250Y-100545000D01*
X92583000Y-100386250D01*
X92583000Y-99187000D01*
X92837000Y-99187000D01*
X92837000Y-100386250D01*
X92995750Y-100545000D01*
X93860000Y-100548072D01*
X93984482Y-100535812D01*
X94104180Y-100499502D01*
X94214494Y-100440537D01*
X94311185Y-100361185D01*
X94390537Y-100264494D01*
X94449502Y-100154180D01*
X94485812Y-100034482D01*
X94498072Y-99910000D01*
X94495000Y-99345750D01*
X94336250Y-99187000D01*
X92837000Y-99187000D01*
X92583000Y-99187000D01*
X91083750Y-99187000D01*
X90925000Y-99345750D01*
X90921928Y-99910000D01*
X89560000Y-99910000D01*
X89560000Y-96520000D01*
X90917815Y-96520000D01*
X90946487Y-96811111D01*
X91031401Y-97091034D01*
X91169294Y-97349014D01*
X91354866Y-97575134D01*
X91384687Y-97599607D01*
X91315820Y-97620498D01*
X91205506Y-97679463D01*
X91108815Y-97758815D01*
X91029463Y-97855506D01*
X90970498Y-97965820D01*
X90934188Y-98085518D01*
X90921928Y-98210000D01*
X90925000Y-98774250D01*
X91083750Y-98933000D01*
X92583000Y-98933000D01*
X92583000Y-98913000D01*
X92837000Y-98913000D01*
X92837000Y-98933000D01*
X94336250Y-98933000D01*
X94495000Y-98774250D01*
X94498072Y-98210000D01*
X94485812Y-98085518D01*
X94449502Y-97965820D01*
X94390537Y-97855506D01*
X94311185Y-97758815D01*
X94214494Y-97679463D01*
X94104180Y-97620498D01*
X94035313Y-97599607D01*
X94065134Y-97575134D01*
X94250706Y-97349014D01*
X94388599Y-97091034D01*
X94473513Y-96811111D01*
X94502185Y-96520000D01*
X94482530Y-96320434D01*
X97119876Y-96320434D01*
X97150856Y-96448355D01*
X97279990Y-96742761D01*
X97464078Y-97006317D01*
X97696046Y-97228895D01*
X97966980Y-97401942D01*
X98266468Y-97518807D01*
X98583000Y-97575000D01*
X98933000Y-97575000D01*
X98933000Y-96067000D01*
X99187000Y-96067000D01*
X99187000Y-97575000D01*
X99537000Y-97575000D01*
X99853532Y-97518807D01*
X100153020Y-97401942D01*
X100423954Y-97228895D01*
X100655922Y-97006317D01*
X100840010Y-96742761D01*
X100969144Y-96448355D01*
X101000124Y-96320434D01*
X103619876Y-96320434D01*
X103650856Y-96448355D01*
X103779990Y-96742761D01*
X103964078Y-97006317D01*
X104196046Y-97228895D01*
X104466980Y-97401942D01*
X104766468Y-97518807D01*
X105083000Y-97575000D01*
X105433000Y-97575000D01*
X105433000Y-96067000D01*
X103739223Y-96067000D01*
X103619876Y-96320434D01*
X101000124Y-96320434D01*
X100880777Y-96067000D01*
X99187000Y-96067000D01*
X98933000Y-96067000D01*
X97239223Y-96067000D01*
X97119876Y-96320434D01*
X94482530Y-96320434D01*
X94473513Y-96228889D01*
X94388599Y-95948966D01*
X94250706Y-95690986D01*
X94142853Y-95559566D01*
X97119876Y-95559566D01*
X97239223Y-95813000D01*
X98933000Y-95813000D01*
X98933000Y-94305000D01*
X99187000Y-94305000D01*
X99187000Y-95813000D01*
X100880777Y-95813000D01*
X101000124Y-95559566D01*
X103619876Y-95559566D01*
X103739223Y-95813000D01*
X105433000Y-95813000D01*
X105433000Y-94305000D01*
X105083000Y-94305000D01*
X104766468Y-94361193D01*
X104466980Y-94478058D01*
X104196046Y-94651105D01*
X103964078Y-94873683D01*
X103779990Y-95137239D01*
X103650856Y-95431645D01*
X103619876Y-95559566D01*
X101000124Y-95559566D01*
X100969144Y-95431645D01*
X100840010Y-95137239D01*
X100655922Y-94873683D01*
X100423954Y-94651105D01*
X100153020Y-94478058D01*
X99853532Y-94361193D01*
X99537000Y-94305000D01*
X99187000Y-94305000D01*
X98933000Y-94305000D01*
X98583000Y-94305000D01*
X98266468Y-94361193D01*
X97966980Y-94478058D01*
X97696046Y-94651105D01*
X97464078Y-94873683D01*
X97279990Y-95137239D01*
X97150856Y-95431645D01*
X97119876Y-95559566D01*
X94142853Y-95559566D01*
X94065134Y-95464866D01*
X93839014Y-95279294D01*
X93581034Y-95141401D01*
X93301111Y-95056487D01*
X93082950Y-95035000D01*
X92337050Y-95035000D01*
X92118889Y-95056487D01*
X91838966Y-95141401D01*
X91580986Y-95279294D01*
X91354866Y-95464866D01*
X91169294Y-95690986D01*
X91031401Y-95948966D01*
X90946487Y-96228889D01*
X90917815Y-96520000D01*
X89560000Y-96520000D01*
X89560000Y-91278967D01*
X91075000Y-91278967D01*
X91075000Y-91601033D01*
X91137832Y-91916912D01*
X91261082Y-92214463D01*
X91440013Y-92482252D01*
X91667748Y-92709987D01*
X91935537Y-92888918D01*
X92233088Y-93012168D01*
X92548967Y-93075000D01*
X92871033Y-93075000D01*
X93186912Y-93012168D01*
X93484463Y-92888918D01*
X93752252Y-92709987D01*
X93979987Y-92482252D01*
X94158918Y-92214463D01*
X94282168Y-91916912D01*
X94345000Y-91601033D01*
X94345000Y-91440000D01*
X97067089Y-91440000D01*
X97098657Y-91760516D01*
X97192148Y-92068715D01*
X97343969Y-92352752D01*
X97548286Y-92601714D01*
X97797248Y-92806031D01*
X98081285Y-92957852D01*
X98389484Y-93051343D01*
X98629678Y-93075000D01*
X99490322Y-93075000D01*
X99730516Y-93051343D01*
X100038715Y-92957852D01*
X100322752Y-92806031D01*
X100571714Y-92601714D01*
X100776031Y-92352752D01*
X100927852Y-92068715D01*
X101021343Y-91760516D01*
X101052911Y-91440000D01*
X101021343Y-91119484D01*
X100927852Y-90811285D01*
X100776031Y-90527248D01*
X100571714Y-90278286D01*
X100322752Y-90073969D01*
X100038715Y-89922148D01*
X99730516Y-89828657D01*
X99490322Y-89805000D01*
X98629678Y-89805000D01*
X98389484Y-89828657D01*
X98081285Y-89922148D01*
X97797248Y-90073969D01*
X97548286Y-90278286D01*
X97343969Y-90527248D01*
X97192148Y-90811285D01*
X97098657Y-91119484D01*
X97067089Y-91440000D01*
X94345000Y-91440000D01*
X94345000Y-91278967D01*
X94282168Y-90963088D01*
X94158918Y-90665537D01*
X93979987Y-90397748D01*
X93752252Y-90170013D01*
X93484463Y-89991082D01*
X93186912Y-89867832D01*
X92871033Y-89805000D01*
X92548967Y-89805000D01*
X92233088Y-89867832D01*
X91935537Y-89991082D01*
X91667748Y-90170013D01*
X91440013Y-90397748D01*
X91261082Y-90665537D01*
X91137832Y-90963088D01*
X91075000Y-91278967D01*
X89560000Y-91278967D01*
X89560000Y-77968003D01*
X89767573Y-77968003D01*
X89847947Y-78265368D01*
X90046388Y-78689439D01*
X90323748Y-79066648D01*
X90669369Y-79382498D01*
X91069968Y-79624852D01*
X91510150Y-79784396D01*
X91973000Y-79855000D01*
X92973000Y-79855000D01*
X92973000Y-77597000D01*
X93227000Y-77597000D01*
X93227000Y-79855000D01*
X94227000Y-79855000D01*
X94689850Y-79784396D01*
X95130032Y-79624852D01*
X95530631Y-79382498D01*
X95876252Y-79066648D01*
X96153612Y-78689439D01*
X96352053Y-78265368D01*
X96432427Y-77968003D01*
X96322625Y-77597000D01*
X93227000Y-77597000D01*
X92973000Y-77597000D01*
X89877375Y-77597000D01*
X89767573Y-77968003D01*
X89560000Y-77968003D01*
X89560000Y-76971997D01*
X89767573Y-76971997D01*
X89877375Y-77343000D01*
X92973000Y-77343000D01*
X92973000Y-75085000D01*
X93227000Y-75085000D01*
X93227000Y-77343000D01*
X96322625Y-77343000D01*
X96350187Y-77249872D01*
X98610000Y-77249872D01*
X98610000Y-77690128D01*
X98695890Y-78121925D01*
X98864369Y-78528669D01*
X99108962Y-78894729D01*
X99420271Y-79206038D01*
X99786331Y-79450631D01*
X100193075Y-79619110D01*
X100624872Y-79705000D01*
X101065128Y-79705000D01*
X101496925Y-79619110D01*
X101903669Y-79450631D01*
X102269729Y-79206038D01*
X102581038Y-78894729D01*
X102825631Y-78528669D01*
X102994110Y-78121925D01*
X103080000Y-77690128D01*
X103080000Y-77249872D01*
X154220000Y-77249872D01*
X154220000Y-77690128D01*
X154305890Y-78121925D01*
X154474369Y-78528669D01*
X154718962Y-78894729D01*
X155030271Y-79206038D01*
X155396331Y-79450631D01*
X155803075Y-79619110D01*
X156234872Y-79705000D01*
X156675128Y-79705000D01*
X157106925Y-79619110D01*
X157513669Y-79450631D01*
X157879729Y-79206038D01*
X158191038Y-78894729D01*
X158435631Y-78528669D01*
X158604110Y-78121925D01*
X158690000Y-77690128D01*
X158690000Y-77249872D01*
X158604110Y-76818075D01*
X158435631Y-76411331D01*
X158191038Y-76045271D01*
X157879729Y-75733962D01*
X157858834Y-75720000D01*
X161711928Y-75720000D01*
X161711928Y-79220000D01*
X161724188Y-79344482D01*
X161760498Y-79464180D01*
X161819463Y-79574494D01*
X161898815Y-79671185D01*
X161995506Y-79750537D01*
X162105820Y-79809502D01*
X162225518Y-79845812D01*
X162350000Y-79858072D01*
X167850000Y-79858072D01*
X167974482Y-79845812D01*
X168094180Y-79809502D01*
X168204494Y-79750537D01*
X168301185Y-79671185D01*
X168380537Y-79574494D01*
X168439502Y-79464180D01*
X168475812Y-79344482D01*
X168488072Y-79220000D01*
X168488072Y-75720000D01*
X168475812Y-75595518D01*
X168439502Y-75475820D01*
X168380537Y-75365506D01*
X168301185Y-75268815D01*
X168204494Y-75189463D01*
X168094180Y-75130498D01*
X167974482Y-75094188D01*
X167850000Y-75081928D01*
X162350000Y-75081928D01*
X162225518Y-75094188D01*
X162105820Y-75130498D01*
X161995506Y-75189463D01*
X161898815Y-75268815D01*
X161819463Y-75365506D01*
X161760498Y-75475820D01*
X161724188Y-75595518D01*
X161711928Y-75720000D01*
X157858834Y-75720000D01*
X157513669Y-75489369D01*
X157106925Y-75320890D01*
X156675128Y-75235000D01*
X156234872Y-75235000D01*
X155803075Y-75320890D01*
X155396331Y-75489369D01*
X155030271Y-75733962D01*
X154718962Y-76045271D01*
X154474369Y-76411331D01*
X154305890Y-76818075D01*
X154220000Y-77249872D01*
X103080000Y-77249872D01*
X102994110Y-76818075D01*
X102825631Y-76411331D01*
X102581038Y-76045271D01*
X102269729Y-75733962D01*
X101903669Y-75489369D01*
X101496925Y-75320890D01*
X101065128Y-75235000D01*
X100624872Y-75235000D01*
X100193075Y-75320890D01*
X99786331Y-75489369D01*
X99420271Y-75733962D01*
X99108962Y-76045271D01*
X98864369Y-76411331D01*
X98695890Y-76818075D01*
X98610000Y-77249872D01*
X96350187Y-77249872D01*
X96432427Y-76971997D01*
X96352053Y-76674632D01*
X96153612Y-76250561D01*
X95876252Y-75873352D01*
X95530631Y-75557502D01*
X95130032Y-75315148D01*
X94689850Y-75155604D01*
X94227000Y-75085000D01*
X93227000Y-75085000D01*
X92973000Y-75085000D01*
X91973000Y-75085000D01*
X91510150Y-75155604D01*
X91069968Y-75315148D01*
X90669369Y-75557502D01*
X90323748Y-75873352D01*
X90046388Y-76250561D01*
X89847947Y-76674632D01*
X89767573Y-76971997D01*
X89560000Y-76971997D01*
X89560000Y-66700000D01*
X169520000Y-66700000D01*
X169520001Y-131420000D01*
M02*
